<?xml version="1.0" encoding="utf-8" standalone="no"?>
<!DOCTYPE svg PUBLIC "-//W3C//DTD SVG 1.1//EN"
  "http://www.w3.org/Graphics/SVG/1.1/DTD/svg11.dtd">
<svg xmlns:xlink="http://www.w3.org/1999/xlink" width="864pt" height="360pt" viewBox="0 0 864 360" xmlns="http://www.w3.org/2000/svg" version="1.1">
 <metadata>
  <rdf:RDF xmlns:dc="http://purl.org/dc/elements/1.1/" xmlns:cc="http://creativecommons.org/ns#" xmlns:rdf="http://www.w3.org/1999/02/22-rdf-syntax-ns#">
   <cc:Work>
    <dc:type rdf:resource="http://purl.org/dc/dcmitype/StillImage"/>
    <dc:date>2024-07-24T08:12:44.324508</dc:date>
    <dc:format>image/svg+xml</dc:format>
    <dc:creator>
     <cc:Agent>
      <dc:title>Matplotlib v3.9.1, https://matplotlib.org/</dc:title>
     </cc:Agent>
    </dc:creator>
   </cc:Work>
  </rdf:RDF>
 </metadata>
 <defs>
  <style type="text/css">*{stroke-linejoin: round; stroke-linecap: butt}</style>
 </defs>
 <g id="figure_1">
  <g id="patch_1">
   <path d="M 0 360 
L 864 360 
L 864 0 
L 0 0 
L 0 360 
z
" style="fill: none; opacity: 0"/>
  </g>
  <g id="axes_1">
   <g id="patch_2">
    <path d="M 108 320.4 
L 777.6 320.4 
L 777.6 43.2 
L 108 43.2 
L 108 320.4 
z
" style="fill: none; opacity: 0"/>
   </g>
   <g id="matplotlib.axis_1">
    <g id="xtick_1">
     <g id="line2d_1">
      <path d="M 160.097279 320.4 
L 160.097279 43.2 
" clip-path="url(#pbf3e8d8319)" style="fill: none; stroke-dasharray: 5.12,1.28,0.8,1.28; stroke-dashoffset: 0; stroke: #b0b0b0; stroke-width: 0.8"/>
     </g>
     <g id="line2d_2">
      <defs>
       <path id="mfe5bdc58ae" d="M 0 0 
L 0 3.5 
" style="stroke: #a9a9a9; stroke-width: 0.8"/>
      </defs>
      <g>
       <use xlink:href="#mfe5bdc58ae" x="160.097279" y="320.4" style="fill: #a9a9a9; stroke: #a9a9a9; stroke-width: 0.8"/>
      </g>
     </g>
     <g id="text_1">
      <!-- 2021-09 -->
      <g style="fill: #a9a9a9" transform="translate(139.205873 334.998438) scale(0.1 -0.1)">
       <defs>
        <path id="DejaVuSans-32" d="M 1228 531 
L 3431 531 
L 3431 0 
L 469 0 
L 469 531 
Q 828 903 1448 1529 
Q 2069 2156 2228 2338 
Q 2531 2678 2651 2914 
Q 2772 3150 2772 3378 
Q 2772 3750 2511 3984 
Q 2250 4219 1831 4219 
Q 1534 4219 1204 4116 
Q 875 4013 500 3803 
L 500 4441 
Q 881 4594 1212 4672 
Q 1544 4750 1819 4750 
Q 2544 4750 2975 4387 
Q 3406 4025 3406 3419 
Q 3406 3131 3298 2873 
Q 3191 2616 2906 2266 
Q 2828 2175 2409 1742 
Q 1991 1309 1228 531 
z
" transform="scale(0.015625)"/>
        <path id="DejaVuSans-30" d="M 2034 4250 
Q 1547 4250 1301 3770 
Q 1056 3291 1056 2328 
Q 1056 1369 1301 889 
Q 1547 409 2034 409 
Q 2525 409 2770 889 
Q 3016 1369 3016 2328 
Q 3016 3291 2770 3770 
Q 2525 4250 2034 4250 
z
M 2034 4750 
Q 2819 4750 3233 4129 
Q 3647 3509 3647 2328 
Q 3647 1150 3233 529 
Q 2819 -91 2034 -91 
Q 1250 -91 836 529 
Q 422 1150 422 2328 
Q 422 3509 836 4129 
Q 1250 4750 2034 4750 
z
" transform="scale(0.015625)"/>
        <path id="DejaVuSans-31" d="M 794 531 
L 1825 531 
L 1825 4091 
L 703 3866 
L 703 4441 
L 1819 4666 
L 2450 4666 
L 2450 531 
L 3481 531 
L 3481 0 
L 794 0 
L 794 531 
z
" transform="scale(0.015625)"/>
        <path id="DejaVuSans-2d" d="M 313 2009 
L 1997 2009 
L 1997 1497 
L 313 1497 
L 313 2009 
z
" transform="scale(0.015625)"/>
        <path id="DejaVuSans-39" d="M 703 97 
L 703 672 
Q 941 559 1184 500 
Q 1428 441 1663 441 
Q 2288 441 2617 861 
Q 2947 1281 2994 2138 
Q 2813 1869 2534 1725 
Q 2256 1581 1919 1581 
Q 1219 1581 811 2004 
Q 403 2428 403 3163 
Q 403 3881 828 4315 
Q 1253 4750 1959 4750 
Q 2769 4750 3195 4129 
Q 3622 3509 3622 2328 
Q 3622 1225 3098 567 
Q 2575 -91 1691 -91 
Q 1453 -91 1209 -44 
Q 966 3 703 97 
z
M 1959 2075 
Q 2384 2075 2632 2365 
Q 2881 2656 2881 3163 
Q 2881 3666 2632 3958 
Q 2384 4250 1959 4250 
Q 1534 4250 1286 3958 
Q 1038 3666 1038 3163 
Q 1038 2656 1286 2365 
Q 1534 2075 1959 2075 
z
" transform="scale(0.015625)"/>
       </defs>
       <use xlink:href="#DejaVuSans-32"/>
       <use xlink:href="#DejaVuSans-30" x="63.623047"/>
       <use xlink:href="#DejaVuSans-32" x="127.246094"/>
       <use xlink:href="#DejaVuSans-31" x="190.869141"/>
       <use xlink:href="#DejaVuSans-2d" x="254.492188"/>
       <use xlink:href="#DejaVuSans-30" x="290.576172"/>
       <use xlink:href="#DejaVuSans-39" x="354.199219"/>
      </g>
     </g>
    </g>
    <g id="xtick_2">
     <g id="line2d_3">
      <path d="M 227.857067 320.4 
L 227.857067 43.2 
" clip-path="url(#pbf3e8d8319)" style="fill: none; stroke-dasharray: 5.12,1.28,0.8,1.28; stroke-dashoffset: 0; stroke: #b0b0b0; stroke-width: 0.8"/>
     </g>
     <g id="line2d_4">
      <g>
       <use xlink:href="#mfe5bdc58ae" x="227.857067" y="320.4" style="fill: #a9a9a9; stroke: #a9a9a9; stroke-width: 0.8"/>
      </g>
     </g>
     <g id="text_2">
      <!-- 2022-01 -->
      <g style="fill: #a9a9a9" transform="translate(206.965661 334.998438) scale(0.1 -0.1)">
       <use xlink:href="#DejaVuSans-32"/>
       <use xlink:href="#DejaVuSans-30" x="63.623047"/>
       <use xlink:href="#DejaVuSans-32" x="127.246094"/>
       <use xlink:href="#DejaVuSans-32" x="190.869141"/>
       <use xlink:href="#DejaVuSans-2d" x="254.492188"/>
       <use xlink:href="#DejaVuSans-30" x="290.576172"/>
       <use xlink:href="#DejaVuSans-31" x="354.199219"/>
      </g>
     </g>
    </g>
    <g id="xtick_3">
     <g id="line2d_5">
      <path d="M 294.506038 320.4 
L 294.506038 43.2 
" clip-path="url(#pbf3e8d8319)" style="fill: none; stroke-dasharray: 5.12,1.28,0.8,1.28; stroke-dashoffset: 0; stroke: #b0b0b0; stroke-width: 0.8"/>
     </g>
     <g id="line2d_6">
      <g>
       <use xlink:href="#mfe5bdc58ae" x="294.506038" y="320.4" style="fill: #a9a9a9; stroke: #a9a9a9; stroke-width: 0.8"/>
      </g>
     </g>
     <g id="text_3">
      <!-- 2022-05 -->
      <g style="fill: #a9a9a9" transform="translate(273.614632 334.998438) scale(0.1 -0.1)">
       <defs>
        <path id="DejaVuSans-35" d="M 691 4666 
L 3169 4666 
L 3169 4134 
L 1269 4134 
L 1269 2991 
Q 1406 3038 1543 3061 
Q 1681 3084 1819 3084 
Q 2600 3084 3056 2656 
Q 3513 2228 3513 1497 
Q 3513 744 3044 326 
Q 2575 -91 1722 -91 
Q 1428 -91 1123 -41 
Q 819 9 494 109 
L 494 744 
Q 775 591 1075 516 
Q 1375 441 1709 441 
Q 2250 441 2565 725 
Q 2881 1009 2881 1497 
Q 2881 1984 2565 2268 
Q 2250 2553 1709 2553 
Q 1456 2553 1204 2497 
Q 953 2441 691 2322 
L 691 4666 
z
" transform="scale(0.015625)"/>
       </defs>
       <use xlink:href="#DejaVuSans-32"/>
       <use xlink:href="#DejaVuSans-30" x="63.623047"/>
       <use xlink:href="#DejaVuSans-32" x="127.246094"/>
       <use xlink:href="#DejaVuSans-32" x="190.869141"/>
       <use xlink:href="#DejaVuSans-2d" x="254.492188"/>
       <use xlink:href="#DejaVuSans-30" x="290.576172"/>
       <use xlink:href="#DejaVuSans-35" x="354.199219"/>
      </g>
     </g>
    </g>
    <g id="xtick_4">
     <g id="line2d_7">
      <path d="M 362.821234 320.4 
L 362.821234 43.2 
" clip-path="url(#pbf3e8d8319)" style="fill: none; stroke-dasharray: 5.12,1.28,0.8,1.28; stroke-dashoffset: 0; stroke: #b0b0b0; stroke-width: 0.8"/>
     </g>
     <g id="line2d_8">
      <g>
       <use xlink:href="#mfe5bdc58ae" x="362.821234" y="320.4" style="fill: #a9a9a9; stroke: #a9a9a9; stroke-width: 0.8"/>
      </g>
     </g>
     <g id="text_4">
      <!-- 2022-09 -->
      <g style="fill: #a9a9a9" transform="translate(341.929828 334.998438) scale(0.1 -0.1)">
       <use xlink:href="#DejaVuSans-32"/>
       <use xlink:href="#DejaVuSans-30" x="63.623047"/>
       <use xlink:href="#DejaVuSans-32" x="127.246094"/>
       <use xlink:href="#DejaVuSans-32" x="190.869141"/>
       <use xlink:href="#DejaVuSans-2d" x="254.492188"/>
       <use xlink:href="#DejaVuSans-30" x="290.576172"/>
       <use xlink:href="#DejaVuSans-39" x="354.199219"/>
      </g>
     </g>
    </g>
    <g id="xtick_5">
     <g id="line2d_9">
      <path d="M 430.581022 320.4 
L 430.581022 43.2 
" clip-path="url(#pbf3e8d8319)" style="fill: none; stroke-dasharray: 5.12,1.28,0.8,1.28; stroke-dashoffset: 0; stroke: #b0b0b0; stroke-width: 0.8"/>
     </g>
     <g id="line2d_10">
      <g>
       <use xlink:href="#mfe5bdc58ae" x="430.581022" y="320.4" style="fill: #a9a9a9; stroke: #a9a9a9; stroke-width: 0.8"/>
      </g>
     </g>
     <g id="text_5">
      <!-- 2023-01 -->
      <g style="fill: #a9a9a9" transform="translate(409.689616 334.998438) scale(0.1 -0.1)">
       <defs>
        <path id="DejaVuSans-33" d="M 2597 2516 
Q 3050 2419 3304 2112 
Q 3559 1806 3559 1356 
Q 3559 666 3084 287 
Q 2609 -91 1734 -91 
Q 1441 -91 1130 -33 
Q 819 25 488 141 
L 488 750 
Q 750 597 1062 519 
Q 1375 441 1716 441 
Q 2309 441 2620 675 
Q 2931 909 2931 1356 
Q 2931 1769 2642 2001 
Q 2353 2234 1838 2234 
L 1294 2234 
L 1294 2753 
L 1863 2753 
Q 2328 2753 2575 2939 
Q 2822 3125 2822 3475 
Q 2822 3834 2567 4026 
Q 2313 4219 1838 4219 
Q 1578 4219 1281 4162 
Q 984 4106 628 3988 
L 628 4550 
Q 988 4650 1302 4700 
Q 1616 4750 1894 4750 
Q 2613 4750 3031 4423 
Q 3450 4097 3450 3541 
Q 3450 3153 3228 2886 
Q 3006 2619 2597 2516 
z
" transform="scale(0.015625)"/>
       </defs>
       <use xlink:href="#DejaVuSans-32"/>
       <use xlink:href="#DejaVuSans-30" x="63.623047"/>
       <use xlink:href="#DejaVuSans-32" x="127.246094"/>
       <use xlink:href="#DejaVuSans-33" x="190.869141"/>
       <use xlink:href="#DejaVuSans-2d" x="254.492188"/>
       <use xlink:href="#DejaVuSans-30" x="290.576172"/>
       <use xlink:href="#DejaVuSans-31" x="354.199219"/>
      </g>
     </g>
    </g>
    <g id="xtick_6">
     <g id="line2d_11">
      <path d="M 497.229993 320.4 
L 497.229993 43.2 
" clip-path="url(#pbf3e8d8319)" style="fill: none; stroke-dasharray: 5.12,1.28,0.8,1.28; stroke-dashoffset: 0; stroke: #b0b0b0; stroke-width: 0.8"/>
     </g>
     <g id="line2d_12">
      <g>
       <use xlink:href="#mfe5bdc58ae" x="497.229993" y="320.4" style="fill: #a9a9a9; stroke: #a9a9a9; stroke-width: 0.8"/>
      </g>
     </g>
     <g id="text_6">
      <!-- 2023-05 -->
      <g style="fill: #a9a9a9" transform="translate(476.338587 334.998438) scale(0.1 -0.1)">
       <use xlink:href="#DejaVuSans-32"/>
       <use xlink:href="#DejaVuSans-30" x="63.623047"/>
       <use xlink:href="#DejaVuSans-32" x="127.246094"/>
       <use xlink:href="#DejaVuSans-33" x="190.869141"/>
       <use xlink:href="#DejaVuSans-2d" x="254.492188"/>
       <use xlink:href="#DejaVuSans-30" x="290.576172"/>
       <use xlink:href="#DejaVuSans-35" x="354.199219"/>
      </g>
     </g>
    </g>
    <g id="xtick_7">
     <g id="line2d_13">
      <path d="M 565.545189 320.4 
L 565.545189 43.2 
" clip-path="url(#pbf3e8d8319)" style="fill: none; stroke-dasharray: 5.12,1.28,0.8,1.28; stroke-dashoffset: 0; stroke: #b0b0b0; stroke-width: 0.8"/>
     </g>
     <g id="line2d_14">
      <g>
       <use xlink:href="#mfe5bdc58ae" x="565.545189" y="320.4" style="fill: #a9a9a9; stroke: #a9a9a9; stroke-width: 0.8"/>
      </g>
     </g>
     <g id="text_7">
      <!-- 2023-09 -->
      <g style="fill: #a9a9a9" transform="translate(544.653783 334.998438) scale(0.1 -0.1)">
       <use xlink:href="#DejaVuSans-32"/>
       <use xlink:href="#DejaVuSans-30" x="63.623047"/>
       <use xlink:href="#DejaVuSans-32" x="127.246094"/>
       <use xlink:href="#DejaVuSans-33" x="190.869141"/>
       <use xlink:href="#DejaVuSans-2d" x="254.492188"/>
       <use xlink:href="#DejaVuSans-30" x="290.576172"/>
       <use xlink:href="#DejaVuSans-39" x="354.199219"/>
      </g>
     </g>
    </g>
    <g id="xtick_8">
     <g id="line2d_15">
      <path d="M 633.304977 320.4 
L 633.304977 43.2 
" clip-path="url(#pbf3e8d8319)" style="fill: none; stroke-dasharray: 5.12,1.28,0.8,1.28; stroke-dashoffset: 0; stroke: #b0b0b0; stroke-width: 0.8"/>
     </g>
     <g id="line2d_16">
      <g>
       <use xlink:href="#mfe5bdc58ae" x="633.304977" y="320.4" style="fill: #a9a9a9; stroke: #a9a9a9; stroke-width: 0.8"/>
      </g>
     </g>
     <g id="text_8">
      <!-- 2024-01 -->
      <g style="fill: #a9a9a9" transform="translate(612.413571 334.998438) scale(0.1 -0.1)">
       <defs>
        <path id="DejaVuSans-34" d="M 2419 4116 
L 825 1625 
L 2419 1625 
L 2419 4116 
z
M 2253 4666 
L 3047 4666 
L 3047 1625 
L 3713 1625 
L 3713 1100 
L 3047 1100 
L 3047 0 
L 2419 0 
L 2419 1100 
L 313 1100 
L 313 1709 
L 2253 4666 
z
" transform="scale(0.015625)"/>
       </defs>
       <use xlink:href="#DejaVuSans-32"/>
       <use xlink:href="#DejaVuSans-30" x="63.623047"/>
       <use xlink:href="#DejaVuSans-32" x="127.246094"/>
       <use xlink:href="#DejaVuSans-34" x="190.869141"/>
       <use xlink:href="#DejaVuSans-2d" x="254.492188"/>
       <use xlink:href="#DejaVuSans-30" x="290.576172"/>
       <use xlink:href="#DejaVuSans-31" x="354.199219"/>
      </g>
     </g>
    </g>
    <g id="xtick_9">
     <g id="line2d_17">
      <path d="M 700.509356 320.4 
L 700.509356 43.2 
" clip-path="url(#pbf3e8d8319)" style="fill: none; stroke-dasharray: 5.12,1.28,0.8,1.28; stroke-dashoffset: 0; stroke: #b0b0b0; stroke-width: 0.8"/>
     </g>
     <g id="line2d_18">
      <g>
       <use xlink:href="#mfe5bdc58ae" x="700.509356" y="320.4" style="fill: #a9a9a9; stroke: #a9a9a9; stroke-width: 0.8"/>
      </g>
     </g>
     <g id="text_9">
      <!-- 2024-05 -->
      <g style="fill: #a9a9a9" transform="translate(679.61795 334.998438) scale(0.1 -0.1)">
       <use xlink:href="#DejaVuSans-32"/>
       <use xlink:href="#DejaVuSans-30" x="63.623047"/>
       <use xlink:href="#DejaVuSans-32" x="127.246094"/>
       <use xlink:href="#DejaVuSans-34" x="190.869141"/>
       <use xlink:href="#DejaVuSans-2d" x="254.492188"/>
       <use xlink:href="#DejaVuSans-30" x="290.576172"/>
       <use xlink:href="#DejaVuSans-35" x="354.199219"/>
      </g>
     </g>
    </g>
    <g id="xtick_10">
     <g id="line2d_19">
      <path d="M 768.824552 320.4 
L 768.824552 43.2 
" clip-path="url(#pbf3e8d8319)" style="fill: none; stroke-dasharray: 5.12,1.28,0.8,1.28; stroke-dashoffset: 0; stroke: #b0b0b0; stroke-width: 0.8"/>
     </g>
     <g id="line2d_20">
      <g>
       <use xlink:href="#mfe5bdc58ae" x="768.824552" y="320.4" style="fill: #a9a9a9; stroke: #a9a9a9; stroke-width: 0.8"/>
      </g>
     </g>
     <g id="text_10">
      <!-- 2024-09 -->
      <g style="fill: #a9a9a9" transform="translate(747.933146 334.998438) scale(0.1 -0.1)">
       <use xlink:href="#DejaVuSans-32"/>
       <use xlink:href="#DejaVuSans-30" x="63.623047"/>
       <use xlink:href="#DejaVuSans-32" x="127.246094"/>
       <use xlink:href="#DejaVuSans-34" x="190.869141"/>
       <use xlink:href="#DejaVuSans-2d" x="254.492188"/>
       <use xlink:href="#DejaVuSans-30" x="290.576172"/>
       <use xlink:href="#DejaVuSans-39" x="354.199219"/>
      </g>
     </g>
    </g>
   </g>
   <g id="matplotlib.axis_2">
    <g id="ytick_1">
     <g id="line2d_21">
      <path d="M 108 307.839289 
L 777.6 307.839289 
" clip-path="url(#pbf3e8d8319)" style="fill: none; stroke-dasharray: 5.12,1.28,0.8,1.28; stroke-dashoffset: 0; stroke: #b0b0b0; stroke-width: 0.8"/>
     </g>
     <g id="line2d_22">
      <defs>
       <path id="m49f37cc746" d="M 0 0 
L -3.5 0 
" style="stroke: #a9a9a9; stroke-width: 0.8"/>
      </defs>
      <g>
       <use xlink:href="#m49f37cc746" x="108" y="307.839289" style="fill: #a9a9a9; stroke: #a9a9a9; stroke-width: 0.8"/>
      </g>
     </g>
     <g id="text_11">
      <!-- 0 -->
      <g style="fill: #a9a9a9" transform="translate(94.6375 311.638508) scale(0.1 -0.1)">
       <use xlink:href="#DejaVuSans-30"/>
      </g>
     </g>
    </g>
    <g id="ytick_2">
     <g id="line2d_23">
      <path d="M 108 276.408045 
L 777.6 276.408045 
" clip-path="url(#pbf3e8d8319)" style="fill: none; stroke-dasharray: 5.12,1.28,0.8,1.28; stroke-dashoffset: 0; stroke: #b0b0b0; stroke-width: 0.8"/>
     </g>
     <g id="line2d_24">
      <g>
       <use xlink:href="#m49f37cc746" x="108" y="276.408045" style="fill: #a9a9a9; stroke: #a9a9a9; stroke-width: 0.8"/>
      </g>
     </g>
     <g id="text_12">
      <!-- 800 -->
      <g style="fill: #a9a9a9" transform="translate(81.9125 280.207264) scale(0.1 -0.1)">
       <defs>
        <path id="DejaVuSans-38" d="M 2034 2216 
Q 1584 2216 1326 1975 
Q 1069 1734 1069 1313 
Q 1069 891 1326 650 
Q 1584 409 2034 409 
Q 2484 409 2743 651 
Q 3003 894 3003 1313 
Q 3003 1734 2745 1975 
Q 2488 2216 2034 2216 
z
M 1403 2484 
Q 997 2584 770 2862 
Q 544 3141 544 3541 
Q 544 4100 942 4425 
Q 1341 4750 2034 4750 
Q 2731 4750 3128 4425 
Q 3525 4100 3525 3541 
Q 3525 3141 3298 2862 
Q 3072 2584 2669 2484 
Q 3125 2378 3379 2068 
Q 3634 1759 3634 1313 
Q 3634 634 3220 271 
Q 2806 -91 2034 -91 
Q 1263 -91 848 271 
Q 434 634 434 1313 
Q 434 1759 690 2068 
Q 947 2378 1403 2484 
z
M 1172 3481 
Q 1172 3119 1398 2916 
Q 1625 2713 2034 2713 
Q 2441 2713 2670 2916 
Q 2900 3119 2900 3481 
Q 2900 3844 2670 4047 
Q 2441 4250 2034 4250 
Q 1625 4250 1398 4047 
Q 1172 3844 1172 3481 
z
" transform="scale(0.015625)"/>
       </defs>
       <use xlink:href="#DejaVuSans-38"/>
       <use xlink:href="#DejaVuSans-30" x="63.623047"/>
       <use xlink:href="#DejaVuSans-30" x="127.246094"/>
      </g>
     </g>
    </g>
    <g id="ytick_3">
     <g id="line2d_25">
      <path d="M 108 244.976801 
L 777.6 244.976801 
" clip-path="url(#pbf3e8d8319)" style="fill: none; stroke-dasharray: 5.12,1.28,0.8,1.28; stroke-dashoffset: 0; stroke: #b0b0b0; stroke-width: 0.8"/>
     </g>
     <g id="line2d_26">
      <g>
       <use xlink:href="#m49f37cc746" x="108" y="244.976801" style="fill: #a9a9a9; stroke: #a9a9a9; stroke-width: 0.8"/>
      </g>
     </g>
     <g id="text_13">
      <!-- 1600 -->
      <g style="fill: #a9a9a9" transform="translate(75.55 248.776019) scale(0.1 -0.1)">
       <defs>
        <path id="DejaVuSans-36" d="M 2113 2584 
Q 1688 2584 1439 2293 
Q 1191 2003 1191 1497 
Q 1191 994 1439 701 
Q 1688 409 2113 409 
Q 2538 409 2786 701 
Q 3034 994 3034 1497 
Q 3034 2003 2786 2293 
Q 2538 2584 2113 2584 
z
M 3366 4563 
L 3366 3988 
Q 3128 4100 2886 4159 
Q 2644 4219 2406 4219 
Q 1781 4219 1451 3797 
Q 1122 3375 1075 2522 
Q 1259 2794 1537 2939 
Q 1816 3084 2150 3084 
Q 2853 3084 3261 2657 
Q 3669 2231 3669 1497 
Q 3669 778 3244 343 
Q 2819 -91 2113 -91 
Q 1303 -91 875 529 
Q 447 1150 447 2328 
Q 447 3434 972 4092 
Q 1497 4750 2381 4750 
Q 2619 4750 2861 4703 
Q 3103 4656 3366 4563 
z
" transform="scale(0.015625)"/>
       </defs>
       <use xlink:href="#DejaVuSans-31"/>
       <use xlink:href="#DejaVuSans-36" x="63.623047"/>
       <use xlink:href="#DejaVuSans-30" x="127.246094"/>
       <use xlink:href="#DejaVuSans-30" x="190.869141"/>
      </g>
     </g>
    </g>
    <g id="ytick_4">
     <g id="line2d_27">
      <path d="M 108 213.545557 
L 777.6 213.545557 
" clip-path="url(#pbf3e8d8319)" style="fill: none; stroke-dasharray: 5.12,1.28,0.8,1.28; stroke-dashoffset: 0; stroke: #b0b0b0; stroke-width: 0.8"/>
     </g>
     <g id="line2d_28">
      <g>
       <use xlink:href="#m49f37cc746" x="108" y="213.545557" style="fill: #a9a9a9; stroke: #a9a9a9; stroke-width: 0.8"/>
      </g>
     </g>
     <g id="text_14">
      <!-- 2400 -->
      <g style="fill: #a9a9a9" transform="translate(75.55 217.344775) scale(0.1 -0.1)">
       <use xlink:href="#DejaVuSans-32"/>
       <use xlink:href="#DejaVuSans-34" x="63.623047"/>
       <use xlink:href="#DejaVuSans-30" x="127.246094"/>
       <use xlink:href="#DejaVuSans-30" x="190.869141"/>
      </g>
     </g>
    </g>
    <g id="ytick_5">
     <g id="line2d_29">
      <path d="M 108 182.114312 
L 777.6 182.114312 
" clip-path="url(#pbf3e8d8319)" style="fill: none; stroke-dasharray: 5.12,1.28,0.8,1.28; stroke-dashoffset: 0; stroke: #b0b0b0; stroke-width: 0.8"/>
     </g>
     <g id="line2d_30">
      <g>
       <use xlink:href="#m49f37cc746" x="108" y="182.114312" style="fill: #a9a9a9; stroke: #a9a9a9; stroke-width: 0.8"/>
      </g>
     </g>
     <g id="text_15">
      <!-- 3200 -->
      <g style="fill: #a9a9a9" transform="translate(75.55 185.913531) scale(0.1 -0.1)">
       <use xlink:href="#DejaVuSans-33"/>
       <use xlink:href="#DejaVuSans-32" x="63.623047"/>
       <use xlink:href="#DejaVuSans-30" x="127.246094"/>
       <use xlink:href="#DejaVuSans-30" x="190.869141"/>
      </g>
     </g>
    </g>
    <g id="ytick_6">
     <g id="line2d_31">
      <path d="M 108 150.683068 
L 777.6 150.683068 
" clip-path="url(#pbf3e8d8319)" style="fill: none; stroke-dasharray: 5.12,1.28,0.8,1.28; stroke-dashoffset: 0; stroke: #b0b0b0; stroke-width: 0.8"/>
     </g>
     <g id="line2d_32">
      <g>
       <use xlink:href="#m49f37cc746" x="108" y="150.683068" style="fill: #a9a9a9; stroke: #a9a9a9; stroke-width: 0.8"/>
      </g>
     </g>
     <g id="text_16">
      <!-- 4000 -->
      <g style="fill: #a9a9a9" transform="translate(75.55 154.482287) scale(0.1 -0.1)">
       <use xlink:href="#DejaVuSans-34"/>
       <use xlink:href="#DejaVuSans-30" x="63.623047"/>
       <use xlink:href="#DejaVuSans-30" x="127.246094"/>
       <use xlink:href="#DejaVuSans-30" x="190.869141"/>
      </g>
     </g>
    </g>
    <g id="ytick_7">
     <g id="line2d_33">
      <path d="M 108 119.251824 
L 777.6 119.251824 
" clip-path="url(#pbf3e8d8319)" style="fill: none; stroke-dasharray: 5.12,1.28,0.8,1.28; stroke-dashoffset: 0; stroke: #b0b0b0; stroke-width: 0.8"/>
     </g>
     <g id="line2d_34">
      <g>
       <use xlink:href="#m49f37cc746" x="108" y="119.251824" style="fill: #a9a9a9; stroke: #a9a9a9; stroke-width: 0.8"/>
      </g>
     </g>
     <g id="text_17">
      <!-- 4800 -->
      <g style="fill: #a9a9a9" transform="translate(75.55 123.051043) scale(0.1 -0.1)">
       <use xlink:href="#DejaVuSans-34"/>
       <use xlink:href="#DejaVuSans-38" x="63.623047"/>
       <use xlink:href="#DejaVuSans-30" x="127.246094"/>
       <use xlink:href="#DejaVuSans-30" x="190.869141"/>
      </g>
     </g>
    </g>
    <g id="ytick_8">
     <g id="line2d_35">
      <path d="M 108 87.82058 
L 777.6 87.82058 
" clip-path="url(#pbf3e8d8319)" style="fill: none; stroke-dasharray: 5.12,1.28,0.8,1.28; stroke-dashoffset: 0; stroke: #b0b0b0; stroke-width: 0.8"/>
     </g>
     <g id="line2d_36">
      <g>
       <use xlink:href="#m49f37cc746" x="108" y="87.82058" style="fill: #a9a9a9; stroke: #a9a9a9; stroke-width: 0.8"/>
      </g>
     </g>
     <g id="text_18">
      <!-- 5600 -->
      <g style="fill: #a9a9a9" transform="translate(75.55 91.619799) scale(0.1 -0.1)">
       <use xlink:href="#DejaVuSans-35"/>
       <use xlink:href="#DejaVuSans-36" x="63.623047"/>
       <use xlink:href="#DejaVuSans-30" x="127.246094"/>
       <use xlink:href="#DejaVuSans-30" x="190.869141"/>
      </g>
     </g>
    </g>
    <g id="ytick_9">
     <g id="line2d_37">
      <path d="M 108 56.389336 
L 777.6 56.389336 
" clip-path="url(#pbf3e8d8319)" style="fill: none; stroke-dasharray: 5.12,1.28,0.8,1.28; stroke-dashoffset: 0; stroke: #b0b0b0; stroke-width: 0.8"/>
     </g>
     <g id="line2d_38">
      <g>
       <use xlink:href="#m49f37cc746" x="108" y="56.389336" style="fill: #a9a9a9; stroke: #a9a9a9; stroke-width: 0.8"/>
      </g>
     </g>
     <g id="text_19">
      <!-- 6400 -->
      <g style="fill: #a9a9a9" transform="translate(75.55 60.188555) scale(0.1 -0.1)">
       <use xlink:href="#DejaVuSans-36"/>
       <use xlink:href="#DejaVuSans-34" x="63.623047"/>
       <use xlink:href="#DejaVuSans-30" x="127.246094"/>
       <use xlink:href="#DejaVuSans-30" x="190.869141"/>
      </g>
     </g>
    </g>
   </g>
   <g id="line2d_39">
    <path d="M 138.436364 307.721422 
L 141.768812 307.446399 
L 142.32422 307.210664 
L 143.990445 307.053508 
L 147.322893 306.385594 
L 150.655342 306.110571 
L 151.766158 305.678391 
L 152.321566 304.971188 
L 152.876974 304.578297 
L 153.432382 303.360337 
L 153.98779 303.281759 
L 154.543198 302.849579 
L 155.654015 302.299532 
L 157.875647 300.570814 
L 160.097279 299.510009 
L 161.763504 298.763517 
L 162.318912 297.899158 
L 163.429728 297.113377 
L 163.985136 296.877643 
L 169.539217 296.091862 
L 170.094625 295.816838 
L 173.982482 295.502526 
L 175.648706 295.070346 
L 180.647379 294.402432 
L 181.202787 294.08812 
L 181.758195 294.009542 
L 182.869011 293.65594 
L 186.756868 293.027315 
L 187.867684 292.713003 
L 189.533908 292.555847 
L 190.644725 292.437979 
L 191.200133 292.280823 
L 191.755541 292.241534 
L 193.421765 291.730776 
L 194.532581 291.652198 
L 195.643397 291.495042 
L 196.754214 291.259308 
L 197.309622 291.102152 
L 197.86503 290.355659 
L 199.531254 289.727035 
L 201.197478 289.294855 
L 201.752887 289.019832 
L 202.308295 288.980543 
L 205.085335 288.194761 
L 206.196151 288.116183 
L 206.751559 288.037605 
L 208.417784 287.526848 
L 210.639416 286.976801 
L 211.194824 286.741066 
L 211.750232 286.662488 
L 212.30564 286.387465 
L 217.859721 285.562395 
L 220.636762 284.776614 
L 221.19217 284.423012 
L 223.413802 283.833676 
L 225.635435 282.694294 
L 227.301659 282.301403 
L 227.857067 282.222825 
L 228.412475 281.947802 
L 229.523291 281.751356 
L 230.634107 281.240599 
L 233.411148 280.533396 
L 235.077372 280.101216 
L 236.743597 279.51188 
L 237.299005 279.433302 
L 238.409821 279.001123 
L 239.520637 278.922544 
L 240.631453 278.529654 
L 243.408494 278.097474 
L 243.963902 277.901029 
L 245.074718 277.86174 
L 247.29635 277.586717 
L 248.407167 277.03667 
L 255.072064 274.089991 
L 255.627472 273.500655 
L 256.738288 271.850514 
L 257.293696 271.693358 
L 257.849104 271.693358 
L 258.95992 270.868288 
L 259.515328 270.711132 
L 260.070737 270.436109 
L 260.626145 270.318241 
L 261.181553 269.807484 
L 261.736961 269.650327 
L 263.403185 268.864546 
L 264.514001 267.292984 
L 265.069409 266.939383 
L 265.624818 265.996445 
L 266.180226 265.407109 
L 269.512674 263.678391 
L 270.62349 262.814032 
L 271.178898 262.46043 
L 271.734307 261.63536 
L 272.289715 260.417399 
L 272.845123 259.592329 
L 273.400531 259.16015 
L 273.955939 258.924415 
L 276.177571 256.959963 
L 277.288388 256.056314 
L 277.843796 255.584846 
L 278.399204 254.838354 
L 279.51002 253.856127 
L 281.731652 252.402432 
L 282.28706 251.930964 
L 282.842468 251.813096 
L 283.953285 251.223761 
L 286.174917 250.084378 
L 287.285733 249.023573 
L 287.841141 248.355659 
L 288.951958 247.569878 
L 289.507366 247.412722 
L 290.062774 247.137699 
L 291.17359 246.391207 
L 291.728998 246.076894 
L 292.284406 245.998316 
L 296.172263 243.601684 
L 298.393895 242.423012 
L 298.949303 241.912254 
L 301.170936 241.205051 
L 301.726344 240.812161 
L 302.281752 240.694294 
L 304.503384 239.869224 
L 307.280425 238.965575 
L 307.835833 238.847708 
L 308.946649 237.865482 
L 310.612873 237.079701 
L 311.723689 236.411787 
L 312.834506 236.097474 
L 313.389914 235.743873 
L 313.945322 235.586717 
L 315.611546 234.525912 
L 318.388587 233.857998 
L 320.054811 232.875772 
L 320.610219 232.797194 
L 321.165627 232.600748 
L 322.276443 232.365014 
L 323.942668 231.107764 
L 325.608892 230.714874 
L 326.1643 230.518428 
L 326.719708 230.086249 
L 330.052157 228.986155 
L 330.607565 228.946866 
L 331.162973 228.78971 
L 332.273789 228.318241 
L 336.161646 226.943124 
L 337.272462 226.785968 
L 337.82787 226.628812 
L 338.383278 226.353789 
L 338.938686 226.235921 
L 341.715727 224.939383 
L 343.937359 223.760711 
L 348.380624 221.992703 
L 348.936032 221.914125 
L 350.046848 221.246211 
L 350.602256 221.167633 
L 352.823889 220.263985 
L 355.045521 219.910384 
L 356.156337 219.360337 
L 356.711745 218.888868 
L 357.267153 217.906642 
L 358.933378 217.592329 
L 361.15501 216.413658 
L 361.710418 216.29579 
L 366.153683 214.213471 
L 367.819907 213.859869 
L 368.930723 213.309822 
L 369.486131 213.074088 
L 370.041539 212.99551 
L 372.263172 212.013283 
L 373.929396 210.991768 
L 374.484804 210.91319 
L 375.040212 210.716745 
L 375.59562 210.677456 
L 377.817253 210.048831 
L 378.372661 210.009542 
L 378.928069 209.577362 
L 380.038885 209.184471 
L 381.705109 208.634425 
L 382.260518 208.280823 
L 382.815926 208.123667 
L 383.371334 207.730776 
L 383.926742 207.534331 
L 385.037558 206.944995 
L 387.25919 206.277081 
L 387.814599 206.002058 
L 389.480823 204.705519 
L 390.036231 204.587652 
L 391.147047 203.723293 
L 391.702455 203.644715 
L 392.257863 202.780355 
L 392.813271 202.544621 
L 393.368679 202.112442 
L 393.924088 202.033863 
L 395.034904 201.365949 
L 395.590312 201.248082 
L 396.14572 201.012348 
L 396.701128 200.580168 
L 397.256536 200.383723 
L 398.92276 199.244341 
L 401.144393 198.104958 
L 401.699801 198.02638 
L 403.366025 197.20131 
L 403.921433 196.258372 
L 404.476841 195.786904 
L 405.03225 195.472591 
L 405.587658 195.354724 
L 406.698474 194.647521 
L 407.253882 194.529654 
L 408.364698 193.979607 
L 410.030922 193.272404 
L 411.141739 192.486623 
L 412.252555 191.307951 
L 413.363371 190.640037 
L 413.918779 190.286436 
L 414.474187 189.6971 
L 416.69582 188.164827 
L 417.251228 187.536202 
L 417.806636 187.104022 
L 418.917452 186.711132 
L 420.028268 185.96464 
L 421.694492 185.13957 
L 422.2499 185.060992 
L 423.916125 184.157343 
L 425.026941 183.489429 
L 430.581022 181.524977 
L 431.13643 181.092797 
L 433.358062 180.267727 
L 433.91347 180.110571 
L 434.468879 179.678391 
L 437.245919 178.185407 
L 438.356735 175.98522 
L 439.467551 174.72797 
L 440.578368 174.060056 
L 442.244592 173.392142 
L 442.8 173.313564 
L 443.355408 172.999252 
L 446.132449 172.134892 
L 446.687857 171.899158 
L 447.798673 171.152666 
L 448.909489 170.759775 
L 452.241938 168.795323 
L 452.797346 168.205987 
L 453.908162 167.616651 
L 456.685202 166.162956 
L 460.017651 164.552105 
L 460.573059 164.434238 
L 462.239283 163.844902 
L 462.794691 163.687746 
L 465.016324 162.705519 
L 466.12714 162.27334 
L 466.682548 161.84116 
L 467.793364 161.487558 
L 471.125813 159.798129 
L 472.236629 158.93377 
L 473.347445 158.540879 
L 473.902853 158.069411 
L 474.458261 157.990833 
L 475.569078 157.165762 
L 476.679894 156.615716 
L 477.235302 156.379981 
L 477.79071 155.829935 
L 481.123159 154.611974 
L 482.789383 153.865482 
L 484.455607 153.354724 
L 485.566423 153.197568 
L 486.121831 152.961833 
L 486.67724 152.883255 
L 487.788056 152.411787 
L 488.343464 152.372498 
L 490.565096 151.547428 
L 492.231321 150.408045 
L 495.008361 149.111506 
L 497.785401 147.618522 
L 498.34081 147.500655 
L 500.007034 146.557717 
L 501.673258 146.007671 
L 502.784074 145.654069 
L 505.005707 144.946866 
L 506.116523 144.593265 
L 507.782747 144.318241 
L 510.00438 143.611038 
L 510.559788 143.375304 
L 511.115196 143.296726 
L 511.670604 143.021703 
L 512.78142 142.785968 
L 514.447644 142.196632 
L 515.558461 142.078765 
L 516.669277 141.803742 
L 518.335501 141.528718 
L 518.890909 141.371562 
L 520.001725 141.253695 
L 522.778766 140.546492 
L 523.889582 140.271469 
L 524.44499 139.957156 
L 527.222031 139.249953 
L 527.777439 139.132086 
L 529.999071 138.307016 
L 532.776111 137.481946 
L 533.33152 137.481946 
L 534.442336 137.089055 
L 534.997744 136.539008 
L 536.10856 136.106829 
L 537.774784 135.438915 
L 538.885601 135.046024 
L 539.441009 134.928157 
L 539.996417 134.574556 
L 540.551825 134.456688 
L 541.107233 134.142376 
L 542.218049 133.945931 
L 543.328865 133.513751 
L 543.884273 133.395884 
L 544.439681 133.042283 
L 544.99509 132.924415 
L 545.550498 132.452947 
L 547.216722 132.138634 
L 548.327538 131.588587 
L 548.882946 130.959963 
L 549.993762 130.724228 
L 554.992435 129.663424 
L 555.547843 129.663424 
L 556.103251 129.427689 
L 558.324884 129.034799 
L 558.880292 128.799065 
L 560.546516 128.56333 
L 562.768149 127.856127 
L 564.434373 127.463237 
L 566.100597 127.031057 
L 567.766821 126.520299 
L 570.543862 125.695229 
L 571.09927 125.380917 
L 572.765494 124.83087 
L 573.320902 124.437979 
L 574.431719 124.123667 
L 575.542535 123.770065 
L 576.653351 123.298597 
L 578.319575 122.552105 
L 579.9858 122.434238 
L 582.207432 121.805613 
L 582.76284 121.452011 
L 583.873656 121.137699 
L 586.650697 119.880449 
L 587.206105 119.84116 
L 593.315594 117.75884 
L 595.537226 117.208793 
L 596.092634 117.051637 
L 597.203451 116.540879 
L 597.758859 116.462301 
L 598.869675 116.147989 
L 599.425083 115.715809 
L 599.980491 115.440786 
L 600.535899 114.772872 
L 601.091307 114.379981 
L 602.202123 114.065669 
L 602.757532 113.633489 
L 607.200796 111.826193 
L 607.756204 111.669036 
L 608.311612 111.315435 
L 610.533245 110.647521 
L 611.644061 110.097474 
L 612.754877 109.42956 
L 613.310285 109.311693 
L 614.421102 108.643779 
L 614.97651 108.408045 
L 616.087326 107.740131 
L 617.75355 106.95435 
L 618.308958 106.561459 
L 619.419774 106.207858 
L 620.530591 105.539944 
L 621.085999 105.343499 
L 621.641407 104.950608 
L 622.752223 104.557717 
L 623.307631 104.43985 
L 625.529263 103.457624 
L 628.306304 102.475398 
L 629.41712 102.318241 
L 629.972528 101.96464 
L 630.527936 101.886062 
L 631.083344 101.689616 
L 632.749569 101.375304 
L 636.637425 99.489429 
L 637.192833 99.410851 
L 638.859058 98.507203 
L 641.636098 97.446399 
L 645.523955 95.796258 
L 646.634771 95.639102 
L 647.190179 95.2855 
L 647.745587 95.246211 
L 648.856403 94.89261 
L 649.96722 94.342563 
L 650.522628 94.263985 
L 653.299668 93.163891 
L 653.855076 93.046024 
L 654.965893 92.692423 
L 655.521301 92.495978 
L 656.632117 92.299532 
L 658.298341 91.788775 
L 663.297014 89.392142 
L 663.852422 89.274275 
L 664.40783 88.959963 
L 664.963238 88.842095 
L 666.629463 87.977736 
L 667.184871 87.82058 
L 669.406503 86.799065 
L 671.072727 86.366885 
L 674.405176 85.070346 
L 676.0714 84.520299 
L 684.95793 80.866417 
L 687.179562 80.002058 
L 688.845786 79.09841 
L 689.401194 78.980543 
L 690.512011 78.548363 
L 691.067419 78.548363 
L 692.178235 78.076894 
L 692.733643 77.644715 
L 693.844459 76.58391 
L 695.510683 75.798129 
L 696.066092 75.680262 
L 696.6215 75.405239 
L 697.176908 75.32666 
L 697.732316 74.93377 
L 698.287724 74.815903 
L 699.39854 74.147989 
L 701.064764 73.322919 
L 701.620173 73.165762 
L 702.730989 72.615716 
L 704.397213 72.222825 
L 704.952621 72.02638 
L 705.508029 71.947802 
L 706.063437 71.672778 
L 706.618845 71.554911 
L 711.617518 69.51188 
L 712.172926 69.354724 
L 716.060783 67.547428 
L 716.616191 67.350982 
L 717.171599 67.272404 
L 719.393232 66.2116 
L 722.170272 64.915061 
L 723.281088 64.52217 
L 723.836496 64.050702 
L 724.391904 63.736389 
L 726.058129 63.225631 
L 727.168945 62.479139 
L 727.724353 62.43985 
L 728.835169 62.125538 
L 729.390577 62.007671 
L 731.61221 61.182601 
L 733.278434 60.671843 
L 733.833842 60.593265 
L 734.944658 60.003929 
L 735.500066 59.807484 
L 736.055474 59.375304 
L 737.721699 58.943124 
L 738.277107 58.589523 
L 739.387923 58.3145 
L 741.054147 57.410851 
L 741.609555 57.371562 
L 743.27578 56.821515 
L 744.386596 56.703648 
L 744.942004 56.389336 
L 746.05282 56.075023 
L 746.608228 55.8 
L 747.163636 55.8 
L 747.163636 55.8 
" clip-path="url(#pbf3e8d8319)" style="fill: none; stroke: #1f77b4; stroke-width: 1.5; stroke-linecap: square"/>
   </g>
   <g id="line2d_40">
    <path d="M 138.991772 307.8 
L 140.657996 307.721422 
L 142.32422 307.682133 
L 145.656669 307.603555 
L 148.433709 307.485688 
L 150.655342 307.485688 
L 151.21075 307.328531 
L 153.432382 307.249953 
L 155.098607 307.053508 
L 156.764831 306.896352 
L 160.097279 306.739196 
L 160.652687 306.739196 
L 161.208096 306.621328 
L 163.429728 306.54275 
L 164.540544 306.464172 
L 168.983809 306.385594 
L 171.760849 306.267727 
L 178.425747 306.189149 
L 181.202787 306.071282 
L 184.535236 305.992703 
L 186.756868 305.914125 
L 191.755541 305.835547 
L 193.421765 305.796258 
L 195.087989 305.756969 
L 196.754214 305.560524 
L 200.086662 305.521235 
L 201.197478 305.442657 
L 205.085335 305.364079 
L 211.194824 305.010477 
L 215.082681 304.931899 
L 216.193497 304.853321 
L 217.859721 304.774743 
L 221.19217 304.617587 
L 223.413802 304.578297 
L 225.080027 304.421141 
L 232.300332 303.988962 
L 235.077372 303.910384 
L 240.076045 303.63536 
L 241.742269 303.556782 
L 247.29635 303.24247 
L 253.405839 303.163891 
L 255.627472 302.928157 
L 256.738288 302.849579 
L 263.958593 302.260243 
L 267.291042 301.828064 
L 269.512674 301.749486 
L 273.955939 301.16015 
L 277.288388 301.081572 
L 278.954612 300.924415 
L 280.065428 300.885126 
L 281.176244 300.767259 
L 282.842468 300.688681 
L 283.953285 300.531525 
L 286.730325 300.217212 
L 288.951958 300.138634 
L 290.062774 300.060056 
L 292.284406 299.981478 
L 293.395222 299.9029 
L 296.172263 299.627877 
L 296.727671 299.47072 
L 300.060119 299.313564 
L 302.83716 299.234986 
L 310.057465 298.802806 
L 311.723689 298.724228 
L 318.943995 298.292049 
L 322.831851 298.213471 
L 323.387259 298.095603 
L 327.830524 298.017025 
L 331.718381 297.82058 
L 337.82787 297.742002 
L 341.715727 297.545557 
L 346.158991 297.466978 
L 350.602256 297.231244 
L 354.490113 297.152666 
L 365.042867 296.484752 
L 370.596948 296.406174 
L 372.81858 296.17044 
L 374.484804 296.131151 
L 376.151029 296.091862 
L 378.372661 295.856127 
L 383.926742 295.541815 
L 387.25919 295.463237 
L 388.925415 295.423948 
L 390.591639 295.384659 
L 392.257863 295.227502 
L 396.701128 295.148924 
L 397.811944 294.991768 
L 398.92276 294.91319 
L 401.699801 294.795323 
L 402.810617 294.716745 
L 403.921433 294.638167 
L 408.920106 294.559588 
L 410.030922 294.441721 
L 412.252555 294.402432 
L 412.807963 294.284565 
L 413.918779 294.205987 
L 414.474187 294.08812 
L 416.140411 294.009542 
L 421.139084 293.734518 
L 422.2499 293.695229 
L 423.916125 293.538073 
L 425.582349 293.498784 
L 427.248573 293.420206 
L 430.025614 293.302339 
L 437.801327 293.223761 
L 441.689184 293.027315 
L 446.132449 292.948737 
L 448.354081 292.870159 
L 450.575713 292.83087 
L 451.68653 292.713003 
L 453.908162 292.634425 
L 459.462243 292.320112 
L 462.794691 292.280823 
L 464.460916 292.123667 
L 466.12714 292.084378 
L 470.014997 292.0058 
L 472.236629 291.927222 
L 478.901526 291.848644 
L 481.678567 291.730776 
L 485.011015 291.652198 
L 486.67724 291.455753 
L 490.009688 291.416464 
L 491.675912 291.259308 
L 493.897545 291.18073 
L 500.562442 291.102152 
L 503.339482 290.984284 
L 512.78142 290.944995 
L 513.892236 290.866417 
L 515.558461 290.827128 
L 522.778766 290.74855 
L 523.889582 290.669972 
L 529.999071 290.591394 
L 532.220703 290.512816 
L 538.885601 290.473527 
L 539.996417 290.394949 
L 548.327538 290.355659 
L 549.993762 290.198503 
L 563.878965 290.119925 
L 565.545189 290.080636 
L 580.541208 290.002058 
L 582.76284 289.92348 
L 592.204778 289.844902 
L 593.315594 289.766324 
L 596.092634 289.687746 
L 597.758859 289.530589 
L 600.535899 289.452011 
L 602.757532 289.373433 
L 606.08998 289.294855 
L 607.756204 289.255566 
L 609.977837 289.176988 
L 611.644061 289.137699 
L 614.421102 289.059121 
L 615.531918 288.980543 
L 618.864366 288.901964 
L 621.641407 288.784097 
L 622.752223 288.744808 
L 623.863039 288.66623 
L 625.529263 288.626941 
L 627.750896 288.548363 
L 629.972528 288.469785 
L 637.192833 288.391207 
L 639.414466 288.312629 
L 643.857731 288.234051 
L 647.745587 288.037605 
L 652.74426 287.959027 
L 653.855076 287.880449 
L 663.852422 287.801871 
L 665.518646 287.762582 
L 668.295687 287.723293 
L 670.517319 287.487558 
L 672.183543 287.448269 
L 675.515992 287.369691 
L 681.070073 287.055379 
L 683.847113 286.976801 
L 686.068746 286.898223 
L 692.178235 286.819645 
L 694.955275 286.505332 
L 697.176908 286.426754 
L 701.064764 286.348176 
L 701.620173 286.230309 
L 706.618845 286.151731 
L 709.395886 286.033863 
L 716.616191 285.994574 
L 717.171599 285.876707 
L 721.614864 285.798129 
L 723.281088 285.75884 
L 726.058129 285.680262 
L 727.724353 285.640973 
L 737.166291 285.562395 
L 739.943331 285.444528 
L 747.163636 285.365949 
L 747.163636 285.365949 
" clip-path="url(#pbf3e8d8319)" style="fill: none; stroke: #ff7f0e; stroke-width: 1.5; stroke-linecap: square"/>
   </g>
   <g id="patch_3">
    <path d="M 108 320.4 
L 108 43.2 
" style="fill: none; stroke: #a9a9a9; stroke-width: 0.8; stroke-linejoin: miter; stroke-linecap: square"/>
   </g>
   <g id="patch_4">
    <path d="M 777.6 320.4 
L 777.6 43.2 
" style="fill: none"/>
   </g>
   <g id="patch_5">
    <path d="M 108 320.4 
L 777.6 320.4 
" style="fill: none; stroke: #a9a9a9; stroke-width: 0.8; stroke-linejoin: miter; stroke-linecap: square"/>
   </g>
   <g id="patch_6">
    <path d="M 108 43.2 
L 777.6 43.2 
" style="fill: none"/>
   </g>
   <g id="text_20">
    <!-- get_subscribe history -->
    <g style="fill: #a9a9a9" transform="translate(378.6075 37.2) scale(0.12 -0.12)">
     <defs>
      <path id="DejaVuSans-67" d="M 2906 1791 
Q 2906 2416 2648 2759 
Q 2391 3103 1925 3103 
Q 1463 3103 1205 2759 
Q 947 2416 947 1791 
Q 947 1169 1205 825 
Q 1463 481 1925 481 
Q 2391 481 2648 825 
Q 2906 1169 2906 1791 
z
M 3481 434 
Q 3481 -459 3084 -895 
Q 2688 -1331 1869 -1331 
Q 1566 -1331 1297 -1286 
Q 1028 -1241 775 -1147 
L 775 -588 
Q 1028 -725 1275 -790 
Q 1522 -856 1778 -856 
Q 2344 -856 2625 -561 
Q 2906 -266 2906 331 
L 2906 616 
Q 2728 306 2450 153 
Q 2172 0 1784 0 
Q 1141 0 747 490 
Q 353 981 353 1791 
Q 353 2603 747 3093 
Q 1141 3584 1784 3584 
Q 2172 3584 2450 3431 
Q 2728 3278 2906 2969 
L 2906 3500 
L 3481 3500 
L 3481 434 
z
" transform="scale(0.015625)"/>
      <path id="DejaVuSans-65" d="M 3597 1894 
L 3597 1613 
L 953 1613 
Q 991 1019 1311 708 
Q 1631 397 2203 397 
Q 2534 397 2845 478 
Q 3156 559 3463 722 
L 3463 178 
Q 3153 47 2828 -22 
Q 2503 -91 2169 -91 
Q 1331 -91 842 396 
Q 353 884 353 1716 
Q 353 2575 817 3079 
Q 1281 3584 2069 3584 
Q 2775 3584 3186 3129 
Q 3597 2675 3597 1894 
z
M 3022 2063 
Q 3016 2534 2758 2815 
Q 2500 3097 2075 3097 
Q 1594 3097 1305 2825 
Q 1016 2553 972 2059 
L 3022 2063 
z
" transform="scale(0.015625)"/>
      <path id="DejaVuSans-74" d="M 1172 4494 
L 1172 3500 
L 2356 3500 
L 2356 3053 
L 1172 3053 
L 1172 1153 
Q 1172 725 1289 603 
Q 1406 481 1766 481 
L 2356 481 
L 2356 0 
L 1766 0 
Q 1100 0 847 248 
Q 594 497 594 1153 
L 594 3053 
L 172 3053 
L 172 3500 
L 594 3500 
L 594 4494 
L 1172 4494 
z
" transform="scale(0.015625)"/>
      <path id="DejaVuSans-5f" d="M 3263 -1063 
L 3263 -1509 
L -63 -1509 
L -63 -1063 
L 3263 -1063 
z
" transform="scale(0.015625)"/>
      <path id="DejaVuSans-73" d="M 2834 3397 
L 2834 2853 
Q 2591 2978 2328 3040 
Q 2066 3103 1784 3103 
Q 1356 3103 1142 2972 
Q 928 2841 928 2578 
Q 928 2378 1081 2264 
Q 1234 2150 1697 2047 
L 1894 2003 
Q 2506 1872 2764 1633 
Q 3022 1394 3022 966 
Q 3022 478 2636 193 
Q 2250 -91 1575 -91 
Q 1294 -91 989 -36 
Q 684 19 347 128 
L 347 722 
Q 666 556 975 473 
Q 1284 391 1588 391 
Q 1994 391 2212 530 
Q 2431 669 2431 922 
Q 2431 1156 2273 1281 
Q 2116 1406 1581 1522 
L 1381 1569 
Q 847 1681 609 1914 
Q 372 2147 372 2553 
Q 372 3047 722 3315 
Q 1072 3584 1716 3584 
Q 2034 3584 2315 3537 
Q 2597 3491 2834 3397 
z
" transform="scale(0.015625)"/>
      <path id="DejaVuSans-75" d="M 544 1381 
L 544 3500 
L 1119 3500 
L 1119 1403 
Q 1119 906 1312 657 
Q 1506 409 1894 409 
Q 2359 409 2629 706 
Q 2900 1003 2900 1516 
L 2900 3500 
L 3475 3500 
L 3475 0 
L 2900 0 
L 2900 538 
Q 2691 219 2414 64 
Q 2138 -91 1772 -91 
Q 1169 -91 856 284 
Q 544 659 544 1381 
z
M 1991 3584 
L 1991 3584 
z
" transform="scale(0.015625)"/>
      <path id="DejaVuSans-62" d="M 3116 1747 
Q 3116 2381 2855 2742 
Q 2594 3103 2138 3103 
Q 1681 3103 1420 2742 
Q 1159 2381 1159 1747 
Q 1159 1113 1420 752 
Q 1681 391 2138 391 
Q 2594 391 2855 752 
Q 3116 1113 3116 1747 
z
M 1159 2969 
Q 1341 3281 1617 3432 
Q 1894 3584 2278 3584 
Q 2916 3584 3314 3078 
Q 3713 2572 3713 1747 
Q 3713 922 3314 415 
Q 2916 -91 2278 -91 
Q 1894 -91 1617 61 
Q 1341 213 1159 525 
L 1159 0 
L 581 0 
L 581 4863 
L 1159 4863 
L 1159 2969 
z
" transform="scale(0.015625)"/>
      <path id="DejaVuSans-63" d="M 3122 3366 
L 3122 2828 
Q 2878 2963 2633 3030 
Q 2388 3097 2138 3097 
Q 1578 3097 1268 2742 
Q 959 2388 959 1747 
Q 959 1106 1268 751 
Q 1578 397 2138 397 
Q 2388 397 2633 464 
Q 2878 531 3122 666 
L 3122 134 
Q 2881 22 2623 -34 
Q 2366 -91 2075 -91 
Q 1284 -91 818 406 
Q 353 903 353 1747 
Q 353 2603 823 3093 
Q 1294 3584 2113 3584 
Q 2378 3584 2631 3529 
Q 2884 3475 3122 3366 
z
" transform="scale(0.015625)"/>
      <path id="DejaVuSans-72" d="M 2631 2963 
Q 2534 3019 2420 3045 
Q 2306 3072 2169 3072 
Q 1681 3072 1420 2755 
Q 1159 2438 1159 1844 
L 1159 0 
L 581 0 
L 581 3500 
L 1159 3500 
L 1159 2956 
Q 1341 3275 1631 3429 
Q 1922 3584 2338 3584 
Q 2397 3584 2469 3576 
Q 2541 3569 2628 3553 
L 2631 2963 
z
" transform="scale(0.015625)"/>
      <path id="DejaVuSans-69" d="M 603 3500 
L 1178 3500 
L 1178 0 
L 603 0 
L 603 3500 
z
M 603 4863 
L 1178 4863 
L 1178 4134 
L 603 4134 
L 603 4863 
z
" transform="scale(0.015625)"/>
      <path id="DejaVuSans-20" transform="scale(0.015625)"/>
      <path id="DejaVuSans-68" d="M 3513 2113 
L 3513 0 
L 2938 0 
L 2938 2094 
Q 2938 2591 2744 2837 
Q 2550 3084 2163 3084 
Q 1697 3084 1428 2787 
Q 1159 2491 1159 1978 
L 1159 0 
L 581 0 
L 581 4863 
L 1159 4863 
L 1159 2956 
Q 1366 3272 1645 3428 
Q 1925 3584 2291 3584 
Q 2894 3584 3203 3211 
Q 3513 2838 3513 2113 
z
" transform="scale(0.015625)"/>
      <path id="DejaVuSans-6f" d="M 1959 3097 
Q 1497 3097 1228 2736 
Q 959 2375 959 1747 
Q 959 1119 1226 758 
Q 1494 397 1959 397 
Q 2419 397 2687 759 
Q 2956 1122 2956 1747 
Q 2956 2369 2687 2733 
Q 2419 3097 1959 3097 
z
M 1959 3584 
Q 2709 3584 3137 3096 
Q 3566 2609 3566 1747 
Q 3566 888 3137 398 
Q 2709 -91 1959 -91 
Q 1206 -91 779 398 
Q 353 888 353 1747 
Q 353 2609 779 3096 
Q 1206 3584 1959 3584 
z
" transform="scale(0.015625)"/>
      <path id="DejaVuSans-79" d="M 2059 -325 
Q 1816 -950 1584 -1140 
Q 1353 -1331 966 -1331 
L 506 -1331 
L 506 -850 
L 844 -850 
Q 1081 -850 1212 -737 
Q 1344 -625 1503 -206 
L 1606 56 
L 191 3500 
L 800 3500 
L 1894 763 
L 2988 3500 
L 3597 3500 
L 2059 -325 
z
" transform="scale(0.015625)"/>
     </defs>
     <use xlink:href="#DejaVuSans-67"/>
     <use xlink:href="#DejaVuSans-65" x="63.476562"/>
     <use xlink:href="#DejaVuSans-74" x="125"/>
     <use xlink:href="#DejaVuSans-5f" x="164.208984"/>
     <use xlink:href="#DejaVuSans-73" x="214.208984"/>
     <use xlink:href="#DejaVuSans-75" x="266.308594"/>
     <use xlink:href="#DejaVuSans-62" x="329.6875"/>
     <use xlink:href="#DejaVuSans-73" x="393.164062"/>
     <use xlink:href="#DejaVuSans-63" x="445.263672"/>
     <use xlink:href="#DejaVuSans-72" x="500.244141"/>
     <use xlink:href="#DejaVuSans-69" x="541.357422"/>
     <use xlink:href="#DejaVuSans-62" x="569.140625"/>
     <use xlink:href="#DejaVuSans-65" x="632.617188"/>
     <use xlink:href="#DejaVuSans-20" x="694.140625"/>
     <use xlink:href="#DejaVuSans-68" x="725.927734"/>
     <use xlink:href="#DejaVuSans-69" x="789.306641"/>
     <use xlink:href="#DejaVuSans-73" x="817.089844"/>
     <use xlink:href="#DejaVuSans-74" x="869.189453"/>
     <use xlink:href="#DejaVuSans-6f" x="908.398438"/>
     <use xlink:href="#DejaVuSans-72" x="969.580078"/>
     <use xlink:href="#DejaVuSans-79" x="1010.693359"/>
    </g>
   </g>
   <g id="legend_1">
    <g id="line2d_41">
     <path d="M 815.08 328.498438 
L 825.08 328.498438 
L 835.08 328.498438 
" style="fill: none; stroke: #1f77b4; stroke-width: 1.5; stroke-linecap: square"/>
    </g>
    <g id="text_21">
     <!-- star -->
     <g style="fill: #a9a9a9" transform="translate(843.08 331.998438) scale(0.1 -0.1)">
      <defs>
       <path id="DejaVuSans-61" d="M 2194 1759 
Q 1497 1759 1228 1600 
Q 959 1441 959 1056 
Q 959 750 1161 570 
Q 1363 391 1709 391 
Q 2188 391 2477 730 
Q 2766 1069 2766 1631 
L 2766 1759 
L 2194 1759 
z
M 3341 1997 
L 3341 0 
L 2766 0 
L 2766 531 
Q 2569 213 2275 61 
Q 1981 -91 1556 -91 
Q 1019 -91 701 211 
Q 384 513 384 1019 
Q 384 1609 779 1909 
Q 1175 2209 1959 2209 
L 2766 2209 
L 2766 2266 
Q 2766 2663 2505 2880 
Q 2244 3097 1772 3097 
Q 1472 3097 1187 3025 
Q 903 2953 641 2809 
L 641 3341 
Q 956 3463 1253 3523 
Q 1550 3584 1831 3584 
Q 2591 3584 2966 3190 
Q 3341 2797 3341 1997 
z
" transform="scale(0.015625)"/>
      </defs>
      <use xlink:href="#DejaVuSans-73"/>
      <use xlink:href="#DejaVuSans-74" x="52.099609"/>
      <use xlink:href="#DejaVuSans-61" x="91.308594"/>
      <use xlink:href="#DejaVuSans-72" x="152.587891"/>
     </g>
    </g>
    <g id="line2d_42">
     <path d="M 815.08 343.176562 
L 825.08 343.176562 
L 835.08 343.176562 
" style="fill: none; stroke: #ff7f0e; stroke-width: 1.5; stroke-linecap: square"/>
    </g>
    <g id="text_22">
     <!-- fork -->
     <g style="fill: #a9a9a9" transform="translate(843.08 346.676562) scale(0.1 -0.1)">
      <defs>
       <path id="DejaVuSans-66" d="M 2375 4863 
L 2375 4384 
L 1825 4384 
Q 1516 4384 1395 4259 
Q 1275 4134 1275 3809 
L 1275 3500 
L 2222 3500 
L 2222 3053 
L 1275 3053 
L 1275 0 
L 697 0 
L 697 3053 
L 147 3053 
L 147 3500 
L 697 3500 
L 697 3744 
Q 697 4328 969 4595 
Q 1241 4863 1831 4863 
L 2375 4863 
z
" transform="scale(0.015625)"/>
       <path id="DejaVuSans-6b" d="M 581 4863 
L 1159 4863 
L 1159 1991 
L 2875 3500 
L 3609 3500 
L 1753 1863 
L 3688 0 
L 2938 0 
L 1159 1709 
L 1159 0 
L 581 0 
L 581 4863 
z
" transform="scale(0.015625)"/>
      </defs>
      <use xlink:href="#DejaVuSans-66"/>
      <use xlink:href="#DejaVuSans-6f" x="35.205078"/>
      <use xlink:href="#DejaVuSans-72" x="96.386719"/>
      <use xlink:href="#DejaVuSans-6b" x="137.5"/>
     </g>
    </g>
   </g>
  </g>
 </g>
 <defs>
  <clipPath id="pbf3e8d8319">
   <rect x="108" y="43.2" width="669.6" height="277.2"/>
  </clipPath>
 </defs>
</svg>
