<?xml version="1.0" encoding="utf-8" standalone="no"?>
<!DOCTYPE svg PUBLIC "-//W3C//DTD SVG 1.1//EN"
  "http://www.w3.org/Graphics/SVG/1.1/DTD/svg11.dtd">
<svg xmlns:xlink="http://www.w3.org/1999/xlink" width="864pt" height="360pt" viewBox="0 0 864 360" xmlns="http://www.w3.org/2000/svg" version="1.1">
 <metadata>
  <rdf:RDF xmlns:dc="http://purl.org/dc/elements/1.1/" xmlns:cc="http://creativecommons.org/ns#" xmlns:rdf="http://www.w3.org/1999/02/22-rdf-syntax-ns#">
   <cc:Work>
    <dc:type rdf:resource="http://purl.org/dc/dcmitype/StillImage"/>
    <dc:date>2024-07-23T20:05:40.553123</dc:date>
    <dc:format>image/svg+xml</dc:format>
    <dc:creator>
     <cc:Agent>
      <dc:title>Matplotlib v3.9.1, https://matplotlib.org/</dc:title>
     </cc:Agent>
    </dc:creator>
   </cc:Work>
  </rdf:RDF>
 </metadata>
 <defs>
  <style type="text/css">*{stroke-linejoin: round; stroke-linecap: butt}</style>
 </defs>
 <g id="figure_1">
  <g id="patch_1">
   <path d="M 0 360 
L 864 360 
L 864 0 
L 0 0 
L 0 360 
z
" style="fill: none; opacity: 0"/>
  </g>
  <g id="axes_1">
   <g id="patch_2">
    <path d="M 108 320.4 
L 777.6 320.4 
L 777.6 43.2 
L 108 43.2 
L 108 320.4 
z
" style="fill: none; opacity: 0"/>
   </g>
   <g id="matplotlib.axis_1">
    <g id="xtick_1">
     <g id="line2d_1">
      <path d="M 160.117061 320.4 
L 160.117061 43.2 
" clip-path="url(#pb5afe9eb5e)" style="fill: none; stroke-dasharray: 5.12,1.28,0.8,1.28; stroke-dashoffset: 0; stroke: #b0b0b0; stroke-width: 0.8"/>
     </g>
     <g id="line2d_2">
      <defs>
       <path id="m0c8b68a640" d="M 0 0 
L 0 3.5 
" style="stroke: #a9a9a9; stroke-width: 0.8"/>
      </defs>
      <g>
       <use xlink:href="#m0c8b68a640" x="160.117061" y="320.4" style="fill: #a9a9a9; stroke: #a9a9a9; stroke-width: 0.8"/>
      </g>
     </g>
     <g id="text_1">
      <!-- 2021-09 -->
      <g style="fill: #a9a9a9" transform="translate(139.225655 334.998438) scale(0.1 -0.1)">
       <defs>
        <path id="DejaVuSans-32" d="M 1228 531 
L 3431 531 
L 3431 0 
L 469 0 
L 469 531 
Q 828 903 1448 1529 
Q 2069 2156 2228 2338 
Q 2531 2678 2651 2914 
Q 2772 3150 2772 3378 
Q 2772 3750 2511 3984 
Q 2250 4219 1831 4219 
Q 1534 4219 1204 4116 
Q 875 4013 500 3803 
L 500 4441 
Q 881 4594 1212 4672 
Q 1544 4750 1819 4750 
Q 2544 4750 2975 4387 
Q 3406 4025 3406 3419 
Q 3406 3131 3298 2873 
Q 3191 2616 2906 2266 
Q 2828 2175 2409 1742 
Q 1991 1309 1228 531 
z
" transform="scale(0.015625)"/>
        <path id="DejaVuSans-30" d="M 2034 4250 
Q 1547 4250 1301 3770 
Q 1056 3291 1056 2328 
Q 1056 1369 1301 889 
Q 1547 409 2034 409 
Q 2525 409 2770 889 
Q 3016 1369 3016 2328 
Q 3016 3291 2770 3770 
Q 2525 4250 2034 4250 
z
M 2034 4750 
Q 2819 4750 3233 4129 
Q 3647 3509 3647 2328 
Q 3647 1150 3233 529 
Q 2819 -91 2034 -91 
Q 1250 -91 836 529 
Q 422 1150 422 2328 
Q 422 3509 836 4129 
Q 1250 4750 2034 4750 
z
" transform="scale(0.015625)"/>
        <path id="DejaVuSans-31" d="M 794 531 
L 1825 531 
L 1825 4091 
L 703 3866 
L 703 4441 
L 1819 4666 
L 2450 4666 
L 2450 531 
L 3481 531 
L 3481 0 
L 794 0 
L 794 531 
z
" transform="scale(0.015625)"/>
        <path id="DejaVuSans-2d" d="M 313 2009 
L 1997 2009 
L 1997 1497 
L 313 1497 
L 313 2009 
z
" transform="scale(0.015625)"/>
        <path id="DejaVuSans-39" d="M 703 97 
L 703 672 
Q 941 559 1184 500 
Q 1428 441 1663 441 
Q 2288 441 2617 861 
Q 2947 1281 2994 2138 
Q 2813 1869 2534 1725 
Q 2256 1581 1919 1581 
Q 1219 1581 811 2004 
Q 403 2428 403 3163 
Q 403 3881 828 4315 
Q 1253 4750 1959 4750 
Q 2769 4750 3195 4129 
Q 3622 3509 3622 2328 
Q 3622 1225 3098 567 
Q 2575 -91 1691 -91 
Q 1453 -91 1209 -44 
Q 966 3 703 97 
z
M 1959 2075 
Q 2384 2075 2632 2365 
Q 2881 2656 2881 3163 
Q 2881 3666 2632 3958 
Q 2384 4250 1959 4250 
Q 1534 4250 1286 3958 
Q 1038 3666 1038 3163 
Q 1038 2656 1286 2365 
Q 1534 2075 1959 2075 
z
" transform="scale(0.015625)"/>
       </defs>
       <use xlink:href="#DejaVuSans-32"/>
       <use xlink:href="#DejaVuSans-30" x="63.623047"/>
       <use xlink:href="#DejaVuSans-32" x="127.246094"/>
       <use xlink:href="#DejaVuSans-31" x="190.869141"/>
       <use xlink:href="#DejaVuSans-2d" x="254.492188"/>
       <use xlink:href="#DejaVuSans-30" x="290.576172"/>
       <use xlink:href="#DejaVuSans-39" x="354.199219"/>
      </g>
     </g>
    </g>
    <g id="xtick_2">
     <g id="line2d_3">
      <path d="M 227.93873 320.4 
L 227.93873 43.2 
" clip-path="url(#pb5afe9eb5e)" style="fill: none; stroke-dasharray: 5.12,1.28,0.8,1.28; stroke-dashoffset: 0; stroke: #b0b0b0; stroke-width: 0.8"/>
     </g>
     <g id="line2d_4">
      <g>
       <use xlink:href="#m0c8b68a640" x="227.93873" y="320.4" style="fill: #a9a9a9; stroke: #a9a9a9; stroke-width: 0.8"/>
      </g>
     </g>
     <g id="text_2">
      <!-- 2022-01 -->
      <g style="fill: #a9a9a9" transform="translate(207.047324 334.998438) scale(0.1 -0.1)">
       <use xlink:href="#DejaVuSans-32"/>
       <use xlink:href="#DejaVuSans-30" x="63.623047"/>
       <use xlink:href="#DejaVuSans-32" x="127.246094"/>
       <use xlink:href="#DejaVuSans-32" x="190.869141"/>
       <use xlink:href="#DejaVuSans-2d" x="254.492188"/>
       <use xlink:href="#DejaVuSans-30" x="290.576172"/>
       <use xlink:href="#DejaVuSans-31" x="354.199219"/>
      </g>
     </g>
    </g>
    <g id="xtick_3">
     <g id="line2d_5">
      <path d="M 294.648568 320.4 
L 294.648568 43.2 
" clip-path="url(#pb5afe9eb5e)" style="fill: none; stroke-dasharray: 5.12,1.28,0.8,1.28; stroke-dashoffset: 0; stroke: #b0b0b0; stroke-width: 0.8"/>
     </g>
     <g id="line2d_6">
      <g>
       <use xlink:href="#m0c8b68a640" x="294.648568" y="320.4" style="fill: #a9a9a9; stroke: #a9a9a9; stroke-width: 0.8"/>
      </g>
     </g>
     <g id="text_3">
      <!-- 2022-05 -->
      <g style="fill: #a9a9a9" transform="translate(273.757162 334.998438) scale(0.1 -0.1)">
       <defs>
        <path id="DejaVuSans-35" d="M 691 4666 
L 3169 4666 
L 3169 4134 
L 1269 4134 
L 1269 2991 
Q 1406 3038 1543 3061 
Q 1681 3084 1819 3084 
Q 2600 3084 3056 2656 
Q 3513 2228 3513 1497 
Q 3513 744 3044 326 
Q 2575 -91 1722 -91 
Q 1428 -91 1123 -41 
Q 819 9 494 109 
L 494 744 
Q 775 591 1075 516 
Q 1375 441 1709 441 
Q 2250 441 2565 725 
Q 2881 1009 2881 1497 
Q 2881 1984 2565 2268 
Q 2250 2553 1709 2553 
Q 1456 2553 1204 2497 
Q 953 2441 691 2322 
L 691 4666 
z
" transform="scale(0.015625)"/>
       </defs>
       <use xlink:href="#DejaVuSans-32"/>
       <use xlink:href="#DejaVuSans-30" x="63.623047"/>
       <use xlink:href="#DejaVuSans-32" x="127.246094"/>
       <use xlink:href="#DejaVuSans-32" x="190.869141"/>
       <use xlink:href="#DejaVuSans-2d" x="254.492188"/>
       <use xlink:href="#DejaVuSans-30" x="290.576172"/>
       <use xlink:href="#DejaVuSans-35" x="354.199219"/>
      </g>
     </g>
    </g>
    <g id="xtick_4">
     <g id="line2d_7">
      <path d="M 363.026152 320.4 
L 363.026152 43.2 
" clip-path="url(#pb5afe9eb5e)" style="fill: none; stroke-dasharray: 5.12,1.28,0.8,1.28; stroke-dashoffset: 0; stroke: #b0b0b0; stroke-width: 0.8"/>
     </g>
     <g id="line2d_8">
      <g>
       <use xlink:href="#m0c8b68a640" x="363.026152" y="320.4" style="fill: #a9a9a9; stroke: #a9a9a9; stroke-width: 0.8"/>
      </g>
     </g>
     <g id="text_4">
      <!-- 2022-09 -->
      <g style="fill: #a9a9a9" transform="translate(342.134746 334.998438) scale(0.1 -0.1)">
       <use xlink:href="#DejaVuSans-32"/>
       <use xlink:href="#DejaVuSans-30" x="63.623047"/>
       <use xlink:href="#DejaVuSans-32" x="127.246094"/>
       <use xlink:href="#DejaVuSans-32" x="190.869141"/>
       <use xlink:href="#DejaVuSans-2d" x="254.492188"/>
       <use xlink:href="#DejaVuSans-30" x="290.576172"/>
       <use xlink:href="#DejaVuSans-39" x="354.199219"/>
      </g>
     </g>
    </g>
    <g id="xtick_5">
     <g id="line2d_9">
      <path d="M 430.847821 320.4 
L 430.847821 43.2 
" clip-path="url(#pb5afe9eb5e)" style="fill: none; stroke-dasharray: 5.12,1.28,0.8,1.28; stroke-dashoffset: 0; stroke: #b0b0b0; stroke-width: 0.8"/>
     </g>
     <g id="line2d_10">
      <g>
       <use xlink:href="#m0c8b68a640" x="430.847821" y="320.4" style="fill: #a9a9a9; stroke: #a9a9a9; stroke-width: 0.8"/>
      </g>
     </g>
     <g id="text_5">
      <!-- 2023-01 -->
      <g style="fill: #a9a9a9" transform="translate(409.956414 334.998438) scale(0.1 -0.1)">
       <defs>
        <path id="DejaVuSans-33" d="M 2597 2516 
Q 3050 2419 3304 2112 
Q 3559 1806 3559 1356 
Q 3559 666 3084 287 
Q 2609 -91 1734 -91 
Q 1441 -91 1130 -33 
Q 819 25 488 141 
L 488 750 
Q 750 597 1062 519 
Q 1375 441 1716 441 
Q 2309 441 2620 675 
Q 2931 909 2931 1356 
Q 2931 1769 2642 2001 
Q 2353 2234 1838 2234 
L 1294 2234 
L 1294 2753 
L 1863 2753 
Q 2328 2753 2575 2939 
Q 2822 3125 2822 3475 
Q 2822 3834 2567 4026 
Q 2313 4219 1838 4219 
Q 1578 4219 1281 4162 
Q 984 4106 628 3988 
L 628 4550 
Q 988 4650 1302 4700 
Q 1616 4750 1894 4750 
Q 2613 4750 3031 4423 
Q 3450 4097 3450 3541 
Q 3450 3153 3228 2886 
Q 3006 2619 2597 2516 
z
" transform="scale(0.015625)"/>
       </defs>
       <use xlink:href="#DejaVuSans-32"/>
       <use xlink:href="#DejaVuSans-30" x="63.623047"/>
       <use xlink:href="#DejaVuSans-32" x="127.246094"/>
       <use xlink:href="#DejaVuSans-33" x="190.869141"/>
       <use xlink:href="#DejaVuSans-2d" x="254.492188"/>
       <use xlink:href="#DejaVuSans-30" x="290.576172"/>
       <use xlink:href="#DejaVuSans-31" x="354.199219"/>
      </g>
     </g>
    </g>
    <g id="xtick_6">
     <g id="line2d_11">
      <path d="M 497.557659 320.4 
L 497.557659 43.2 
" clip-path="url(#pb5afe9eb5e)" style="fill: none; stroke-dasharray: 5.12,1.28,0.8,1.28; stroke-dashoffset: 0; stroke: #b0b0b0; stroke-width: 0.8"/>
     </g>
     <g id="line2d_12">
      <g>
       <use xlink:href="#m0c8b68a640" x="497.557659" y="320.4" style="fill: #a9a9a9; stroke: #a9a9a9; stroke-width: 0.8"/>
      </g>
     </g>
     <g id="text_6">
      <!-- 2023-05 -->
      <g style="fill: #a9a9a9" transform="translate(476.666253 334.998438) scale(0.1 -0.1)">
       <use xlink:href="#DejaVuSans-32"/>
       <use xlink:href="#DejaVuSans-30" x="63.623047"/>
       <use xlink:href="#DejaVuSans-32" x="127.246094"/>
       <use xlink:href="#DejaVuSans-33" x="190.869141"/>
       <use xlink:href="#DejaVuSans-2d" x="254.492188"/>
       <use xlink:href="#DejaVuSans-30" x="290.576172"/>
       <use xlink:href="#DejaVuSans-35" x="354.199219"/>
      </g>
     </g>
    </g>
    <g id="xtick_7">
     <g id="line2d_13">
      <path d="M 565.935243 320.4 
L 565.935243 43.2 
" clip-path="url(#pb5afe9eb5e)" style="fill: none; stroke-dasharray: 5.12,1.28,0.8,1.28; stroke-dashoffset: 0; stroke: #b0b0b0; stroke-width: 0.8"/>
     </g>
     <g id="line2d_14">
      <g>
       <use xlink:href="#m0c8b68a640" x="565.935243" y="320.4" style="fill: #a9a9a9; stroke: #a9a9a9; stroke-width: 0.8"/>
      </g>
     </g>
     <g id="text_7">
      <!-- 2023-09 -->
      <g style="fill: #a9a9a9" transform="translate(545.043837 334.998438) scale(0.1 -0.1)">
       <use xlink:href="#DejaVuSans-32"/>
       <use xlink:href="#DejaVuSans-30" x="63.623047"/>
       <use xlink:href="#DejaVuSans-32" x="127.246094"/>
       <use xlink:href="#DejaVuSans-33" x="190.869141"/>
       <use xlink:href="#DejaVuSans-2d" x="254.492188"/>
       <use xlink:href="#DejaVuSans-30" x="290.576172"/>
       <use xlink:href="#DejaVuSans-39" x="354.199219"/>
      </g>
     </g>
    </g>
    <g id="xtick_8">
     <g id="line2d_15">
      <path d="M 633.756912 320.4 
L 633.756912 43.2 
" clip-path="url(#pb5afe9eb5e)" style="fill: none; stroke-dasharray: 5.12,1.28,0.8,1.28; stroke-dashoffset: 0; stroke: #b0b0b0; stroke-width: 0.8"/>
     </g>
     <g id="line2d_16">
      <g>
       <use xlink:href="#m0c8b68a640" x="633.756912" y="320.4" style="fill: #a9a9a9; stroke: #a9a9a9; stroke-width: 0.8"/>
      </g>
     </g>
     <g id="text_8">
      <!-- 2024-01 -->
      <g style="fill: #a9a9a9" transform="translate(612.865505 334.998438) scale(0.1 -0.1)">
       <defs>
        <path id="DejaVuSans-34" d="M 2419 4116 
L 825 1625 
L 2419 1625 
L 2419 4116 
z
M 2253 4666 
L 3047 4666 
L 3047 1625 
L 3713 1625 
L 3713 1100 
L 3047 1100 
L 3047 0 
L 2419 0 
L 2419 1100 
L 313 1100 
L 313 1709 
L 2253 4666 
z
" transform="scale(0.015625)"/>
       </defs>
       <use xlink:href="#DejaVuSans-32"/>
       <use xlink:href="#DejaVuSans-30" x="63.623047"/>
       <use xlink:href="#DejaVuSans-32" x="127.246094"/>
       <use xlink:href="#DejaVuSans-34" x="190.869141"/>
       <use xlink:href="#DejaVuSans-2d" x="254.492188"/>
       <use xlink:href="#DejaVuSans-30" x="290.576172"/>
       <use xlink:href="#DejaVuSans-31" x="354.199219"/>
      </g>
     </g>
    </g>
    <g id="xtick_9">
     <g id="line2d_17">
      <path d="M 701.022665 320.4 
L 701.022665 43.2 
" clip-path="url(#pb5afe9eb5e)" style="fill: none; stroke-dasharray: 5.12,1.28,0.8,1.28; stroke-dashoffset: 0; stroke: #b0b0b0; stroke-width: 0.8"/>
     </g>
     <g id="line2d_18">
      <g>
       <use xlink:href="#m0c8b68a640" x="701.022665" y="320.4" style="fill: #a9a9a9; stroke: #a9a9a9; stroke-width: 0.8"/>
      </g>
     </g>
     <g id="text_9">
      <!-- 2024-05 -->
      <g style="fill: #a9a9a9" transform="translate(680.131259 334.998438) scale(0.1 -0.1)">
       <use xlink:href="#DejaVuSans-32"/>
       <use xlink:href="#DejaVuSans-30" x="63.623047"/>
       <use xlink:href="#DejaVuSans-32" x="127.246094"/>
       <use xlink:href="#DejaVuSans-34" x="190.869141"/>
       <use xlink:href="#DejaVuSans-2d" x="254.492188"/>
       <use xlink:href="#DejaVuSans-30" x="290.576172"/>
       <use xlink:href="#DejaVuSans-35" x="354.199219"/>
      </g>
     </g>
    </g>
    <g id="xtick_10">
     <g id="line2d_19">
      <path d="M 769.400249 320.4 
L 769.400249 43.2 
" clip-path="url(#pb5afe9eb5e)" style="fill: none; stroke-dasharray: 5.12,1.28,0.8,1.28; stroke-dashoffset: 0; stroke: #b0b0b0; stroke-width: 0.8"/>
     </g>
     <g id="line2d_20">
      <g>
       <use xlink:href="#m0c8b68a640" x="769.400249" y="320.4" style="fill: #a9a9a9; stroke: #a9a9a9; stroke-width: 0.8"/>
      </g>
     </g>
     <g id="text_10">
      <!-- 2024-09 -->
      <g style="fill: #a9a9a9" transform="translate(748.508843 334.998438) scale(0.1 -0.1)">
       <use xlink:href="#DejaVuSans-32"/>
       <use xlink:href="#DejaVuSans-30" x="63.623047"/>
       <use xlink:href="#DejaVuSans-32" x="127.246094"/>
       <use xlink:href="#DejaVuSans-34" x="190.869141"/>
       <use xlink:href="#DejaVuSans-2d" x="254.492188"/>
       <use xlink:href="#DejaVuSans-30" x="290.576172"/>
       <use xlink:href="#DejaVuSans-39" x="354.199219"/>
      </g>
     </g>
    </g>
   </g>
   <g id="matplotlib.axis_2">
    <g id="ytick_1">
     <g id="line2d_21">
      <path d="M 108 307.839307 
L 777.6 307.839307 
" clip-path="url(#pb5afe9eb5e)" style="fill: none; stroke-dasharray: 5.12,1.28,0.8,1.28; stroke-dashoffset: 0; stroke: #b0b0b0; stroke-width: 0.8"/>
     </g>
     <g id="line2d_22">
      <defs>
       <path id="mab4de191e8" d="M 0 0 
L -3.5 0 
" style="stroke: #a9a9a9; stroke-width: 0.8"/>
      </defs>
      <g>
       <use xlink:href="#mab4de191e8" x="108" y="307.839307" style="fill: #a9a9a9; stroke: #a9a9a9; stroke-width: 0.8"/>
      </g>
     </g>
     <g id="text_11">
      <!-- 0 -->
      <g style="fill: #a9a9a9" transform="translate(94.6375 311.638526) scale(0.1 -0.1)">
       <use xlink:href="#DejaVuSans-30"/>
      </g>
     </g>
    </g>
    <g id="ytick_2">
     <g id="line2d_23">
      <path d="M 108 276.393355 
L 777.6 276.393355 
" clip-path="url(#pb5afe9eb5e)" style="fill: none; stroke-dasharray: 5.12,1.28,0.8,1.28; stroke-dashoffset: 0; stroke: #b0b0b0; stroke-width: 0.8"/>
     </g>
     <g id="line2d_24">
      <g>
       <use xlink:href="#mab4de191e8" x="108" y="276.393355" style="fill: #a9a9a9; stroke: #a9a9a9; stroke-width: 0.8"/>
      </g>
     </g>
     <g id="text_12">
      <!-- 800 -->
      <g style="fill: #a9a9a9" transform="translate(81.9125 280.192574) scale(0.1 -0.1)">
       <defs>
        <path id="DejaVuSans-38" d="M 2034 2216 
Q 1584 2216 1326 1975 
Q 1069 1734 1069 1313 
Q 1069 891 1326 650 
Q 1584 409 2034 409 
Q 2484 409 2743 651 
Q 3003 894 3003 1313 
Q 3003 1734 2745 1975 
Q 2488 2216 2034 2216 
z
M 1403 2484 
Q 997 2584 770 2862 
Q 544 3141 544 3541 
Q 544 4100 942 4425 
Q 1341 4750 2034 4750 
Q 2731 4750 3128 4425 
Q 3525 4100 3525 3541 
Q 3525 3141 3298 2862 
Q 3072 2584 2669 2484 
Q 3125 2378 3379 2068 
Q 3634 1759 3634 1313 
Q 3634 634 3220 271 
Q 2806 -91 2034 -91 
Q 1263 -91 848 271 
Q 434 634 434 1313 
Q 434 1759 690 2068 
Q 947 2378 1403 2484 
z
M 1172 3481 
Q 1172 3119 1398 2916 
Q 1625 2713 2034 2713 
Q 2441 2713 2670 2916 
Q 2900 3119 2900 3481 
Q 2900 3844 2670 4047 
Q 2441 4250 2034 4250 
Q 1625 4250 1398 4047 
Q 1172 3844 1172 3481 
z
" transform="scale(0.015625)"/>
       </defs>
       <use xlink:href="#DejaVuSans-38"/>
       <use xlink:href="#DejaVuSans-30" x="63.623047"/>
       <use xlink:href="#DejaVuSans-30" x="127.246094"/>
      </g>
     </g>
    </g>
    <g id="ytick_3">
     <g id="line2d_25">
      <path d="M 108 244.947403 
L 777.6 244.947403 
" clip-path="url(#pb5afe9eb5e)" style="fill: none; stroke-dasharray: 5.12,1.28,0.8,1.28; stroke-dashoffset: 0; stroke: #b0b0b0; stroke-width: 0.8"/>
     </g>
     <g id="line2d_26">
      <g>
       <use xlink:href="#mab4de191e8" x="108" y="244.947403" style="fill: #a9a9a9; stroke: #a9a9a9; stroke-width: 0.8"/>
      </g>
     </g>
     <g id="text_13">
      <!-- 1600 -->
      <g style="fill: #a9a9a9" transform="translate(75.55 248.746622) scale(0.1 -0.1)">
       <defs>
        <path id="DejaVuSans-36" d="M 2113 2584 
Q 1688 2584 1439 2293 
Q 1191 2003 1191 1497 
Q 1191 994 1439 701 
Q 1688 409 2113 409 
Q 2538 409 2786 701 
Q 3034 994 3034 1497 
Q 3034 2003 2786 2293 
Q 2538 2584 2113 2584 
z
M 3366 4563 
L 3366 3988 
Q 3128 4100 2886 4159 
Q 2644 4219 2406 4219 
Q 1781 4219 1451 3797 
Q 1122 3375 1075 2522 
Q 1259 2794 1537 2939 
Q 1816 3084 2150 3084 
Q 2853 3084 3261 2657 
Q 3669 2231 3669 1497 
Q 3669 778 3244 343 
Q 2819 -91 2113 -91 
Q 1303 -91 875 529 
Q 447 1150 447 2328 
Q 447 3434 972 4092 
Q 1497 4750 2381 4750 
Q 2619 4750 2861 4703 
Q 3103 4656 3366 4563 
z
" transform="scale(0.015625)"/>
       </defs>
       <use xlink:href="#DejaVuSans-31"/>
       <use xlink:href="#DejaVuSans-36" x="63.623047"/>
       <use xlink:href="#DejaVuSans-30" x="127.246094"/>
       <use xlink:href="#DejaVuSans-30" x="190.869141"/>
      </g>
     </g>
    </g>
    <g id="ytick_4">
     <g id="line2d_27">
      <path d="M 108 213.501451 
L 777.6 213.501451 
" clip-path="url(#pb5afe9eb5e)" style="fill: none; stroke-dasharray: 5.12,1.28,0.8,1.28; stroke-dashoffset: 0; stroke: #b0b0b0; stroke-width: 0.8"/>
     </g>
     <g id="line2d_28">
      <g>
       <use xlink:href="#mab4de191e8" x="108" y="213.501451" style="fill: #a9a9a9; stroke: #a9a9a9; stroke-width: 0.8"/>
      </g>
     </g>
     <g id="text_14">
      <!-- 2400 -->
      <g style="fill: #a9a9a9" transform="translate(75.55 217.300669) scale(0.1 -0.1)">
       <use xlink:href="#DejaVuSans-32"/>
       <use xlink:href="#DejaVuSans-34" x="63.623047"/>
       <use xlink:href="#DejaVuSans-30" x="127.246094"/>
       <use xlink:href="#DejaVuSans-30" x="190.869141"/>
      </g>
     </g>
    </g>
    <g id="ytick_5">
     <g id="line2d_29">
      <path d="M 108 182.055498 
L 777.6 182.055498 
" clip-path="url(#pb5afe9eb5e)" style="fill: none; stroke-dasharray: 5.12,1.28,0.8,1.28; stroke-dashoffset: 0; stroke: #b0b0b0; stroke-width: 0.8"/>
     </g>
     <g id="line2d_30">
      <g>
       <use xlink:href="#mab4de191e8" x="108" y="182.055498" style="fill: #a9a9a9; stroke: #a9a9a9; stroke-width: 0.8"/>
      </g>
     </g>
     <g id="text_15">
      <!-- 3200 -->
      <g style="fill: #a9a9a9" transform="translate(75.55 185.854717) scale(0.1 -0.1)">
       <use xlink:href="#DejaVuSans-33"/>
       <use xlink:href="#DejaVuSans-32" x="63.623047"/>
       <use xlink:href="#DejaVuSans-30" x="127.246094"/>
       <use xlink:href="#DejaVuSans-30" x="190.869141"/>
      </g>
     </g>
    </g>
    <g id="ytick_6">
     <g id="line2d_31">
      <path d="M 108 150.609546 
L 777.6 150.609546 
" clip-path="url(#pb5afe9eb5e)" style="fill: none; stroke-dasharray: 5.12,1.28,0.8,1.28; stroke-dashoffset: 0; stroke: #b0b0b0; stroke-width: 0.8"/>
     </g>
     <g id="line2d_32">
      <g>
       <use xlink:href="#mab4de191e8" x="108" y="150.609546" style="fill: #a9a9a9; stroke: #a9a9a9; stroke-width: 0.8"/>
      </g>
     </g>
     <g id="text_16">
      <!-- 4000 -->
      <g style="fill: #a9a9a9" transform="translate(75.55 154.408765) scale(0.1 -0.1)">
       <use xlink:href="#DejaVuSans-34"/>
       <use xlink:href="#DejaVuSans-30" x="63.623047"/>
       <use xlink:href="#DejaVuSans-30" x="127.246094"/>
       <use xlink:href="#DejaVuSans-30" x="190.869141"/>
      </g>
     </g>
    </g>
    <g id="ytick_7">
     <g id="line2d_33">
      <path d="M 108 119.163594 
L 777.6 119.163594 
" clip-path="url(#pb5afe9eb5e)" style="fill: none; stroke-dasharray: 5.12,1.28,0.8,1.28; stroke-dashoffset: 0; stroke: #b0b0b0; stroke-width: 0.8"/>
     </g>
     <g id="line2d_34">
      <g>
       <use xlink:href="#mab4de191e8" x="108" y="119.163594" style="fill: #a9a9a9; stroke: #a9a9a9; stroke-width: 0.8"/>
      </g>
     </g>
     <g id="text_17">
      <!-- 4800 -->
      <g style="fill: #a9a9a9" transform="translate(75.55 122.962813) scale(0.1 -0.1)">
       <use xlink:href="#DejaVuSans-34"/>
       <use xlink:href="#DejaVuSans-38" x="63.623047"/>
       <use xlink:href="#DejaVuSans-30" x="127.246094"/>
       <use xlink:href="#DejaVuSans-30" x="190.869141"/>
      </g>
     </g>
    </g>
    <g id="ytick_8">
     <g id="line2d_35">
      <path d="M 108 87.717642 
L 777.6 87.717642 
" clip-path="url(#pb5afe9eb5e)" style="fill: none; stroke-dasharray: 5.12,1.28,0.8,1.28; stroke-dashoffset: 0; stroke: #b0b0b0; stroke-width: 0.8"/>
     </g>
     <g id="line2d_36">
      <g>
       <use xlink:href="#mab4de191e8" x="108" y="87.717642" style="fill: #a9a9a9; stroke: #a9a9a9; stroke-width: 0.8"/>
      </g>
     </g>
     <g id="text_18">
      <!-- 5600 -->
      <g style="fill: #a9a9a9" transform="translate(75.55 91.51686) scale(0.1 -0.1)">
       <use xlink:href="#DejaVuSans-35"/>
       <use xlink:href="#DejaVuSans-36" x="63.623047"/>
       <use xlink:href="#DejaVuSans-30" x="127.246094"/>
       <use xlink:href="#DejaVuSans-30" x="190.869141"/>
      </g>
     </g>
    </g>
    <g id="ytick_9">
     <g id="line2d_37">
      <path d="M 108 56.271689 
L 777.6 56.271689 
" clip-path="url(#pb5afe9eb5e)" style="fill: none; stroke-dasharray: 5.12,1.28,0.8,1.28; stroke-dashoffset: 0; stroke: #b0b0b0; stroke-width: 0.8"/>
     </g>
     <g id="line2d_38">
      <g>
       <use xlink:href="#mab4de191e8" x="108" y="56.271689" style="fill: #a9a9a9; stroke: #a9a9a9; stroke-width: 0.8"/>
      </g>
     </g>
     <g id="text_19">
      <!-- 6400 -->
      <g style="fill: #a9a9a9" transform="translate(75.55 60.070908) scale(0.1 -0.1)">
       <use xlink:href="#DejaVuSans-36"/>
       <use xlink:href="#DejaVuSans-34" x="63.623047"/>
       <use xlink:href="#DejaVuSans-30" x="127.246094"/>
       <use xlink:href="#DejaVuSans-30" x="190.869141"/>
      </g>
     </g>
    </g>
   </g>
   <g id="line2d_39">
    <path d="M 138.436364 307.721385 
L 141.771856 307.446233 
L 142.327771 307.210388 
L 143.995517 307.053159 
L 147.331009 306.384932 
L 150.666501 306.10978 
L 151.778331 305.677398 
L 152.334247 304.969864 
L 152.890162 304.57679 
L 153.446077 303.358259 
L 154.001993 303.279644 
L 154.557908 302.847263 
L 155.669738 302.296958 
L 157.8934 300.567431 
L 160.117061 299.50613 
L 161.784807 298.759289 
L 162.340722 297.894525 
L 163.452553 297.108376 
L 164.008468 296.872532 
L 169.567621 296.086383 
L 170.123537 295.811231 
L 174.014944 295.496771 
L 175.68269 295.064389 
L 180.685928 294.396163 
L 181.241843 294.081703 
L 181.797758 294.003088 
L 182.909589 293.649321 
L 186.800996 293.020402 
L 187.912827 292.705943 
L 189.580573 292.548713 
L 190.692403 292.430791 
L 191.248319 292.273561 
L 191.804234 292.234254 
L 193.47198 291.723257 
L 194.583811 291.644642 
L 195.695641 291.487412 
L 196.807472 291.251568 
L 197.363387 291.094338 
L 197.919303 290.347496 
L 199.587049 289.718577 
L 201.254795 289.286196 
L 201.81071 289.011044 
L 202.366625 288.971736 
L 205.146202 288.185587 
L 206.258032 288.106972 
L 206.813948 288.028358 
L 208.481694 287.517361 
L 210.705355 286.967057 
L 211.26127 286.731212 
L 211.817186 286.652597 
L 212.373101 286.377445 
L 217.932254 285.551989 
L 220.711831 284.76584 
L 221.267746 284.412073 
L 223.491407 283.822461 
L 225.715068 282.682546 
L 227.382814 282.289471 
L 227.93873 282.210856 
L 228.494645 281.935704 
L 229.606476 281.739167 
L 230.718306 281.22817 
L 233.497883 280.520636 
L 235.165629 280.088255 
L 236.833375 279.498643 
L 237.38929 279.420028 
L 238.501121 278.987646 
L 239.612951 278.909031 
L 240.724782 278.515957 
L 243.504359 278.083575 
L 244.060274 277.887038 
L 245.172105 277.84773 
L 247.395766 277.572578 
L 248.507597 277.022274 
L 255.17858 274.074216 
L 255.734496 273.484605 
L 256.846326 271.833692 
L 257.402242 271.676462 
L 257.958157 271.676462 
L 259.069988 270.851006 
L 259.625903 270.693776 
L 260.181818 270.418624 
L 260.737733 270.300702 
L 261.293649 269.789705 
L 261.849564 269.632475 
L 263.51731 268.846327 
L 264.629141 267.274029 
L 265.185056 266.920262 
L 265.740971 265.976883 
L 266.296887 265.387272 
L 269.632379 263.657745 
L 270.744209 262.792981 
L 271.300125 262.439214 
L 271.85604 261.613758 
L 272.411955 260.395227 
L 272.96787 259.569771 
L 273.523786 259.137389 
L 274.079701 258.901544 
L 276.303362 256.936172 
L 277.415193 256.032101 
L 277.971108 255.560412 
L 278.527024 254.81357 
L 279.638854 253.830884 
L 281.862516 252.376509 
L 282.418431 251.90482 
L 282.974346 251.786898 
L 284.086177 251.197286 
L 286.309838 250.05737 
L 287.421669 248.996069 
L 287.977584 248.327843 
L 289.089415 247.541694 
L 289.64533 247.384464 
L 290.201245 247.109312 
L 291.313076 246.362471 
L 291.868991 246.048011 
L 292.424907 245.969396 
L 296.316314 243.571642 
L 298.539975 242.392419 
L 299.09589 241.881423 
L 301.319552 241.173889 
L 301.875467 240.780814 
L 302.431382 240.662892 
L 304.655044 239.837436 
L 307.43462 238.933365 
L 307.990535 238.815442 
L 309.102366 237.832756 
L 310.770112 237.046607 
L 311.881943 236.378381 
L 312.993773 236.063921 
L 313.549689 235.710154 
L 314.105604 235.552925 
L 315.77335 234.491624 
L 318.552927 233.823397 
L 320.220672 232.840711 
L 320.776588 232.762096 
L 321.332503 232.565559 
L 322.444334 232.329715 
L 324.11208 231.071876 
L 325.779826 230.678802 
L 326.335741 230.482265 
L 326.891656 230.049883 
L 330.227148 228.949275 
L 330.783064 228.909967 
L 331.338979 228.752737 
L 332.450809 228.281048 
L 336.342217 226.905288 
L 337.454047 226.748058 
L 338.009963 226.590828 
L 338.565878 226.315676 
L 339.121793 226.197754 
L 341.90137 224.900608 
L 344.125031 223.721385 
L 348.572354 221.95255 
L 349.128269 221.873935 
L 350.2401 221.205709 
L 350.796015 221.127094 
L 353.019676 220.223023 
L 355.243337 219.869256 
L 356.355168 219.318952 
L 356.911083 218.847263 
L 357.466999 217.864577 
L 359.134745 217.550117 
L 361.358406 216.370894 
L 361.914321 216.252971 
L 366.361644 214.169677 
L 368.02939 213.81591 
L 369.14122 213.265606 
L 369.697136 213.029761 
L 370.253051 212.951146 
L 372.476712 211.96846 
L 374.144458 210.946467 
L 374.700374 210.867852 
L 375.256289 210.671315 
L 375.812204 210.632007 
L 378.035866 210.003088 
L 378.591781 209.963781 
L 379.147696 209.531399 
L 380.259527 209.138325 
L 381.927273 208.588021 
L 382.483188 208.234254 
L 383.039103 208.077024 
L 383.595019 207.683949 
L 384.150934 207.487412 
L 385.262765 206.897801 
L 387.486426 206.229574 
L 388.042341 205.954422 
L 389.710087 204.657277 
L 390.266002 204.539354 
L 391.377833 203.674591 
L 391.933748 203.595976 
L 392.489664 202.731212 
L 393.045579 202.495367 
L 393.601494 202.062985 
L 394.15741 201.984371 
L 395.26924 201.316144 
L 395.825156 201.198222 
L 396.381071 200.962377 
L 396.936986 200.529995 
L 397.492902 200.333458 
L 399.160648 199.193542 
L 401.384309 198.053627 
L 401.940224 197.975012 
L 403.60797 197.149555 
L 404.163885 196.206177 
L 404.719801 195.734488 
L 405.275716 195.420028 
L 405.831631 195.302106 
L 406.943462 194.594572 
L 407.499377 194.47665 
L 408.611208 193.926345 
L 410.278954 193.218811 
L 411.390785 192.432663 
L 412.502615 191.253439 
L 413.614446 190.585213 
L 414.170361 190.231446 
L 414.726276 189.641834 
L 416.949938 188.108844 
L 417.505853 187.479925 
L 418.061768 187.047543 
L 419.173599 186.654469 
L 420.28543 185.907628 
L 421.953176 185.082171 
L 422.509091 185.003556 
L 424.176837 184.099485 
L 425.288667 183.431259 
L 430.847821 181.465887 
L 431.403736 181.033505 
L 433.627397 180.208049 
L 434.183313 180.050819 
L 434.739228 179.618437 
L 437.518804 178.124754 
L 438.630635 175.923538 
L 439.742466 174.6657 
L 440.854296 173.997473 
L 442.522042 173.329247 
L 443.077958 173.250632 
L 443.633873 172.936172 
L 446.41345 172.071409 
L 446.969365 171.835564 
L 448.081196 171.088723 
L 449.193026 170.695648 
L 452.528518 168.730276 
L 453.084433 168.140664 
L 454.196264 167.551053 
L 456.975841 166.096678 
L 460.311333 164.485073 
L 460.867248 164.36715 
L 462.534994 163.777539 
L 463.090909 163.620309 
L 465.31457 162.637623 
L 466.426401 162.205241 
L 466.982316 161.772859 
L 468.094147 161.419092 
L 471.429639 159.728872 
L 472.541469 158.864109 
L 473.6533 158.471034 
L 474.209215 157.999345 
L 474.765131 157.92073 
L 475.876961 157.095274 
L 476.988792 156.54497 
L 477.544707 156.309125 
L 478.100623 155.758821 
L 481.436115 154.54029 
L 483.103861 153.793449 
L 484.771606 153.282452 
L 485.883437 153.125222 
L 486.439352 152.889378 
L 486.995268 152.810763 
L 488.107098 152.339073 
L 488.663014 152.299766 
L 490.886675 151.47431 
L 492.554421 150.334394 
L 495.333998 149.037248 
L 498.113574 147.543566 
L 498.669489 147.425643 
L 500.337235 146.482265 
L 502.004981 145.931961 
L 503.116812 145.578194 
L 505.340473 144.87066 
L 506.452304 144.516893 
L 508.12005 144.241741 
L 510.343711 143.534207 
L 510.899626 143.298362 
L 511.455542 143.219747 
L 512.011457 142.944595 
L 513.123288 142.708751 
L 514.791034 142.119139 
L 515.902864 142.001217 
L 517.014695 141.726065 
L 518.682441 141.450912 
L 519.238356 141.293683 
L 520.350187 141.17576 
L 523.129763 140.468226 
L 524.241594 140.193074 
L 524.797509 139.878615 
L 527.577086 139.171081 
L 528.133001 139.053159 
L 530.356663 138.227702 
L 533.136239 137.402246 
L 533.692154 137.402246 
L 534.803985 137.009172 
L 535.3599 136.458868 
L 536.471731 136.026486 
L 538.139477 135.358259 
L 539.251308 134.965185 
L 539.807223 134.847263 
L 540.363138 134.493496 
L 540.919054 134.375573 
L 541.474969 134.061114 
L 542.5868 133.864577 
L 543.69863 133.432195 
L 544.254545 133.314272 
L 544.810461 132.960505 
L 545.366376 132.842583 
L 545.922291 132.370894 
L 547.590037 132.056434 
L 548.701868 131.50613 
L 549.257783 130.877211 
L 550.369614 130.641366 
L 555.372852 129.580066 
L 555.928767 129.580066 
L 556.484682 129.344221 
L 558.708344 128.951146 
L 559.264259 128.715302 
L 560.932005 128.479457 
L 563.155666 127.771923 
L 564.823412 127.378849 
L 566.491158 126.946467 
L 568.158904 126.43547 
L 570.938481 125.610014 
L 571.494396 125.295555 
L 573.162142 124.74525 
L 573.718057 124.352176 
L 574.829888 124.037716 
L 575.941719 123.683949 
L 577.053549 123.21226 
L 578.721295 122.465419 
L 580.389041 122.347496 
L 582.612702 121.718577 
L 583.168618 121.36481 
L 584.280448 121.050351 
L 587.060025 119.792513 
L 587.61594 119.753205 
L 593.731009 117.669911 
L 595.95467 117.119607 
L 596.510585 116.962377 
L 597.622416 116.45138 
L 598.178331 116.372766 
L 599.290162 116.058306 
L 599.846077 115.625924 
L 600.401993 115.350772 
L 600.957908 114.682546 
L 601.513823 114.289471 
L 602.625654 113.975012 
L 603.181569 113.54263 
L 607.628892 111.734488 
L 608.184807 111.577258 
L 608.740722 111.223491 
L 610.964384 110.555264 
L 612.076214 110.00496 
L 613.188045 109.336734 
L 613.74396 109.218811 
L 614.855791 108.550585 
L 615.411706 108.31474 
L 616.523537 107.646514 
L 618.191283 106.860365 
L 618.747198 106.467291 
L 619.859029 106.113524 
L 620.970859 105.445297 
L 621.526775 105.24876 
L 622.08269 104.855686 
L 623.194521 104.462611 
L 623.750436 104.344689 
L 625.974097 103.362003 
L 628.753674 102.379317 
L 629.865504 102.222087 
L 630.42142 101.86832 
L 630.977335 101.789705 
L 631.53325 101.593168 
L 633.200996 101.278708 
L 637.092403 99.391951 
L 637.648319 99.313336 
L 639.316065 98.409265 
L 642.095641 97.347964 
L 645.987049 95.697052 
L 647.098879 95.539822 
L 647.654795 95.186055 
L 648.21071 95.146748 
L 649.32254 94.792981 
L 650.434371 94.242677 
L 650.990286 94.164062 
L 653.769863 93.063453 
L 654.325778 92.945531 
L 655.437609 92.591764 
L 655.993524 92.395227 
L 657.105355 92.19869 
L 658.773101 91.687693 
L 663.776339 89.289939 
L 664.332254 89.172017 
L 664.888169 88.857557 
L 665.444085 88.739635 
L 667.111831 87.874871 
L 667.667746 87.717642 
L 669.891407 86.695648 
L 671.559153 86.263266 
L 674.894645 84.966121 
L 676.562391 84.415817 
L 685.457036 80.760225 
L 687.680697 79.895461 
L 689.348443 78.99139 
L 689.904359 78.873467 
L 691.016189 78.441086 
L 691.572105 78.441086 
L 692.683935 77.969396 
L 693.239851 77.537015 
L 694.351681 76.475714 
L 696.019427 75.689565 
L 696.575342 75.571642 
L 697.131258 75.29649 
L 697.687173 75.217876 
L 698.243088 74.824801 
L 698.799004 74.706879 
L 699.910834 74.038652 
L 701.57858 73.213196 
L 702.134496 73.055966 
L 703.246326 72.505662 
L 704.914072 72.112588 
L 705.469988 71.916051 
L 706.025903 71.837436 
L 706.581818 71.562284 
L 707.137733 71.444361 
L 712.140971 69.400374 
L 712.696887 69.243145 
L 716.588294 67.435002 
L 717.144209 67.238465 
L 717.700125 67.15985 
L 719.923786 66.098549 
L 722.703362 64.801404 
L 723.815193 64.408329 
L 724.371108 63.93664 
L 724.927024 63.622181 
L 726.59477 63.111184 
L 727.7066 62.364343 
L 728.262516 62.325035 
L 729.374346 62.010576 
L 729.930262 61.892653 
L 732.153923 61.067197 
L 733.821669 60.5562 
L 734.377584 60.477585 
L 735.489415 59.887974 
L 736.04533 59.691437 
L 736.601245 59.259055 
L 738.268991 58.826673 
L 738.824907 58.472906 
L 739.936737 58.197754 
L 741.604483 57.293683 
L 742.160399 57.254375 
L 743.828144 56.704071 
L 744.939975 56.586149 
L 745.49589 56.271689 
L 747.163636 55.8 
L 747.163636 55.8 
" clip-path="url(#pb5afe9eb5e)" style="fill: none; stroke: #1f77b4; stroke-width: 1.5; stroke-linecap: square"/>
   </g>
   <g id="line2d_40">
    <path d="M 138.992279 307.8 
L 140.660025 307.721385 
L 142.327771 307.682078 
L 145.663263 307.603463 
L 148.442839 307.48554 
L 150.666501 307.48554 
L 151.222416 307.328311 
L 153.446077 307.249696 
L 155.113823 307.053159 
L 156.781569 306.895929 
L 160.117061 306.738699 
L 160.672976 306.738699 
L 161.228892 306.620777 
L 163.452553 306.542162 
L 164.564384 306.463547 
L 169.011706 306.384932 
L 171.791283 306.26701 
L 178.462267 306.188395 
L 181.241843 306.070473 
L 184.577335 305.991858 
L 186.800996 305.913243 
L 191.804234 305.834628 
L 193.47198 305.795321 
L 195.139726 305.756013 
L 196.807472 305.559476 
L 200.142964 305.520168 
L 201.254795 305.441554 
L 205.146202 305.362939 
L 211.26127 305.009172 
L 215.152677 304.930557 
L 216.264508 304.851942 
L 217.932254 304.773327 
L 221.267746 304.616097 
L 223.491407 304.57679 
L 225.159153 304.41956 
L 232.386052 303.987178 
L 235.165629 303.908563 
L 240.168867 303.633411 
L 241.836613 303.554796 
L 247.395766 303.240337 
L 253.510834 303.161722 
L 255.734496 302.925877 
L 256.846326 302.847263 
L 264.073225 302.257651 
L 267.408717 301.825269 
L 269.632379 301.746654 
L 274.079701 301.157043 
L 277.415193 301.078428 
L 279.082939 300.921198 
L 280.19477 300.881891 
L 281.3066 300.763968 
L 282.974346 300.685353 
L 284.086177 300.528124 
L 286.865753 300.213664 
L 289.089415 300.135049 
L 290.201245 300.056434 
L 292.424907 299.977819 
L 293.536737 299.899204 
L 296.316314 299.624052 
L 296.872229 299.466823 
L 300.207721 299.309593 
L 302.987298 299.230978 
L 310.214197 298.798596 
L 311.881943 298.719981 
L 319.108842 298.287599 
L 323.000249 298.208985 
L 323.556164 298.091062 
L 328.003487 298.012447 
L 331.894894 297.81591 
L 338.009963 297.737295 
L 341.90137 297.540758 
L 346.348692 297.462143 
L 350.796015 297.226299 
L 354.687422 297.147684 
L 365.249813 296.479457 
L 370.808966 296.400842 
L 373.032628 296.164998 
L 374.700374 296.12569 
L 376.36812 296.086383 
L 378.591781 295.850538 
L 384.150934 295.536079 
L 387.486426 295.457464 
L 389.154172 295.418156 
L 390.821918 295.378849 
L 392.489664 295.221619 
L 396.936986 295.143004 
L 398.048817 294.985774 
L 399.160648 294.90716 
L 401.940224 294.789237 
L 403.052055 294.710622 
L 404.163885 294.632007 
L 409.167123 294.553393 
L 410.278954 294.43547 
L 412.502615 294.396163 
L 413.058531 294.278241 
L 414.170361 294.199626 
L 414.726276 294.081703 
L 416.394022 294.003088 
L 421.39726 293.727936 
L 422.509091 293.688629 
L 424.176837 293.531399 
L 425.844583 293.492092 
L 427.512329 293.413477 
L 430.291905 293.295555 
L 438.07472 293.21694 
L 441.966127 293.020402 
L 446.41345 292.941788 
L 448.637111 292.863173 
L 450.860772 292.823865 
L 451.972603 292.705943 
L 454.196264 292.627328 
L 459.755417 292.312869 
L 463.090909 292.273561 
L 464.758655 292.116331 
L 466.426401 292.077024 
L 470.317808 291.998409 
L 472.541469 291.919794 
L 479.212453 291.841179 
L 481.99203 291.723257 
L 485.327522 291.644642 
L 486.995268 291.448105 
L 490.33076 291.408797 
L 491.998506 291.251568 
L 494.222167 291.172953 
L 500.893151 291.094338 
L 503.672727 290.976416 
L 513.123288 290.937108 
L 514.235118 290.858493 
L 515.902864 290.819186 
L 523.129763 290.740571 
L 524.241594 290.661956 
L 530.356663 290.583341 
L 532.580324 290.504726 
L 539.251308 290.465419 
L 540.363138 290.386804 
L 548.701868 290.347496 
L 550.369614 290.190267 
L 564.267497 290.111652 
L 565.935243 290.072344 
L 580.944956 289.99373 
L 583.168618 289.915115 
L 592.619178 289.8365 
L 593.731009 289.757885 
L 596.510585 289.67927 
L 598.178331 289.52204 
L 600.957908 289.443425 
L 603.181569 289.36481 
L 606.517061 289.286196 
L 608.184807 289.246888 
L 610.408468 289.168273 
L 612.076214 289.128966 
L 614.855791 289.050351 
L 615.967621 288.971736 
L 619.303113 288.893121 
L 622.08269 288.775199 
L 623.194521 288.735891 
L 624.306351 288.657277 
L 625.974097 288.617969 
L 628.197758 288.539354 
L 630.42142 288.460739 
L 637.648319 288.382124 
L 639.87198 288.30351 
L 644.319303 288.224895 
L 648.21071 288.028358 
L 653.213948 287.949743 
L 654.325778 287.871128 
L 664.332254 287.792513 
L 666 287.753205 
L 668.779577 287.713898 
L 671.003238 287.478053 
L 672.670984 287.438746 
L 676.006476 287.360131 
L 681.565629 287.045672 
L 684.345205 286.967057 
L 686.568867 286.888442 
L 692.683935 286.809827 
L 695.463512 286.495367 
L 697.687173 286.416752 
L 701.57858 286.338138 
L 702.134496 286.220215 
L 707.137733 286.1416 
L 709.91731 286.023678 
L 717.144209 285.984371 
L 717.700125 285.866448 
L 722.147447 285.787833 
L 723.815193 285.748526 
L 726.59477 285.669911 
L 728.262516 285.630604 
L 737.713076 285.551989 
L 740.492653 285.434066 
L 747.163636 285.355452 
L 747.163636 285.355452 
" clip-path="url(#pb5afe9eb5e)" style="fill: none; stroke: #ff7f0e; stroke-width: 1.5; stroke-linecap: square"/>
   </g>
   <g id="patch_3">
    <path d="M 108 320.4 
L 108 43.2 
" style="fill: none; stroke: #a9a9a9; stroke-width: 0.8; stroke-linejoin: miter; stroke-linecap: square"/>
   </g>
   <g id="patch_4">
    <path d="M 777.6 320.4 
L 777.6 43.2 
" style="fill: none"/>
   </g>
   <g id="patch_5">
    <path d="M 108 320.4 
L 777.6 320.4 
" style="fill: none; stroke: #a9a9a9; stroke-width: 0.8; stroke-linejoin: miter; stroke-linecap: square"/>
   </g>
   <g id="patch_6">
    <path d="M 108 43.2 
L 777.6 43.2 
" style="fill: none"/>
   </g>
   <g id="text_20">
    <!-- get_subscribe history -->
    <g style="fill: #a9a9a9" transform="translate(378.6075 37.2) scale(0.12 -0.12)">
     <defs>
      <path id="DejaVuSans-67" d="M 2906 1791 
Q 2906 2416 2648 2759 
Q 2391 3103 1925 3103 
Q 1463 3103 1205 2759 
Q 947 2416 947 1791 
Q 947 1169 1205 825 
Q 1463 481 1925 481 
Q 2391 481 2648 825 
Q 2906 1169 2906 1791 
z
M 3481 434 
Q 3481 -459 3084 -895 
Q 2688 -1331 1869 -1331 
Q 1566 -1331 1297 -1286 
Q 1028 -1241 775 -1147 
L 775 -588 
Q 1028 -725 1275 -790 
Q 1522 -856 1778 -856 
Q 2344 -856 2625 -561 
Q 2906 -266 2906 331 
L 2906 616 
Q 2728 306 2450 153 
Q 2172 0 1784 0 
Q 1141 0 747 490 
Q 353 981 353 1791 
Q 353 2603 747 3093 
Q 1141 3584 1784 3584 
Q 2172 3584 2450 3431 
Q 2728 3278 2906 2969 
L 2906 3500 
L 3481 3500 
L 3481 434 
z
" transform="scale(0.015625)"/>
      <path id="DejaVuSans-65" d="M 3597 1894 
L 3597 1613 
L 953 1613 
Q 991 1019 1311 708 
Q 1631 397 2203 397 
Q 2534 397 2845 478 
Q 3156 559 3463 722 
L 3463 178 
Q 3153 47 2828 -22 
Q 2503 -91 2169 -91 
Q 1331 -91 842 396 
Q 353 884 353 1716 
Q 353 2575 817 3079 
Q 1281 3584 2069 3584 
Q 2775 3584 3186 3129 
Q 3597 2675 3597 1894 
z
M 3022 2063 
Q 3016 2534 2758 2815 
Q 2500 3097 2075 3097 
Q 1594 3097 1305 2825 
Q 1016 2553 972 2059 
L 3022 2063 
z
" transform="scale(0.015625)"/>
      <path id="DejaVuSans-74" d="M 1172 4494 
L 1172 3500 
L 2356 3500 
L 2356 3053 
L 1172 3053 
L 1172 1153 
Q 1172 725 1289 603 
Q 1406 481 1766 481 
L 2356 481 
L 2356 0 
L 1766 0 
Q 1100 0 847 248 
Q 594 497 594 1153 
L 594 3053 
L 172 3053 
L 172 3500 
L 594 3500 
L 594 4494 
L 1172 4494 
z
" transform="scale(0.015625)"/>
      <path id="DejaVuSans-5f" d="M 3263 -1063 
L 3263 -1509 
L -63 -1509 
L -63 -1063 
L 3263 -1063 
z
" transform="scale(0.015625)"/>
      <path id="DejaVuSans-73" d="M 2834 3397 
L 2834 2853 
Q 2591 2978 2328 3040 
Q 2066 3103 1784 3103 
Q 1356 3103 1142 2972 
Q 928 2841 928 2578 
Q 928 2378 1081 2264 
Q 1234 2150 1697 2047 
L 1894 2003 
Q 2506 1872 2764 1633 
Q 3022 1394 3022 966 
Q 3022 478 2636 193 
Q 2250 -91 1575 -91 
Q 1294 -91 989 -36 
Q 684 19 347 128 
L 347 722 
Q 666 556 975 473 
Q 1284 391 1588 391 
Q 1994 391 2212 530 
Q 2431 669 2431 922 
Q 2431 1156 2273 1281 
Q 2116 1406 1581 1522 
L 1381 1569 
Q 847 1681 609 1914 
Q 372 2147 372 2553 
Q 372 3047 722 3315 
Q 1072 3584 1716 3584 
Q 2034 3584 2315 3537 
Q 2597 3491 2834 3397 
z
" transform="scale(0.015625)"/>
      <path id="DejaVuSans-75" d="M 544 1381 
L 544 3500 
L 1119 3500 
L 1119 1403 
Q 1119 906 1312 657 
Q 1506 409 1894 409 
Q 2359 409 2629 706 
Q 2900 1003 2900 1516 
L 2900 3500 
L 3475 3500 
L 3475 0 
L 2900 0 
L 2900 538 
Q 2691 219 2414 64 
Q 2138 -91 1772 -91 
Q 1169 -91 856 284 
Q 544 659 544 1381 
z
M 1991 3584 
L 1991 3584 
z
" transform="scale(0.015625)"/>
      <path id="DejaVuSans-62" d="M 3116 1747 
Q 3116 2381 2855 2742 
Q 2594 3103 2138 3103 
Q 1681 3103 1420 2742 
Q 1159 2381 1159 1747 
Q 1159 1113 1420 752 
Q 1681 391 2138 391 
Q 2594 391 2855 752 
Q 3116 1113 3116 1747 
z
M 1159 2969 
Q 1341 3281 1617 3432 
Q 1894 3584 2278 3584 
Q 2916 3584 3314 3078 
Q 3713 2572 3713 1747 
Q 3713 922 3314 415 
Q 2916 -91 2278 -91 
Q 1894 -91 1617 61 
Q 1341 213 1159 525 
L 1159 0 
L 581 0 
L 581 4863 
L 1159 4863 
L 1159 2969 
z
" transform="scale(0.015625)"/>
      <path id="DejaVuSans-63" d="M 3122 3366 
L 3122 2828 
Q 2878 2963 2633 3030 
Q 2388 3097 2138 3097 
Q 1578 3097 1268 2742 
Q 959 2388 959 1747 
Q 959 1106 1268 751 
Q 1578 397 2138 397 
Q 2388 397 2633 464 
Q 2878 531 3122 666 
L 3122 134 
Q 2881 22 2623 -34 
Q 2366 -91 2075 -91 
Q 1284 -91 818 406 
Q 353 903 353 1747 
Q 353 2603 823 3093 
Q 1294 3584 2113 3584 
Q 2378 3584 2631 3529 
Q 2884 3475 3122 3366 
z
" transform="scale(0.015625)"/>
      <path id="DejaVuSans-72" d="M 2631 2963 
Q 2534 3019 2420 3045 
Q 2306 3072 2169 3072 
Q 1681 3072 1420 2755 
Q 1159 2438 1159 1844 
L 1159 0 
L 581 0 
L 581 3500 
L 1159 3500 
L 1159 2956 
Q 1341 3275 1631 3429 
Q 1922 3584 2338 3584 
Q 2397 3584 2469 3576 
Q 2541 3569 2628 3553 
L 2631 2963 
z
" transform="scale(0.015625)"/>
      <path id="DejaVuSans-69" d="M 603 3500 
L 1178 3500 
L 1178 0 
L 603 0 
L 603 3500 
z
M 603 4863 
L 1178 4863 
L 1178 4134 
L 603 4134 
L 603 4863 
z
" transform="scale(0.015625)"/>
      <path id="DejaVuSans-20" transform="scale(0.015625)"/>
      <path id="DejaVuSans-68" d="M 3513 2113 
L 3513 0 
L 2938 0 
L 2938 2094 
Q 2938 2591 2744 2837 
Q 2550 3084 2163 3084 
Q 1697 3084 1428 2787 
Q 1159 2491 1159 1978 
L 1159 0 
L 581 0 
L 581 4863 
L 1159 4863 
L 1159 2956 
Q 1366 3272 1645 3428 
Q 1925 3584 2291 3584 
Q 2894 3584 3203 3211 
Q 3513 2838 3513 2113 
z
" transform="scale(0.015625)"/>
      <path id="DejaVuSans-6f" d="M 1959 3097 
Q 1497 3097 1228 2736 
Q 959 2375 959 1747 
Q 959 1119 1226 758 
Q 1494 397 1959 397 
Q 2419 397 2687 759 
Q 2956 1122 2956 1747 
Q 2956 2369 2687 2733 
Q 2419 3097 1959 3097 
z
M 1959 3584 
Q 2709 3584 3137 3096 
Q 3566 2609 3566 1747 
Q 3566 888 3137 398 
Q 2709 -91 1959 -91 
Q 1206 -91 779 398 
Q 353 888 353 1747 
Q 353 2609 779 3096 
Q 1206 3584 1959 3584 
z
" transform="scale(0.015625)"/>
      <path id="DejaVuSans-79" d="M 2059 -325 
Q 1816 -950 1584 -1140 
Q 1353 -1331 966 -1331 
L 506 -1331 
L 506 -850 
L 844 -850 
Q 1081 -850 1212 -737 
Q 1344 -625 1503 -206 
L 1606 56 
L 191 3500 
L 800 3500 
L 1894 763 
L 2988 3500 
L 3597 3500 
L 2059 -325 
z
" transform="scale(0.015625)"/>
     </defs>
     <use xlink:href="#DejaVuSans-67"/>
     <use xlink:href="#DejaVuSans-65" x="63.476562"/>
     <use xlink:href="#DejaVuSans-74" x="125"/>
     <use xlink:href="#DejaVuSans-5f" x="164.208984"/>
     <use xlink:href="#DejaVuSans-73" x="214.208984"/>
     <use xlink:href="#DejaVuSans-75" x="266.308594"/>
     <use xlink:href="#DejaVuSans-62" x="329.6875"/>
     <use xlink:href="#DejaVuSans-73" x="393.164062"/>
     <use xlink:href="#DejaVuSans-63" x="445.263672"/>
     <use xlink:href="#DejaVuSans-72" x="500.244141"/>
     <use xlink:href="#DejaVuSans-69" x="541.357422"/>
     <use xlink:href="#DejaVuSans-62" x="569.140625"/>
     <use xlink:href="#DejaVuSans-65" x="632.617188"/>
     <use xlink:href="#DejaVuSans-20" x="694.140625"/>
     <use xlink:href="#DejaVuSans-68" x="725.927734"/>
     <use xlink:href="#DejaVuSans-69" x="789.306641"/>
     <use xlink:href="#DejaVuSans-73" x="817.089844"/>
     <use xlink:href="#DejaVuSans-74" x="869.189453"/>
     <use xlink:href="#DejaVuSans-6f" x="908.398438"/>
     <use xlink:href="#DejaVuSans-72" x="969.580078"/>
     <use xlink:href="#DejaVuSans-79" x="1010.693359"/>
    </g>
   </g>
   <g id="legend_1">
    <g id="line2d_41">
     <path d="M 815.08 328.498438 
L 825.08 328.498438 
L 835.08 328.498438 
" style="fill: none; stroke: #1f77b4; stroke-width: 1.5; stroke-linecap: square"/>
    </g>
    <g id="text_21">
     <!-- star -->
     <g style="fill: #a9a9a9" transform="translate(843.08 331.998438) scale(0.1 -0.1)">
      <defs>
       <path id="DejaVuSans-61" d="M 2194 1759 
Q 1497 1759 1228 1600 
Q 959 1441 959 1056 
Q 959 750 1161 570 
Q 1363 391 1709 391 
Q 2188 391 2477 730 
Q 2766 1069 2766 1631 
L 2766 1759 
L 2194 1759 
z
M 3341 1997 
L 3341 0 
L 2766 0 
L 2766 531 
Q 2569 213 2275 61 
Q 1981 -91 1556 -91 
Q 1019 -91 701 211 
Q 384 513 384 1019 
Q 384 1609 779 1909 
Q 1175 2209 1959 2209 
L 2766 2209 
L 2766 2266 
Q 2766 2663 2505 2880 
Q 2244 3097 1772 3097 
Q 1472 3097 1187 3025 
Q 903 2953 641 2809 
L 641 3341 
Q 956 3463 1253 3523 
Q 1550 3584 1831 3584 
Q 2591 3584 2966 3190 
Q 3341 2797 3341 1997 
z
" transform="scale(0.015625)"/>
      </defs>
      <use xlink:href="#DejaVuSans-73"/>
      <use xlink:href="#DejaVuSans-74" x="52.099609"/>
      <use xlink:href="#DejaVuSans-61" x="91.308594"/>
      <use xlink:href="#DejaVuSans-72" x="152.587891"/>
     </g>
    </g>
    <g id="line2d_42">
     <path d="M 815.08 343.176562 
L 825.08 343.176562 
L 835.08 343.176562 
" style="fill: none; stroke: #ff7f0e; stroke-width: 1.5; stroke-linecap: square"/>
    </g>
    <g id="text_22">
     <!-- fork -->
     <g style="fill: #a9a9a9" transform="translate(843.08 346.676562) scale(0.1 -0.1)">
      <defs>
       <path id="DejaVuSans-66" d="M 2375 4863 
L 2375 4384 
L 1825 4384 
Q 1516 4384 1395 4259 
Q 1275 4134 1275 3809 
L 1275 3500 
L 2222 3500 
L 2222 3053 
L 1275 3053 
L 1275 0 
L 697 0 
L 697 3053 
L 147 3053 
L 147 3500 
L 697 3500 
L 697 3744 
Q 697 4328 969 4595 
Q 1241 4863 1831 4863 
L 2375 4863 
z
" transform="scale(0.015625)"/>
       <path id="DejaVuSans-6b" d="M 581 4863 
L 1159 4863 
L 1159 1991 
L 2875 3500 
L 3609 3500 
L 1753 1863 
L 3688 0 
L 2938 0 
L 1159 1709 
L 1159 0 
L 581 0 
L 581 4863 
z
" transform="scale(0.015625)"/>
      </defs>
      <use xlink:href="#DejaVuSans-66"/>
      <use xlink:href="#DejaVuSans-6f" x="35.205078"/>
      <use xlink:href="#DejaVuSans-72" x="96.386719"/>
      <use xlink:href="#DejaVuSans-6b" x="137.5"/>
     </g>
    </g>
   </g>
  </g>
 </g>
 <defs>
  <clipPath id="pb5afe9eb5e">
   <rect x="108" y="43.2" width="669.6" height="277.2"/>
  </clipPath>
 </defs>
</svg>
