<?xml version="1.0" encoding="utf-8" standalone="no"?>
<!DOCTYPE svg PUBLIC "-//W3C//DTD SVG 1.1//EN"
  "http://www.w3.org/Graphics/SVG/1.1/DTD/svg11.dtd">
<svg xmlns:xlink="http://www.w3.org/1999/xlink" width="864pt" height="360pt" viewBox="0 0 864 360" xmlns="http://www.w3.org/2000/svg" version="1.1">
 <metadata>
  <rdf:RDF xmlns:dc="http://purl.org/dc/elements/1.1/" xmlns:cc="http://creativecommons.org/ns#" xmlns:rdf="http://www.w3.org/1999/02/22-rdf-syntax-ns#">
   <cc:Work>
    <dc:type rdf:resource="http://purl.org/dc/dcmitype/StillImage"/>
    <dc:date>2024-07-22T20:05:46.456956</dc:date>
    <dc:format>image/svg+xml</dc:format>
    <dc:creator>
     <cc:Agent>
      <dc:title>Matplotlib v3.9.1, https://matplotlib.org/</dc:title>
     </cc:Agent>
    </dc:creator>
   </cc:Work>
  </rdf:RDF>
 </metadata>
 <defs>
  <style type="text/css">*{stroke-linejoin: round; stroke-linecap: butt}</style>
 </defs>
 <g id="figure_1">
  <g id="patch_1">
   <path d="M 0 360 
L 864 360 
L 864 0 
L 0 0 
L 0 360 
z
" style="fill: none; opacity: 0"/>
  </g>
  <g id="axes_1">
   <g id="patch_2">
    <path d="M 108 320.4 
L 777.6 320.4 
L 777.6 43.2 
L 108 43.2 
L 108 320.4 
z
" style="fill: none; opacity: 0"/>
   </g>
   <g id="matplotlib.axis_1">
    <g id="xtick_1">
     <g id="line2d_1">
      <path d="M 160.136879 320.4 
L 160.136879 43.2 
" clip-path="url(#p0c40005af0)" style="fill: none; stroke-dasharray: 5.12,1.28,0.8,1.28; stroke-dashoffset: 0; stroke: #b0b0b0; stroke-width: 0.8"/>
     </g>
     <g id="line2d_2">
      <defs>
       <path id="mdc7cdeb3dd" d="M 0 0 
L 0 3.5 
" style="stroke: #a9a9a9; stroke-width: 0.8"/>
      </defs>
      <g>
       <use xlink:href="#mdc7cdeb3dd" x="160.136879" y="320.4" style="fill: #a9a9a9; stroke: #a9a9a9; stroke-width: 0.8"/>
      </g>
     </g>
     <g id="text_1">
      <!-- 2021-09 -->
      <g style="fill: #a9a9a9" transform="translate(139.245473 334.998438) scale(0.1 -0.1)">
       <defs>
        <path id="DejaVuSans-32" d="M 1228 531 
L 3431 531 
L 3431 0 
L 469 0 
L 469 531 
Q 828 903 1448 1529 
Q 2069 2156 2228 2338 
Q 2531 2678 2651 2914 
Q 2772 3150 2772 3378 
Q 2772 3750 2511 3984 
Q 2250 4219 1831 4219 
Q 1534 4219 1204 4116 
Q 875 4013 500 3803 
L 500 4441 
Q 881 4594 1212 4672 
Q 1544 4750 1819 4750 
Q 2544 4750 2975 4387 
Q 3406 4025 3406 3419 
Q 3406 3131 3298 2873 
Q 3191 2616 2906 2266 
Q 2828 2175 2409 1742 
Q 1991 1309 1228 531 
z
" transform="scale(0.015625)"/>
        <path id="DejaVuSans-30" d="M 2034 4250 
Q 1547 4250 1301 3770 
Q 1056 3291 1056 2328 
Q 1056 1369 1301 889 
Q 1547 409 2034 409 
Q 2525 409 2770 889 
Q 3016 1369 3016 2328 
Q 3016 3291 2770 3770 
Q 2525 4250 2034 4250 
z
M 2034 4750 
Q 2819 4750 3233 4129 
Q 3647 3509 3647 2328 
Q 3647 1150 3233 529 
Q 2819 -91 2034 -91 
Q 1250 -91 836 529 
Q 422 1150 422 2328 
Q 422 3509 836 4129 
Q 1250 4750 2034 4750 
z
" transform="scale(0.015625)"/>
        <path id="DejaVuSans-31" d="M 794 531 
L 1825 531 
L 1825 4091 
L 703 3866 
L 703 4441 
L 1819 4666 
L 2450 4666 
L 2450 531 
L 3481 531 
L 3481 0 
L 794 0 
L 794 531 
z
" transform="scale(0.015625)"/>
        <path id="DejaVuSans-2d" d="M 313 2009 
L 1997 2009 
L 1997 1497 
L 313 1497 
L 313 2009 
z
" transform="scale(0.015625)"/>
        <path id="DejaVuSans-39" d="M 703 97 
L 703 672 
Q 941 559 1184 500 
Q 1428 441 1663 441 
Q 2288 441 2617 861 
Q 2947 1281 2994 2138 
Q 2813 1869 2534 1725 
Q 2256 1581 1919 1581 
Q 1219 1581 811 2004 
Q 403 2428 403 3163 
Q 403 3881 828 4315 
Q 1253 4750 1959 4750 
Q 2769 4750 3195 4129 
Q 3622 3509 3622 2328 
Q 3622 1225 3098 567 
Q 2575 -91 1691 -91 
Q 1453 -91 1209 -44 
Q 966 3 703 97 
z
M 1959 2075 
Q 2384 2075 2632 2365 
Q 2881 2656 2881 3163 
Q 2881 3666 2632 3958 
Q 2384 4250 1959 4250 
Q 1534 4250 1286 3958 
Q 1038 3666 1038 3163 
Q 1038 2656 1286 2365 
Q 1534 2075 1959 2075 
z
" transform="scale(0.015625)"/>
       </defs>
       <use xlink:href="#DejaVuSans-32"/>
       <use xlink:href="#DejaVuSans-30" x="63.623047"/>
       <use xlink:href="#DejaVuSans-32" x="127.246094"/>
       <use xlink:href="#DejaVuSans-31" x="190.869141"/>
       <use xlink:href="#DejaVuSans-2d" x="254.492188"/>
       <use xlink:href="#DejaVuSans-30" x="290.576172"/>
       <use xlink:href="#DejaVuSans-39" x="354.199219"/>
      </g>
     </g>
    </g>
    <g id="xtick_2">
     <g id="line2d_3">
      <path d="M 228.020542 320.4 
L 228.020542 43.2 
" clip-path="url(#p0c40005af0)" style="fill: none; stroke-dasharray: 5.12,1.28,0.8,1.28; stroke-dashoffset: 0; stroke: #b0b0b0; stroke-width: 0.8"/>
     </g>
     <g id="line2d_4">
      <g>
       <use xlink:href="#mdc7cdeb3dd" x="228.020542" y="320.4" style="fill: #a9a9a9; stroke: #a9a9a9; stroke-width: 0.8"/>
      </g>
     </g>
     <g id="text_2">
      <!-- 2022-01 -->
      <g style="fill: #a9a9a9" transform="translate(207.129136 334.998438) scale(0.1 -0.1)">
       <use xlink:href="#DejaVuSans-32"/>
       <use xlink:href="#DejaVuSans-30" x="63.623047"/>
       <use xlink:href="#DejaVuSans-32" x="127.246094"/>
       <use xlink:href="#DejaVuSans-32" x="190.869141"/>
       <use xlink:href="#DejaVuSans-2d" x="254.492188"/>
       <use xlink:href="#DejaVuSans-30" x="290.576172"/>
       <use xlink:href="#DejaVuSans-31" x="354.199219"/>
      </g>
     </g>
    </g>
    <g id="xtick_3">
     <g id="line2d_5">
      <path d="M 294.791358 320.4 
L 294.791358 43.2 
" clip-path="url(#p0c40005af0)" style="fill: none; stroke-dasharray: 5.12,1.28,0.8,1.28; stroke-dashoffset: 0; stroke: #b0b0b0; stroke-width: 0.8"/>
     </g>
     <g id="line2d_6">
      <g>
       <use xlink:href="#mdc7cdeb3dd" x="294.791358" y="320.4" style="fill: #a9a9a9; stroke: #a9a9a9; stroke-width: 0.8"/>
      </g>
     </g>
     <g id="text_3">
      <!-- 2022-05 -->
      <g style="fill: #a9a9a9" transform="translate(273.899952 334.998438) scale(0.1 -0.1)">
       <defs>
        <path id="DejaVuSans-35" d="M 691 4666 
L 3169 4666 
L 3169 4134 
L 1269 4134 
L 1269 2991 
Q 1406 3038 1543 3061 
Q 1681 3084 1819 3084 
Q 2600 3084 3056 2656 
Q 3513 2228 3513 1497 
Q 3513 744 3044 326 
Q 2575 -91 1722 -91 
Q 1428 -91 1123 -41 
Q 819 9 494 109 
L 494 744 
Q 775 591 1075 516 
Q 1375 441 1709 441 
Q 2250 441 2565 725 
Q 2881 1009 2881 1497 
Q 2881 1984 2565 2268 
Q 2250 2553 1709 2553 
Q 1456 2553 1204 2497 
Q 953 2441 691 2322 
L 691 4666 
z
" transform="scale(0.015625)"/>
       </defs>
       <use xlink:href="#DejaVuSans-32"/>
       <use xlink:href="#DejaVuSans-30" x="63.623047"/>
       <use xlink:href="#DejaVuSans-32" x="127.246094"/>
       <use xlink:href="#DejaVuSans-32" x="190.869141"/>
       <use xlink:href="#DejaVuSans-2d" x="254.492188"/>
       <use xlink:href="#DejaVuSans-30" x="290.576172"/>
       <use xlink:href="#DejaVuSans-35" x="354.199219"/>
      </g>
     </g>
    </g>
    <g id="xtick_4">
     <g id="line2d_7">
      <path d="M 363.231444 320.4 
L 363.231444 43.2 
" clip-path="url(#p0c40005af0)" style="fill: none; stroke-dasharray: 5.12,1.28,0.8,1.28; stroke-dashoffset: 0; stroke: #b0b0b0; stroke-width: 0.8"/>
     </g>
     <g id="line2d_8">
      <g>
       <use xlink:href="#mdc7cdeb3dd" x="363.231444" y="320.4" style="fill: #a9a9a9; stroke: #a9a9a9; stroke-width: 0.8"/>
      </g>
     </g>
     <g id="text_4">
      <!-- 2022-09 -->
      <g style="fill: #a9a9a9" transform="translate(342.340038 334.998438) scale(0.1 -0.1)">
       <use xlink:href="#DejaVuSans-32"/>
       <use xlink:href="#DejaVuSans-30" x="63.623047"/>
       <use xlink:href="#DejaVuSans-32" x="127.246094"/>
       <use xlink:href="#DejaVuSans-32" x="190.869141"/>
       <use xlink:href="#DejaVuSans-2d" x="254.492188"/>
       <use xlink:href="#DejaVuSans-30" x="290.576172"/>
       <use xlink:href="#DejaVuSans-39" x="354.199219"/>
      </g>
     </g>
    </g>
    <g id="xtick_5">
     <g id="line2d_9">
      <path d="M 431.115107 320.4 
L 431.115107 43.2 
" clip-path="url(#p0c40005af0)" style="fill: none; stroke-dasharray: 5.12,1.28,0.8,1.28; stroke-dashoffset: 0; stroke: #b0b0b0; stroke-width: 0.8"/>
     </g>
     <g id="line2d_10">
      <g>
       <use xlink:href="#mdc7cdeb3dd" x="431.115107" y="320.4" style="fill: #a9a9a9; stroke: #a9a9a9; stroke-width: 0.8"/>
      </g>
     </g>
     <g id="text_5">
      <!-- 2023-01 -->
      <g style="fill: #a9a9a9" transform="translate(410.223701 334.998438) scale(0.1 -0.1)">
       <defs>
        <path id="DejaVuSans-33" d="M 2597 2516 
Q 3050 2419 3304 2112 
Q 3559 1806 3559 1356 
Q 3559 666 3084 287 
Q 2609 -91 1734 -91 
Q 1441 -91 1130 -33 
Q 819 25 488 141 
L 488 750 
Q 750 597 1062 519 
Q 1375 441 1716 441 
Q 2309 441 2620 675 
Q 2931 909 2931 1356 
Q 2931 1769 2642 2001 
Q 2353 2234 1838 2234 
L 1294 2234 
L 1294 2753 
L 1863 2753 
Q 2328 2753 2575 2939 
Q 2822 3125 2822 3475 
Q 2822 3834 2567 4026 
Q 2313 4219 1838 4219 
Q 1578 4219 1281 4162 
Q 984 4106 628 3988 
L 628 4550 
Q 988 4650 1302 4700 
Q 1616 4750 1894 4750 
Q 2613 4750 3031 4423 
Q 3450 4097 3450 3541 
Q 3450 3153 3228 2886 
Q 3006 2619 2597 2516 
z
" transform="scale(0.015625)"/>
       </defs>
       <use xlink:href="#DejaVuSans-32"/>
       <use xlink:href="#DejaVuSans-30" x="63.623047"/>
       <use xlink:href="#DejaVuSans-32" x="127.246094"/>
       <use xlink:href="#DejaVuSans-33" x="190.869141"/>
       <use xlink:href="#DejaVuSans-2d" x="254.492188"/>
       <use xlink:href="#DejaVuSans-30" x="290.576172"/>
       <use xlink:href="#DejaVuSans-31" x="354.199219"/>
      </g>
     </g>
    </g>
    <g id="xtick_6">
     <g id="line2d_11">
      <path d="M 497.885923 320.4 
L 497.885923 43.2 
" clip-path="url(#p0c40005af0)" style="fill: none; stroke-dasharray: 5.12,1.28,0.8,1.28; stroke-dashoffset: 0; stroke: #b0b0b0; stroke-width: 0.8"/>
     </g>
     <g id="line2d_12">
      <g>
       <use xlink:href="#mdc7cdeb3dd" x="497.885923" y="320.4" style="fill: #a9a9a9; stroke: #a9a9a9; stroke-width: 0.8"/>
      </g>
     </g>
     <g id="text_6">
      <!-- 2023-05 -->
      <g style="fill: #a9a9a9" transform="translate(476.994517 334.998438) scale(0.1 -0.1)">
       <use xlink:href="#DejaVuSans-32"/>
       <use xlink:href="#DejaVuSans-30" x="63.623047"/>
       <use xlink:href="#DejaVuSans-32" x="127.246094"/>
       <use xlink:href="#DejaVuSans-33" x="190.869141"/>
       <use xlink:href="#DejaVuSans-2d" x="254.492188"/>
       <use xlink:href="#DejaVuSans-30" x="290.576172"/>
       <use xlink:href="#DejaVuSans-35" x="354.199219"/>
      </g>
     </g>
    </g>
    <g id="xtick_7">
     <g id="line2d_13">
      <path d="M 566.32601 320.4 
L 566.32601 43.2 
" clip-path="url(#p0c40005af0)" style="fill: none; stroke-dasharray: 5.12,1.28,0.8,1.28; stroke-dashoffset: 0; stroke: #b0b0b0; stroke-width: 0.8"/>
     </g>
     <g id="line2d_14">
      <g>
       <use xlink:href="#mdc7cdeb3dd" x="566.32601" y="320.4" style="fill: #a9a9a9; stroke: #a9a9a9; stroke-width: 0.8"/>
      </g>
     </g>
     <g id="text_7">
      <!-- 2023-09 -->
      <g style="fill: #a9a9a9" transform="translate(545.434603 334.998438) scale(0.1 -0.1)">
       <use xlink:href="#DejaVuSans-32"/>
       <use xlink:href="#DejaVuSans-30" x="63.623047"/>
       <use xlink:href="#DejaVuSans-32" x="127.246094"/>
       <use xlink:href="#DejaVuSans-33" x="190.869141"/>
       <use xlink:href="#DejaVuSans-2d" x="254.492188"/>
       <use xlink:href="#DejaVuSans-30" x="290.576172"/>
       <use xlink:href="#DejaVuSans-39" x="354.199219"/>
      </g>
     </g>
    </g>
    <g id="xtick_8">
     <g id="line2d_15">
      <path d="M 634.209673 320.4 
L 634.209673 43.2 
" clip-path="url(#p0c40005af0)" style="fill: none; stroke-dasharray: 5.12,1.28,0.8,1.28; stroke-dashoffset: 0; stroke: #b0b0b0; stroke-width: 0.8"/>
     </g>
     <g id="line2d_16">
      <g>
       <use xlink:href="#mdc7cdeb3dd" x="634.209673" y="320.4" style="fill: #a9a9a9; stroke: #a9a9a9; stroke-width: 0.8"/>
      </g>
     </g>
     <g id="text_8">
      <!-- 2024-01 -->
      <g style="fill: #a9a9a9" transform="translate(613.318266 334.998438) scale(0.1 -0.1)">
       <defs>
        <path id="DejaVuSans-34" d="M 2419 4116 
L 825 1625 
L 2419 1625 
L 2419 4116 
z
M 2253 4666 
L 3047 4666 
L 3047 1625 
L 3713 1625 
L 3713 1100 
L 3047 1100 
L 3047 0 
L 2419 0 
L 2419 1100 
L 313 1100 
L 313 1709 
L 2253 4666 
z
" transform="scale(0.015625)"/>
       </defs>
       <use xlink:href="#DejaVuSans-32"/>
       <use xlink:href="#DejaVuSans-30" x="63.623047"/>
       <use xlink:href="#DejaVuSans-32" x="127.246094"/>
       <use xlink:href="#DejaVuSans-34" x="190.869141"/>
       <use xlink:href="#DejaVuSans-2d" x="254.492188"/>
       <use xlink:href="#DejaVuSans-30" x="290.576172"/>
       <use xlink:href="#DejaVuSans-31" x="354.199219"/>
      </g>
     </g>
    </g>
    <g id="xtick_9">
     <g id="line2d_17">
      <path d="M 701.536912 320.4 
L 701.536912 43.2 
" clip-path="url(#p0c40005af0)" style="fill: none; stroke-dasharray: 5.12,1.28,0.8,1.28; stroke-dashoffset: 0; stroke: #b0b0b0; stroke-width: 0.8"/>
     </g>
     <g id="line2d_18">
      <g>
       <use xlink:href="#mdc7cdeb3dd" x="701.536912" y="320.4" style="fill: #a9a9a9; stroke: #a9a9a9; stroke-width: 0.8"/>
      </g>
     </g>
     <g id="text_9">
      <!-- 2024-05 -->
      <g style="fill: #a9a9a9" transform="translate(680.645506 334.998438) scale(0.1 -0.1)">
       <use xlink:href="#DejaVuSans-32"/>
       <use xlink:href="#DejaVuSans-30" x="63.623047"/>
       <use xlink:href="#DejaVuSans-32" x="127.246094"/>
       <use xlink:href="#DejaVuSans-34" x="190.869141"/>
       <use xlink:href="#DejaVuSans-2d" x="254.492188"/>
       <use xlink:href="#DejaVuSans-30" x="290.576172"/>
       <use xlink:href="#DejaVuSans-35" x="354.199219"/>
      </g>
     </g>
    </g>
    <g id="xtick_10">
     <g id="line2d_19">
      <path d="M 769.976999 320.4 
L 769.976999 43.2 
" clip-path="url(#p0c40005af0)" style="fill: none; stroke-dasharray: 5.12,1.28,0.8,1.28; stroke-dashoffset: 0; stroke: #b0b0b0; stroke-width: 0.8"/>
     </g>
     <g id="line2d_20">
      <g>
       <use xlink:href="#mdc7cdeb3dd" x="769.976999" y="320.4" style="fill: #a9a9a9; stroke: #a9a9a9; stroke-width: 0.8"/>
      </g>
     </g>
     <g id="text_10">
      <!-- 2024-09 -->
      <g style="fill: #a9a9a9" transform="translate(749.085592 334.998438) scale(0.1 -0.1)">
       <use xlink:href="#DejaVuSans-32"/>
       <use xlink:href="#DejaVuSans-30" x="63.623047"/>
       <use xlink:href="#DejaVuSans-32" x="127.246094"/>
       <use xlink:href="#DejaVuSans-34" x="190.869141"/>
       <use xlink:href="#DejaVuSans-2d" x="254.492188"/>
       <use xlink:href="#DejaVuSans-30" x="290.576172"/>
       <use xlink:href="#DejaVuSans-39" x="354.199219"/>
      </g>
     </g>
    </g>
   </g>
   <g id="matplotlib.axis_2">
    <g id="ytick_1">
     <g id="line2d_21">
      <path d="M 108 307.839332 
L 777.6 307.839332 
" clip-path="url(#p0c40005af0)" style="fill: none; stroke-dasharray: 5.12,1.28,0.8,1.28; stroke-dashoffset: 0; stroke: #b0b0b0; stroke-width: 0.8"/>
     </g>
     <g id="line2d_22">
      <defs>
       <path id="m9f6b59fc3a" d="M 0 0 
L -3.5 0 
" style="stroke: #a9a9a9; stroke-width: 0.8"/>
      </defs>
      <g>
       <use xlink:href="#m9f6b59fc3a" x="108" y="307.839332" style="fill: #a9a9a9; stroke: #a9a9a9; stroke-width: 0.8"/>
      </g>
     </g>
     <g id="text_11">
      <!-- 0 -->
      <g style="fill: #a9a9a9" transform="translate(94.6375 311.638551) scale(0.1 -0.1)">
       <use xlink:href="#DejaVuSans-30"/>
      </g>
     </g>
    </g>
    <g id="ytick_2">
     <g id="line2d_23">
      <path d="M 108 276.373747 
L 777.6 276.373747 
" clip-path="url(#p0c40005af0)" style="fill: none; stroke-dasharray: 5.12,1.28,0.8,1.28; stroke-dashoffset: 0; stroke: #b0b0b0; stroke-width: 0.8"/>
     </g>
     <g id="line2d_24">
      <g>
       <use xlink:href="#m9f6b59fc3a" x="108" y="276.373747" style="fill: #a9a9a9; stroke: #a9a9a9; stroke-width: 0.8"/>
      </g>
     </g>
     <g id="text_12">
      <!-- 800 -->
      <g style="fill: #a9a9a9" transform="translate(81.9125 280.172966) scale(0.1 -0.1)">
       <defs>
        <path id="DejaVuSans-38" d="M 2034 2216 
Q 1584 2216 1326 1975 
Q 1069 1734 1069 1313 
Q 1069 891 1326 650 
Q 1584 409 2034 409 
Q 2484 409 2743 651 
Q 3003 894 3003 1313 
Q 3003 1734 2745 1975 
Q 2488 2216 2034 2216 
z
M 1403 2484 
Q 997 2584 770 2862 
Q 544 3141 544 3541 
Q 544 4100 942 4425 
Q 1341 4750 2034 4750 
Q 2731 4750 3128 4425 
Q 3525 4100 3525 3541 
Q 3525 3141 3298 2862 
Q 3072 2584 2669 2484 
Q 3125 2378 3379 2068 
Q 3634 1759 3634 1313 
Q 3634 634 3220 271 
Q 2806 -91 2034 -91 
Q 1263 -91 848 271 
Q 434 634 434 1313 
Q 434 1759 690 2068 
Q 947 2378 1403 2484 
z
M 1172 3481 
Q 1172 3119 1398 2916 
Q 1625 2713 2034 2713 
Q 2441 2713 2670 2916 
Q 2900 3119 2900 3481 
Q 2900 3844 2670 4047 
Q 2441 4250 2034 4250 
Q 1625 4250 1398 4047 
Q 1172 3844 1172 3481 
z
" transform="scale(0.015625)"/>
       </defs>
       <use xlink:href="#DejaVuSans-38"/>
       <use xlink:href="#DejaVuSans-30" x="63.623047"/>
       <use xlink:href="#DejaVuSans-30" x="127.246094"/>
      </g>
     </g>
    </g>
    <g id="ytick_3">
     <g id="line2d_25">
      <path d="M 108 244.908163 
L 777.6 244.908163 
" clip-path="url(#p0c40005af0)" style="fill: none; stroke-dasharray: 5.12,1.28,0.8,1.28; stroke-dashoffset: 0; stroke: #b0b0b0; stroke-width: 0.8"/>
     </g>
     <g id="line2d_26">
      <g>
       <use xlink:href="#m9f6b59fc3a" x="108" y="244.908163" style="fill: #a9a9a9; stroke: #a9a9a9; stroke-width: 0.8"/>
      </g>
     </g>
     <g id="text_13">
      <!-- 1600 -->
      <g style="fill: #a9a9a9" transform="translate(75.55 248.707382) scale(0.1 -0.1)">
       <defs>
        <path id="DejaVuSans-36" d="M 2113 2584 
Q 1688 2584 1439 2293 
Q 1191 2003 1191 1497 
Q 1191 994 1439 701 
Q 1688 409 2113 409 
Q 2538 409 2786 701 
Q 3034 994 3034 1497 
Q 3034 2003 2786 2293 
Q 2538 2584 2113 2584 
z
M 3366 4563 
L 3366 3988 
Q 3128 4100 2886 4159 
Q 2644 4219 2406 4219 
Q 1781 4219 1451 3797 
Q 1122 3375 1075 2522 
Q 1259 2794 1537 2939 
Q 1816 3084 2150 3084 
Q 2853 3084 3261 2657 
Q 3669 2231 3669 1497 
Q 3669 778 3244 343 
Q 2819 -91 2113 -91 
Q 1303 -91 875 529 
Q 447 1150 447 2328 
Q 447 3434 972 4092 
Q 1497 4750 2381 4750 
Q 2619 4750 2861 4703 
Q 3103 4656 3366 4563 
z
" transform="scale(0.015625)"/>
       </defs>
       <use xlink:href="#DejaVuSans-31"/>
       <use xlink:href="#DejaVuSans-36" x="63.623047"/>
       <use xlink:href="#DejaVuSans-30" x="127.246094"/>
       <use xlink:href="#DejaVuSans-30" x="190.869141"/>
      </g>
     </g>
    </g>
    <g id="ytick_4">
     <g id="line2d_27">
      <path d="M 108 213.442578 
L 777.6 213.442578 
" clip-path="url(#p0c40005af0)" style="fill: none; stroke-dasharray: 5.12,1.28,0.8,1.28; stroke-dashoffset: 0; stroke: #b0b0b0; stroke-width: 0.8"/>
     </g>
     <g id="line2d_28">
      <g>
       <use xlink:href="#m9f6b59fc3a" x="108" y="213.442578" style="fill: #a9a9a9; stroke: #a9a9a9; stroke-width: 0.8"/>
      </g>
     </g>
     <g id="text_14">
      <!-- 2400 -->
      <g style="fill: #a9a9a9" transform="translate(75.55 217.241797) scale(0.1 -0.1)">
       <use xlink:href="#DejaVuSans-32"/>
       <use xlink:href="#DejaVuSans-34" x="63.623047"/>
       <use xlink:href="#DejaVuSans-30" x="127.246094"/>
       <use xlink:href="#DejaVuSans-30" x="190.869141"/>
      </g>
     </g>
    </g>
    <g id="ytick_5">
     <g id="line2d_29">
      <path d="M 108 181.976994 
L 777.6 181.976994 
" clip-path="url(#p0c40005af0)" style="fill: none; stroke-dasharray: 5.12,1.28,0.8,1.28; stroke-dashoffset: 0; stroke: #b0b0b0; stroke-width: 0.8"/>
     </g>
     <g id="line2d_30">
      <g>
       <use xlink:href="#m9f6b59fc3a" x="108" y="181.976994" style="fill: #a9a9a9; stroke: #a9a9a9; stroke-width: 0.8"/>
      </g>
     </g>
     <g id="text_15">
      <!-- 3200 -->
      <g style="fill: #a9a9a9" transform="translate(75.55 185.776213) scale(0.1 -0.1)">
       <use xlink:href="#DejaVuSans-33"/>
       <use xlink:href="#DejaVuSans-32" x="63.623047"/>
       <use xlink:href="#DejaVuSans-30" x="127.246094"/>
       <use xlink:href="#DejaVuSans-30" x="190.869141"/>
      </g>
     </g>
    </g>
    <g id="ytick_6">
     <g id="line2d_31">
      <path d="M 108 150.511409 
L 777.6 150.511409 
" clip-path="url(#p0c40005af0)" style="fill: none; stroke-dasharray: 5.12,1.28,0.8,1.28; stroke-dashoffset: 0; stroke: #b0b0b0; stroke-width: 0.8"/>
     </g>
     <g id="line2d_32">
      <g>
       <use xlink:href="#m9f6b59fc3a" x="108" y="150.511409" style="fill: #a9a9a9; stroke: #a9a9a9; stroke-width: 0.8"/>
      </g>
     </g>
     <g id="text_16">
      <!-- 4000 -->
      <g style="fill: #a9a9a9" transform="translate(75.55 154.310628) scale(0.1 -0.1)">
       <use xlink:href="#DejaVuSans-34"/>
       <use xlink:href="#DejaVuSans-30" x="63.623047"/>
       <use xlink:href="#DejaVuSans-30" x="127.246094"/>
       <use xlink:href="#DejaVuSans-30" x="190.869141"/>
      </g>
     </g>
    </g>
    <g id="ytick_7">
     <g id="line2d_33">
      <path d="M 108 119.045825 
L 777.6 119.045825 
" clip-path="url(#p0c40005af0)" style="fill: none; stroke-dasharray: 5.12,1.28,0.8,1.28; stroke-dashoffset: 0; stroke: #b0b0b0; stroke-width: 0.8"/>
     </g>
     <g id="line2d_34">
      <g>
       <use xlink:href="#m9f6b59fc3a" x="108" y="119.045825" style="fill: #a9a9a9; stroke: #a9a9a9; stroke-width: 0.8"/>
      </g>
     </g>
     <g id="text_17">
      <!-- 4800 -->
      <g style="fill: #a9a9a9" transform="translate(75.55 122.845044) scale(0.1 -0.1)">
       <use xlink:href="#DejaVuSans-34"/>
       <use xlink:href="#DejaVuSans-38" x="63.623047"/>
       <use xlink:href="#DejaVuSans-30" x="127.246094"/>
       <use xlink:href="#DejaVuSans-30" x="190.869141"/>
      </g>
     </g>
    </g>
    <g id="ytick_8">
     <g id="line2d_35">
      <path d="M 108 87.58024 
L 777.6 87.58024 
" clip-path="url(#p0c40005af0)" style="fill: none; stroke-dasharray: 5.12,1.28,0.8,1.28; stroke-dashoffset: 0; stroke: #b0b0b0; stroke-width: 0.8"/>
     </g>
     <g id="line2d_36">
      <g>
       <use xlink:href="#m9f6b59fc3a" x="108" y="87.58024" style="fill: #a9a9a9; stroke: #a9a9a9; stroke-width: 0.8"/>
      </g>
     </g>
     <g id="text_18">
      <!-- 5600 -->
      <g style="fill: #a9a9a9" transform="translate(75.55 91.379459) scale(0.1 -0.1)">
       <use xlink:href="#DejaVuSans-35"/>
       <use xlink:href="#DejaVuSans-36" x="63.623047"/>
       <use xlink:href="#DejaVuSans-30" x="127.246094"/>
       <use xlink:href="#DejaVuSans-30" x="190.869141"/>
      </g>
     </g>
    </g>
    <g id="ytick_9">
     <g id="line2d_37">
      <path d="M 108 56.114656 
L 777.6 56.114656 
" clip-path="url(#p0c40005af0)" style="fill: none; stroke-dasharray: 5.12,1.28,0.8,1.28; stroke-dashoffset: 0; stroke: #b0b0b0; stroke-width: 0.8"/>
     </g>
     <g id="line2d_38">
      <g>
       <use xlink:href="#m9f6b59fc3a" x="108" y="56.114656" style="fill: #a9a9a9; stroke: #a9a9a9; stroke-width: 0.8"/>
      </g>
     </g>
     <g id="text_19">
      <!-- 6400 -->
      <g style="fill: #a9a9a9" transform="translate(75.55 59.913875) scale(0.1 -0.1)">
       <use xlink:href="#DejaVuSans-36"/>
       <use xlink:href="#DejaVuSans-34" x="63.623047"/>
       <use xlink:href="#DejaVuSans-30" x="127.246094"/>
       <use xlink:href="#DejaVuSans-30" x="190.869141"/>
      </g>
     </g>
    </g>
   </g>
   <g id="line2d_39">
    <path d="M 138.436364 307.721336 
L 141.774904 307.446012 
L 142.331328 307.21002 
L 144.000598 307.052692 
L 147.339139 306.384049 
L 150.67768 306.108725 
L 151.790527 305.676073 
L 152.34695 304.968097 
L 152.903374 304.574778 
L 153.459797 303.355486 
L 154.016221 303.276822 
L 154.572644 302.84417 
L 155.685491 302.293523 
L 157.911185 300.562916 
L 160.136879 299.500952 
L 161.806149 298.753644 
L 162.362573 297.888341 
L 163.47542 297.101701 
L 164.031843 296.865709 
L 169.596078 296.07907 
L 170.152501 295.803746 
L 174.047466 295.48909 
L 175.716736 295.056438 
L 180.724547 294.387795 
L 181.280971 294.073139 
L 181.837394 293.994475 
L 182.950241 293.640487 
L 186.845205 293.011175 
L 187.958052 292.696519 
L 189.627323 292.539192 
L 190.74017 292.421196 
L 191.296593 292.263868 
L 191.853016 292.224536 
L 193.522287 291.71322 
L 194.635134 291.634556 
L 195.747981 291.477228 
L 196.860828 291.241236 
L 197.417251 291.083908 
L 197.973675 290.336601 
L 199.642945 289.707289 
L 201.312215 289.274637 
L 201.868639 288.999313 
L 202.425062 288.959981 
L 205.20718 288.173342 
L 206.320027 288.094678 
L 206.87645 288.016014 
L 208.54572 287.504698 
L 210.771414 286.95405 
L 211.327838 286.718058 
L 211.884261 286.639394 
L 212.440685 286.364071 
L 218.004919 285.538099 
L 220.787037 284.751459 
L 221.34346 284.397472 
L 223.569154 283.807492 
L 225.794848 282.666864 
L 227.464118 282.273545 
L 228.020542 282.194881 
L 228.576965 281.919557 
L 229.689812 281.722897 
L 230.802659 281.211581 
L 233.584776 280.503605 
L 235.254047 280.070954 
L 236.923317 279.480974 
L 237.479741 279.40231 
L 238.592588 278.969658 
L 239.705435 278.890994 
L 240.818282 278.497674 
L 243.600399 278.065023 
L 244.156822 277.868363 
L 245.269669 277.829031 
L 247.495363 277.553707 
L 248.60821 277.003059 
L 255.285292 274.053161 
L 255.841715 273.463181 
L 256.954562 271.811238 
L 257.510986 271.65391 
L 258.067409 271.65391 
L 259.180256 270.827938 
L 259.736679 270.67061 
L 260.293103 270.395286 
L 260.849526 270.27729 
L 261.40595 269.765975 
L 261.962373 269.608647 
L 263.631644 268.822007 
L 264.744491 267.248728 
L 265.300914 266.89474 
L 265.857338 265.950773 
L 266.413761 265.360793 
L 269.752302 263.630186 
L 270.865149 262.764882 
L 271.421572 262.410894 
L 271.977996 261.584923 
L 272.534419 260.365631 
L 273.090843 259.53966 
L 273.647266 259.107008 
L 274.20369 258.871016 
L 276.429383 256.904417 
L 277.54223 255.999781 
L 278.098654 255.527798 
L 278.655077 254.78049 
L 279.767924 253.797191 
L 281.993618 252.341907 
L 282.550042 251.869924 
L 283.106465 251.751928 
L 284.219312 251.161948 
L 286.445006 250.02132 
L 287.557853 248.959357 
L 288.114276 248.290713 
L 289.227123 247.504074 
L 289.783547 247.346746 
L 290.33997 247.071422 
L 291.452817 246.324114 
L 292.00924 246.009458 
L 292.565664 245.930794 
L 296.460628 243.531544 
L 298.686322 242.351584 
L 299.242746 241.840268 
L 301.468439 241.132293 
L 302.024863 240.738973 
L 302.581286 240.620977 
L 304.80698 239.795005 
L 307.589098 238.89037 
L 308.145521 238.772374 
L 309.258368 237.789074 
L 310.927638 237.002435 
L 312.040485 236.333791 
L 313.153332 236.019135 
L 313.709756 235.665147 
L 314.266179 235.50782 
L 315.93545 234.445856 
L 318.717567 233.777212 
L 320.386837 232.793913 
L 320.943261 232.715249 
L 321.499684 232.518589 
L 322.612531 232.282597 
L 324.281802 231.023974 
L 325.951072 230.630654 
L 326.507495 230.433994 
L 327.063919 230.001342 
L 330.40246 228.900047 
L 330.958883 228.860715 
L 331.515307 228.703387 
L 332.628154 228.231403 
L 336.523118 226.854784 
L 337.635965 226.697456 
L 338.192388 226.540128 
L 338.748812 226.264804 
L 339.305235 226.146808 
L 342.087353 224.848853 
L 344.313046 223.668893 
L 348.764434 221.898954 
L 349.320858 221.82029 
L 350.433705 221.151647 
L 350.990128 221.072983 
L 353.215822 220.168347 
L 355.441516 219.814359 
L 356.554363 219.263712 
L 357.110786 218.791728 
L 357.66721 217.808428 
L 359.33648 217.493772 
L 361.562174 216.313813 
L 362.118597 216.195817 
L 366.569985 214.111222 
L 368.239255 213.757234 
L 369.352102 213.206587 
L 369.908526 212.970595 
L 370.464949 212.891931 
L 372.690643 211.908631 
L 374.359914 210.886 
L 374.916337 210.807336 
L 375.472761 210.610676 
L 376.029184 210.571344 
L 378.254878 209.942032 
L 378.811301 209.9027 
L 379.367725 209.470048 
L 380.480572 209.076729 
L 382.149842 208.526081 
L 382.706266 208.172093 
L 383.262689 208.014765 
L 383.819113 207.621445 
L 384.375536 207.424785 
L 385.488383 206.834806 
L 387.714077 206.166162 
L 388.2705 205.890838 
L 389.939771 204.592883 
L 390.496194 204.474887 
L 391.609041 203.609583 
L 392.165465 203.530919 
L 392.721888 202.665616 
L 393.278311 202.429624 
L 393.834735 201.996972 
L 394.391158 201.918308 
L 395.504005 201.249664 
L 396.060429 201.131668 
L 396.616852 200.895677 
L 397.173276 200.463025 
L 397.729699 200.266365 
L 399.39897 199.125737 
L 401.624663 197.98511 
L 402.181087 197.906446 
L 403.850357 197.080474 
L 404.406781 196.136507 
L 404.963204 195.664523 
L 405.519628 195.349867 
L 406.076051 195.231871 
L 407.188898 194.523896 
L 407.745322 194.4059 
L 408.858169 193.855252 
L 410.527439 193.147276 
L 411.640286 192.360637 
L 412.753133 191.180677 
L 413.86598 190.512034 
L 414.422403 190.158046 
L 414.978827 189.568066 
L 417.204521 188.034119 
L 417.760944 187.404807 
L 418.317367 186.972155 
L 419.430214 186.578836 
L 420.543061 185.831528 
L 422.212332 185.005556 
L 422.768755 184.926892 
L 424.438026 184.022257 
L 425.550873 183.353613 
L 431.115107 181.387014 
L 431.671531 180.954362 
L 433.897225 180.128391 
L 434.453648 179.971063 
L 435.010071 179.538411 
L 437.792189 178.043796 
L 438.905036 175.841205 
L 440.017883 174.582582 
L 441.13073 173.913938 
L 442.8 173.245294 
L 443.356423 173.16663 
L 443.912847 172.851974 
L 446.694964 171.986671 
L 447.251388 171.750679 
L 448.364235 171.003371 
L 449.477082 170.610052 
L 452.815622 168.643452 
L 453.372046 168.053473 
L 454.484893 167.463493 
L 457.26701 166.00821 
L 460.605551 164.395599 
L 461.161974 164.277603 
L 462.831245 163.687623 
L 463.387668 163.530295 
L 465.613362 162.546995 
L 466.726209 162.114344 
L 467.282633 161.681692 
L 468.395479 161.327704 
L 471.73402 159.636429 
L 472.846867 158.771125 
L 473.959714 158.377806 
L 474.516138 157.905822 
L 475.072561 157.827158 
L 476.185408 157.001186 
L 477.298255 156.450538 
L 477.854678 156.214547 
L 478.411102 155.663899 
L 481.749643 154.444607 
L 483.418913 153.6973 
L 485.088183 153.185984 
L 486.20103 153.028656 
L 486.757454 152.792664 
L 487.313877 152.714 
L 488.426724 152.242017 
L 488.983148 152.202685 
L 491.208842 151.376713 
L 492.878112 150.236086 
L 495.660229 148.93813 
L 498.442347 147.443515 
L 498.99877 147.325519 
L 500.668041 146.381551 
L 502.337311 145.830904 
L 503.450158 145.476916 
L 505.675852 144.76894 
L 506.788699 144.414952 
L 508.457969 144.139629 
L 510.683663 143.431653 
L 511.240086 143.195661 
L 511.79651 143.116997 
L 512.352933 142.841673 
L 513.46578 142.605681 
L 515.135051 142.015702 
L 516.247898 141.897706 
L 517.360745 141.622382 
L 519.030015 141.347058 
L 519.586438 141.18973 
L 520.699285 141.071734 
L 523.481403 140.363758 
L 524.59425 140.088435 
L 525.150673 139.773779 
L 527.93279 139.065803 
L 528.489214 138.947807 
L 530.714908 138.121835 
L 533.497025 137.295864 
L 534.053449 137.295864 
L 535.166295 136.902544 
L 535.722719 136.351896 
L 536.835566 135.919245 
L 538.504836 135.250601 
L 539.617683 134.857281 
L 540.174107 134.739285 
L 540.73053 134.385297 
L 541.286954 134.267301 
L 541.843377 133.952646 
L 542.956224 133.755986 
L 544.069071 133.323334 
L 544.625494 133.205338 
L 545.181918 132.85135 
L 545.738341 132.733354 
L 546.294765 132.26137 
L 547.964035 131.946715 
L 549.076882 131.396067 
L 549.633306 130.766755 
L 550.746153 130.530763 
L 555.753964 129.4688 
L 556.310387 129.4688 
L 556.866811 129.232808 
L 559.092505 128.839488 
L 559.648928 128.603496 
L 561.318198 128.367504 
L 563.543892 127.659529 
L 565.213163 127.266209 
L 566.882433 126.833557 
L 568.551704 126.322241 
L 571.333821 125.49627 
L 571.890244 125.181614 
L 573.559515 124.630966 
L 574.115938 124.198314 
L 575.228785 123.883658 
L 576.341632 123.529671 
L 577.454479 123.057687 
L 579.123749 122.310379 
L 580.79302 122.192383 
L 583.018714 121.563072 
L 583.575137 121.209084 
L 584.687984 120.894428 
L 587.470101 119.635805 
L 588.026525 119.596473 
L 594.147183 117.511878 
L 596.372877 116.96123 
L 596.9293 116.803902 
L 598.042147 116.292586 
L 598.598571 116.213922 
L 599.711418 115.899266 
L 600.267841 115.466615 
L 600.824265 115.191291 
L 601.380688 114.522647 
L 601.937112 114.129327 
L 603.049958 113.814671 
L 603.606382 113.38202 
L 608.05777 111.572749 
L 608.614193 111.415421 
L 609.170617 111.061433 
L 611.39631 110.392789 
L 612.509157 109.842141 
L 613.622004 109.173498 
L 614.178428 109.055502 
L 615.291275 108.386858 
L 615.847698 108.150866 
L 616.960545 107.482223 
L 618.629816 106.695583 
L 619.186239 106.302263 
L 620.299086 105.948275 
L 621.411933 105.279632 
L 621.968356 105.082972 
L 622.52478 104.689652 
L 623.637627 104.296332 
L 624.19405 104.178336 
L 626.419744 103.195037 
L 629.201861 102.211737 
L 630.314708 102.054409 
L 630.871132 101.700421 
L 631.427555 101.621757 
L 631.983979 101.425098 
L 633.653249 101.110442 
L 637.548213 99.222507 
L 638.104637 99.143843 
L 639.773907 98.239207 
L 642.556025 97.177244 
L 646.450989 95.5253 
L 647.563836 95.367973 
L 648.120259 95.013985 
L 648.676683 94.974653 
L 649.78953 94.620665 
L 650.902377 94.070017 
L 651.4588 93.991353 
L 654.240917 92.890058 
L 654.797341 92.772062 
L 655.910188 92.418074 
L 656.466611 92.221414 
L 657.579458 92.024754 
L 659.248729 91.513438 
L 664.25654 89.114188 
L 664.812963 88.996192 
L 665.369387 88.681536 
L 665.92581 88.56354 
L 667.595081 87.698236 
L 668.151504 87.540908 
L 670.377198 86.518277 
L 672.046468 86.085625 
L 675.385009 84.78767 
L 677.05428 84.237022 
L 685.957055 80.579148 
L 688.182749 79.713844 
L 689.852019 78.809209 
L 690.408443 78.691213 
L 691.52129 78.258561 
L 692.077713 78.258561 
L 693.19056 77.786577 
L 693.746984 77.353925 
L 694.85983 76.291962 
L 696.529101 75.505322 
L 697.085524 75.387326 
L 697.641948 75.112002 
L 698.198371 75.033339 
L 698.754795 74.640019 
L 699.311218 74.522023 
L 700.424065 73.853379 
L 702.093336 73.027408 
L 702.649759 72.87008 
L 703.762606 72.319432 
L 705.431876 71.926112 
L 705.9883 71.729452 
L 706.544723 71.650788 
L 707.101147 71.375464 
L 707.65757 71.257468 
L 712.665381 69.212205 
L 713.221805 69.054877 
L 717.116769 67.245606 
L 717.673193 67.048946 
L 718.229616 66.970283 
L 720.45531 65.908319 
L 723.237427 64.610364 
L 724.350274 64.217044 
L 724.906698 63.74506 
L 725.463121 63.430404 
L 727.132392 62.919088 
L 728.245238 62.171781 
L 728.801662 62.132449 
L 729.914509 61.817793 
L 730.470932 61.699797 
L 732.696626 60.873826 
L 734.365897 60.36251 
L 734.92232 60.283846 
L 736.035167 59.693866 
L 736.59159 59.497206 
L 737.148014 59.064554 
L 738.817284 58.631903 
L 739.373708 58.277915 
L 740.486555 58.002591 
L 742.155825 57.097955 
L 742.712249 57.058623 
L 744.381519 56.507976 
L 745.494366 56.38998 
L 746.050789 56.075324 
L 747.163636 55.8 
L 747.163636 55.8 
" clip-path="url(#p0c40005af0)" style="fill: none; stroke: #1f77b4; stroke-width: 1.5; stroke-linecap: square"/>
   </g>
   <g id="line2d_40">
    <path d="M 138.992787 307.8 
L 140.662058 307.721336 
L 142.331328 307.682004 
L 145.669869 307.60334 
L 148.451986 307.485344 
L 150.67768 307.485344 
L 151.234103 307.328016 
L 153.459797 307.249352 
L 155.129068 307.052692 
L 156.798338 306.895364 
L 160.136879 306.738037 
L 160.693302 306.738037 
L 161.249726 306.620041 
L 163.47542 306.541377 
L 164.588267 306.462713 
L 169.039654 306.384049 
L 171.821772 306.266053 
L 178.498853 306.187389 
L 181.280971 306.069393 
L 184.619511 305.990729 
L 186.845205 305.912065 
L 191.853016 305.833401 
L 193.522287 305.794069 
L 195.191557 305.754737 
L 196.860828 305.558077 
L 200.199368 305.518745 
L 201.312215 305.440081 
L 205.20718 305.361417 
L 211.327838 305.007429 
L 215.222802 304.928765 
L 216.335649 304.850101 
L 218.004919 304.771437 
L 221.34346 304.61411 
L 223.569154 304.574778 
L 225.238424 304.41745 
L 232.47193 303.984798 
L 235.254047 303.906134 
L 240.261858 303.63081 
L 241.931128 303.552146 
L 247.495363 303.23749 
L 253.616021 303.158826 
L 255.841715 302.922834 
L 256.954562 302.84417 
L 264.188067 302.254191 
L 267.526608 301.821539 
L 269.752302 301.742875 
L 274.20369 301.152895 
L 277.54223 301.074231 
L 279.211501 300.916903 
L 280.324348 300.877571 
L 281.437195 300.759575 
L 283.106465 300.680912 
L 284.219312 300.523584 
L 287.001429 300.208928 
L 289.227123 300.130264 
L 290.33997 300.0516 
L 292.565664 299.972936 
L 293.678511 299.894272 
L 296.460628 299.618948 
L 297.017052 299.46162 
L 300.355592 299.304292 
L 303.13771 299.225628 
L 310.371215 298.792976 
L 312.040485 298.714312 
L 319.27399 298.281661 
L 323.168955 298.202997 
L 323.725378 298.085001 
L 328.176766 298.006337 
L 332.07173 297.809677 
L 338.192388 297.731013 
L 342.087353 297.534353 
L 346.53874 297.455689 
L 350.990128 297.219697 
L 354.885092 297.141033 
L 365.457138 296.47239 
L 371.021373 296.393726 
L 373.247067 296.157734 
L 374.916337 296.118402 
L 376.585607 296.07907 
L 378.811301 295.843078 
L 384.375536 295.528422 
L 387.714077 295.449758 
L 389.383347 295.410426 
L 391.052618 295.371094 
L 392.721888 295.213766 
L 397.173276 295.135102 
L 398.286123 294.977774 
L 399.39897 294.89911 
L 402.181087 294.781114 
L 403.293934 294.70245 
L 404.406781 294.623786 
L 409.414592 294.545123 
L 410.527439 294.427127 
L 412.753133 294.387795 
L 413.309556 294.269799 
L 414.422403 294.191135 
L 414.978827 294.073139 
L 416.648097 293.994475 
L 421.655908 293.719151 
L 422.768755 293.679819 
L 424.438026 293.522491 
L 426.107296 293.483159 
L 427.776566 293.404495 
L 430.558684 293.286499 
L 438.348612 293.207835 
L 442.243577 293.011175 
L 446.694964 292.932511 
L 448.920658 292.853847 
L 451.146352 292.814515 
L 452.259199 292.696519 
L 454.484893 292.617855 
L 460.049127 292.3032 
L 463.387668 292.263868 
L 465.056939 292.10654 
L 466.726209 292.067208 
L 470.621173 291.988544 
L 472.846867 291.90988 
L 479.523949 291.831216 
L 482.306066 291.71322 
L 485.644607 291.634556 
L 487.313877 291.437896 
L 490.652418 291.398564 
L 492.321689 291.241236 
L 494.547382 291.162572 
L 501.224464 291.083908 
L 504.006581 290.965912 
L 513.46578 290.92658 
L 514.578627 290.847916 
L 516.247898 290.808584 
L 523.481403 290.72992 
L 524.59425 290.651256 
L 530.714908 290.572592 
L 532.940602 290.493929 
L 539.617683 290.454597 
L 540.73053 290.375933 
L 549.076882 290.336601 
L 550.746153 290.179273 
L 564.656739 290.100609 
L 566.32601 290.061277 
L 581.349443 289.982613 
L 583.575137 289.903949 
L 593.034336 289.825285 
L 594.147183 289.746621 
L 596.9293 289.667957 
L 598.598571 289.510629 
L 601.380688 289.431965 
L 603.606382 289.353301 
L 606.944923 289.274637 
L 608.614193 289.235305 
L 610.839887 289.156641 
L 612.509157 289.117309 
L 615.291275 289.038645 
L 616.404122 288.959981 
L 619.742662 288.881317 
L 622.52478 288.763321 
L 623.637627 288.723989 
L 624.750474 288.645325 
L 626.419744 288.605993 
L 628.645438 288.527329 
L 630.871132 288.448666 
L 638.104637 288.370002 
L 640.330331 288.291338 
L 644.781718 288.212674 
L 648.676683 288.016014 
L 653.684494 287.93735 
L 654.797341 287.858686 
L 664.812963 287.780022 
L 666.482234 287.74069 
L 669.264351 287.701358 
L 671.490045 287.465366 
L 673.159315 287.426034 
L 676.497856 287.34737 
L 682.062091 287.032714 
L 684.844208 286.95405 
L 687.069902 286.875386 
L 693.19056 286.796722 
L 695.972677 286.482066 
L 698.198371 286.403403 
L 702.093336 286.324739 
L 702.649759 286.206743 
L 707.65757 286.128079 
L 710.439688 286.010083 
L 717.673193 285.970751 
L 718.229616 285.852755 
L 722.681004 285.774091 
L 724.350274 285.734759 
L 727.132392 285.656095 
L 728.801662 285.616763 
L 738.260861 285.538099 
L 741.042978 285.420103 
L 747.163636 285.341439 
L 747.163636 285.341439 
" clip-path="url(#p0c40005af0)" style="fill: none; stroke: #ff7f0e; stroke-width: 1.5; stroke-linecap: square"/>
   </g>
   <g id="patch_3">
    <path d="M 108 320.4 
L 108 43.2 
" style="fill: none; stroke: #a9a9a9; stroke-width: 0.8; stroke-linejoin: miter; stroke-linecap: square"/>
   </g>
   <g id="patch_4">
    <path d="M 777.6 320.4 
L 777.6 43.2 
" style="fill: none"/>
   </g>
   <g id="patch_5">
    <path d="M 108 320.4 
L 777.6 320.4 
" style="fill: none; stroke: #a9a9a9; stroke-width: 0.8; stroke-linejoin: miter; stroke-linecap: square"/>
   </g>
   <g id="patch_6">
    <path d="M 108 43.2 
L 777.6 43.2 
" style="fill: none"/>
   </g>
   <g id="text_20">
    <!-- get_subscribe history -->
    <g style="fill: #a9a9a9" transform="translate(378.6075 37.2) scale(0.12 -0.12)">
     <defs>
      <path id="DejaVuSans-67" d="M 2906 1791 
Q 2906 2416 2648 2759 
Q 2391 3103 1925 3103 
Q 1463 3103 1205 2759 
Q 947 2416 947 1791 
Q 947 1169 1205 825 
Q 1463 481 1925 481 
Q 2391 481 2648 825 
Q 2906 1169 2906 1791 
z
M 3481 434 
Q 3481 -459 3084 -895 
Q 2688 -1331 1869 -1331 
Q 1566 -1331 1297 -1286 
Q 1028 -1241 775 -1147 
L 775 -588 
Q 1028 -725 1275 -790 
Q 1522 -856 1778 -856 
Q 2344 -856 2625 -561 
Q 2906 -266 2906 331 
L 2906 616 
Q 2728 306 2450 153 
Q 2172 0 1784 0 
Q 1141 0 747 490 
Q 353 981 353 1791 
Q 353 2603 747 3093 
Q 1141 3584 1784 3584 
Q 2172 3584 2450 3431 
Q 2728 3278 2906 2969 
L 2906 3500 
L 3481 3500 
L 3481 434 
z
" transform="scale(0.015625)"/>
      <path id="DejaVuSans-65" d="M 3597 1894 
L 3597 1613 
L 953 1613 
Q 991 1019 1311 708 
Q 1631 397 2203 397 
Q 2534 397 2845 478 
Q 3156 559 3463 722 
L 3463 178 
Q 3153 47 2828 -22 
Q 2503 -91 2169 -91 
Q 1331 -91 842 396 
Q 353 884 353 1716 
Q 353 2575 817 3079 
Q 1281 3584 2069 3584 
Q 2775 3584 3186 3129 
Q 3597 2675 3597 1894 
z
M 3022 2063 
Q 3016 2534 2758 2815 
Q 2500 3097 2075 3097 
Q 1594 3097 1305 2825 
Q 1016 2553 972 2059 
L 3022 2063 
z
" transform="scale(0.015625)"/>
      <path id="DejaVuSans-74" d="M 1172 4494 
L 1172 3500 
L 2356 3500 
L 2356 3053 
L 1172 3053 
L 1172 1153 
Q 1172 725 1289 603 
Q 1406 481 1766 481 
L 2356 481 
L 2356 0 
L 1766 0 
Q 1100 0 847 248 
Q 594 497 594 1153 
L 594 3053 
L 172 3053 
L 172 3500 
L 594 3500 
L 594 4494 
L 1172 4494 
z
" transform="scale(0.015625)"/>
      <path id="DejaVuSans-5f" d="M 3263 -1063 
L 3263 -1509 
L -63 -1509 
L -63 -1063 
L 3263 -1063 
z
" transform="scale(0.015625)"/>
      <path id="DejaVuSans-73" d="M 2834 3397 
L 2834 2853 
Q 2591 2978 2328 3040 
Q 2066 3103 1784 3103 
Q 1356 3103 1142 2972 
Q 928 2841 928 2578 
Q 928 2378 1081 2264 
Q 1234 2150 1697 2047 
L 1894 2003 
Q 2506 1872 2764 1633 
Q 3022 1394 3022 966 
Q 3022 478 2636 193 
Q 2250 -91 1575 -91 
Q 1294 -91 989 -36 
Q 684 19 347 128 
L 347 722 
Q 666 556 975 473 
Q 1284 391 1588 391 
Q 1994 391 2212 530 
Q 2431 669 2431 922 
Q 2431 1156 2273 1281 
Q 2116 1406 1581 1522 
L 1381 1569 
Q 847 1681 609 1914 
Q 372 2147 372 2553 
Q 372 3047 722 3315 
Q 1072 3584 1716 3584 
Q 2034 3584 2315 3537 
Q 2597 3491 2834 3397 
z
" transform="scale(0.015625)"/>
      <path id="DejaVuSans-75" d="M 544 1381 
L 544 3500 
L 1119 3500 
L 1119 1403 
Q 1119 906 1312 657 
Q 1506 409 1894 409 
Q 2359 409 2629 706 
Q 2900 1003 2900 1516 
L 2900 3500 
L 3475 3500 
L 3475 0 
L 2900 0 
L 2900 538 
Q 2691 219 2414 64 
Q 2138 -91 1772 -91 
Q 1169 -91 856 284 
Q 544 659 544 1381 
z
M 1991 3584 
L 1991 3584 
z
" transform="scale(0.015625)"/>
      <path id="DejaVuSans-62" d="M 3116 1747 
Q 3116 2381 2855 2742 
Q 2594 3103 2138 3103 
Q 1681 3103 1420 2742 
Q 1159 2381 1159 1747 
Q 1159 1113 1420 752 
Q 1681 391 2138 391 
Q 2594 391 2855 752 
Q 3116 1113 3116 1747 
z
M 1159 2969 
Q 1341 3281 1617 3432 
Q 1894 3584 2278 3584 
Q 2916 3584 3314 3078 
Q 3713 2572 3713 1747 
Q 3713 922 3314 415 
Q 2916 -91 2278 -91 
Q 1894 -91 1617 61 
Q 1341 213 1159 525 
L 1159 0 
L 581 0 
L 581 4863 
L 1159 4863 
L 1159 2969 
z
" transform="scale(0.015625)"/>
      <path id="DejaVuSans-63" d="M 3122 3366 
L 3122 2828 
Q 2878 2963 2633 3030 
Q 2388 3097 2138 3097 
Q 1578 3097 1268 2742 
Q 959 2388 959 1747 
Q 959 1106 1268 751 
Q 1578 397 2138 397 
Q 2388 397 2633 464 
Q 2878 531 3122 666 
L 3122 134 
Q 2881 22 2623 -34 
Q 2366 -91 2075 -91 
Q 1284 -91 818 406 
Q 353 903 353 1747 
Q 353 2603 823 3093 
Q 1294 3584 2113 3584 
Q 2378 3584 2631 3529 
Q 2884 3475 3122 3366 
z
" transform="scale(0.015625)"/>
      <path id="DejaVuSans-72" d="M 2631 2963 
Q 2534 3019 2420 3045 
Q 2306 3072 2169 3072 
Q 1681 3072 1420 2755 
Q 1159 2438 1159 1844 
L 1159 0 
L 581 0 
L 581 3500 
L 1159 3500 
L 1159 2956 
Q 1341 3275 1631 3429 
Q 1922 3584 2338 3584 
Q 2397 3584 2469 3576 
Q 2541 3569 2628 3553 
L 2631 2963 
z
" transform="scale(0.015625)"/>
      <path id="DejaVuSans-69" d="M 603 3500 
L 1178 3500 
L 1178 0 
L 603 0 
L 603 3500 
z
M 603 4863 
L 1178 4863 
L 1178 4134 
L 603 4134 
L 603 4863 
z
" transform="scale(0.015625)"/>
      <path id="DejaVuSans-20" transform="scale(0.015625)"/>
      <path id="DejaVuSans-68" d="M 3513 2113 
L 3513 0 
L 2938 0 
L 2938 2094 
Q 2938 2591 2744 2837 
Q 2550 3084 2163 3084 
Q 1697 3084 1428 2787 
Q 1159 2491 1159 1978 
L 1159 0 
L 581 0 
L 581 4863 
L 1159 4863 
L 1159 2956 
Q 1366 3272 1645 3428 
Q 1925 3584 2291 3584 
Q 2894 3584 3203 3211 
Q 3513 2838 3513 2113 
z
" transform="scale(0.015625)"/>
      <path id="DejaVuSans-6f" d="M 1959 3097 
Q 1497 3097 1228 2736 
Q 959 2375 959 1747 
Q 959 1119 1226 758 
Q 1494 397 1959 397 
Q 2419 397 2687 759 
Q 2956 1122 2956 1747 
Q 2956 2369 2687 2733 
Q 2419 3097 1959 3097 
z
M 1959 3584 
Q 2709 3584 3137 3096 
Q 3566 2609 3566 1747 
Q 3566 888 3137 398 
Q 2709 -91 1959 -91 
Q 1206 -91 779 398 
Q 353 888 353 1747 
Q 353 2609 779 3096 
Q 1206 3584 1959 3584 
z
" transform="scale(0.015625)"/>
      <path id="DejaVuSans-79" d="M 2059 -325 
Q 1816 -950 1584 -1140 
Q 1353 -1331 966 -1331 
L 506 -1331 
L 506 -850 
L 844 -850 
Q 1081 -850 1212 -737 
Q 1344 -625 1503 -206 
L 1606 56 
L 191 3500 
L 800 3500 
L 1894 763 
L 2988 3500 
L 3597 3500 
L 2059 -325 
z
" transform="scale(0.015625)"/>
     </defs>
     <use xlink:href="#DejaVuSans-67"/>
     <use xlink:href="#DejaVuSans-65" x="63.476562"/>
     <use xlink:href="#DejaVuSans-74" x="125"/>
     <use xlink:href="#DejaVuSans-5f" x="164.208984"/>
     <use xlink:href="#DejaVuSans-73" x="214.208984"/>
     <use xlink:href="#DejaVuSans-75" x="266.308594"/>
     <use xlink:href="#DejaVuSans-62" x="329.6875"/>
     <use xlink:href="#DejaVuSans-73" x="393.164062"/>
     <use xlink:href="#DejaVuSans-63" x="445.263672"/>
     <use xlink:href="#DejaVuSans-72" x="500.244141"/>
     <use xlink:href="#DejaVuSans-69" x="541.357422"/>
     <use xlink:href="#DejaVuSans-62" x="569.140625"/>
     <use xlink:href="#DejaVuSans-65" x="632.617188"/>
     <use xlink:href="#DejaVuSans-20" x="694.140625"/>
     <use xlink:href="#DejaVuSans-68" x="725.927734"/>
     <use xlink:href="#DejaVuSans-69" x="789.306641"/>
     <use xlink:href="#DejaVuSans-73" x="817.089844"/>
     <use xlink:href="#DejaVuSans-74" x="869.189453"/>
     <use xlink:href="#DejaVuSans-6f" x="908.398438"/>
     <use xlink:href="#DejaVuSans-72" x="969.580078"/>
     <use xlink:href="#DejaVuSans-79" x="1010.693359"/>
    </g>
   </g>
   <g id="legend_1">
    <g id="line2d_41">
     <path d="M 815.08 328.498438 
L 825.08 328.498438 
L 835.08 328.498438 
" style="fill: none; stroke: #1f77b4; stroke-width: 1.5; stroke-linecap: square"/>
    </g>
    <g id="text_21">
     <!-- star -->
     <g style="fill: #a9a9a9" transform="translate(843.08 331.998438) scale(0.1 -0.1)">
      <defs>
       <path id="DejaVuSans-61" d="M 2194 1759 
Q 1497 1759 1228 1600 
Q 959 1441 959 1056 
Q 959 750 1161 570 
Q 1363 391 1709 391 
Q 2188 391 2477 730 
Q 2766 1069 2766 1631 
L 2766 1759 
L 2194 1759 
z
M 3341 1997 
L 3341 0 
L 2766 0 
L 2766 531 
Q 2569 213 2275 61 
Q 1981 -91 1556 -91 
Q 1019 -91 701 211 
Q 384 513 384 1019 
Q 384 1609 779 1909 
Q 1175 2209 1959 2209 
L 2766 2209 
L 2766 2266 
Q 2766 2663 2505 2880 
Q 2244 3097 1772 3097 
Q 1472 3097 1187 3025 
Q 903 2953 641 2809 
L 641 3341 
Q 956 3463 1253 3523 
Q 1550 3584 1831 3584 
Q 2591 3584 2966 3190 
Q 3341 2797 3341 1997 
z
" transform="scale(0.015625)"/>
      </defs>
      <use xlink:href="#DejaVuSans-73"/>
      <use xlink:href="#DejaVuSans-74" x="52.099609"/>
      <use xlink:href="#DejaVuSans-61" x="91.308594"/>
      <use xlink:href="#DejaVuSans-72" x="152.587891"/>
     </g>
    </g>
    <g id="line2d_42">
     <path d="M 815.08 343.176562 
L 825.08 343.176562 
L 835.08 343.176562 
" style="fill: none; stroke: #ff7f0e; stroke-width: 1.5; stroke-linecap: square"/>
    </g>
    <g id="text_22">
     <!-- fork -->
     <g style="fill: #a9a9a9" transform="translate(843.08 346.676562) scale(0.1 -0.1)">
      <defs>
       <path id="DejaVuSans-66" d="M 2375 4863 
L 2375 4384 
L 1825 4384 
Q 1516 4384 1395 4259 
Q 1275 4134 1275 3809 
L 1275 3500 
L 2222 3500 
L 2222 3053 
L 1275 3053 
L 1275 0 
L 697 0 
L 697 3053 
L 147 3053 
L 147 3500 
L 697 3500 
L 697 3744 
Q 697 4328 969 4595 
Q 1241 4863 1831 4863 
L 2375 4863 
z
" transform="scale(0.015625)"/>
       <path id="DejaVuSans-6b" d="M 581 4863 
L 1159 4863 
L 1159 1991 
L 2875 3500 
L 3609 3500 
L 1753 1863 
L 3688 0 
L 2938 0 
L 1159 1709 
L 1159 0 
L 581 0 
L 581 4863 
z
" transform="scale(0.015625)"/>
      </defs>
      <use xlink:href="#DejaVuSans-66"/>
      <use xlink:href="#DejaVuSans-6f" x="35.205078"/>
      <use xlink:href="#DejaVuSans-72" x="96.386719"/>
      <use xlink:href="#DejaVuSans-6b" x="137.5"/>
     </g>
    </g>
   </g>
  </g>
 </g>
 <defs>
  <clipPath id="p0c40005af0">
   <rect x="108" y="43.2" width="669.6" height="277.2"/>
  </clipPath>
 </defs>
</svg>
