<?xml version="1.0" encoding="utf-8" standalone="no"?>
<!DOCTYPE svg PUBLIC "-//W3C//DTD SVG 1.1//EN"
  "http://www.w3.org/Graphics/SVG/1.1/DTD/svg11.dtd">
<svg xmlns:xlink="http://www.w3.org/1999/xlink" width="864pt" height="360pt" viewBox="0 0 864 360" xmlns="http://www.w3.org/2000/svg" version="1.1">
 <metadata>
  <rdf:RDF xmlns:dc="http://purl.org/dc/elements/1.1/" xmlns:cc="http://creativecommons.org/ns#" xmlns:rdf="http://www.w3.org/1999/02/22-rdf-syntax-ns#">
   <cc:Work>
    <dc:type rdf:resource="http://purl.org/dc/dcmitype/StillImage"/>
    <dc:date>2024-07-23T08:12:05.387182</dc:date>
    <dc:format>image/svg+xml</dc:format>
    <dc:creator>
     <cc:Agent>
      <dc:title>Matplotlib v3.9.1, https://matplotlib.org/</dc:title>
     </cc:Agent>
    </dc:creator>
   </cc:Work>
  </rdf:RDF>
 </metadata>
 <defs>
  <style type="text/css">*{stroke-linejoin: round; stroke-linecap: butt}</style>
 </defs>
 <g id="figure_1">
  <g id="patch_1">
   <path d="M 0 360 
L 864 360 
L 864 0 
L 0 0 
L 0 360 
z
" style="fill: none; opacity: 0"/>
  </g>
  <g id="axes_1">
   <g id="patch_2">
    <path d="M 108 320.4 
L 777.6 320.4 
L 777.6 43.2 
L 108 43.2 
L 108 320.4 
z
" style="fill: none; opacity: 0"/>
   </g>
   <g id="matplotlib.axis_1">
    <g id="xtick_1">
     <g id="line2d_1">
      <path d="M 160.117061 320.4 
L 160.117061 43.2 
" clip-path="url(#p57d46d8e7f)" style="fill: none; stroke-dasharray: 5.12,1.28,0.8,1.28; stroke-dashoffset: 0; stroke: #b0b0b0; stroke-width: 0.8"/>
     </g>
     <g id="line2d_2">
      <defs>
       <path id="maa9d0584c1" d="M 0 0 
L 0 3.5 
" style="stroke: #a9a9a9; stroke-width: 0.8"/>
      </defs>
      <g>
       <use xlink:href="#maa9d0584c1" x="160.117061" y="320.4" style="fill: #a9a9a9; stroke: #a9a9a9; stroke-width: 0.8"/>
      </g>
     </g>
     <g id="text_1">
      <!-- 2021-09 -->
      <g style="fill: #a9a9a9" transform="translate(139.225655 334.998438) scale(0.1 -0.1)">
       <defs>
        <path id="DejaVuSans-32" d="M 1228 531 
L 3431 531 
L 3431 0 
L 469 0 
L 469 531 
Q 828 903 1448 1529 
Q 2069 2156 2228 2338 
Q 2531 2678 2651 2914 
Q 2772 3150 2772 3378 
Q 2772 3750 2511 3984 
Q 2250 4219 1831 4219 
Q 1534 4219 1204 4116 
Q 875 4013 500 3803 
L 500 4441 
Q 881 4594 1212 4672 
Q 1544 4750 1819 4750 
Q 2544 4750 2975 4387 
Q 3406 4025 3406 3419 
Q 3406 3131 3298 2873 
Q 3191 2616 2906 2266 
Q 2828 2175 2409 1742 
Q 1991 1309 1228 531 
z
" transform="scale(0.015625)"/>
        <path id="DejaVuSans-30" d="M 2034 4250 
Q 1547 4250 1301 3770 
Q 1056 3291 1056 2328 
Q 1056 1369 1301 889 
Q 1547 409 2034 409 
Q 2525 409 2770 889 
Q 3016 1369 3016 2328 
Q 3016 3291 2770 3770 
Q 2525 4250 2034 4250 
z
M 2034 4750 
Q 2819 4750 3233 4129 
Q 3647 3509 3647 2328 
Q 3647 1150 3233 529 
Q 2819 -91 2034 -91 
Q 1250 -91 836 529 
Q 422 1150 422 2328 
Q 422 3509 836 4129 
Q 1250 4750 2034 4750 
z
" transform="scale(0.015625)"/>
        <path id="DejaVuSans-31" d="M 794 531 
L 1825 531 
L 1825 4091 
L 703 3866 
L 703 4441 
L 1819 4666 
L 2450 4666 
L 2450 531 
L 3481 531 
L 3481 0 
L 794 0 
L 794 531 
z
" transform="scale(0.015625)"/>
        <path id="DejaVuSans-2d" d="M 313 2009 
L 1997 2009 
L 1997 1497 
L 313 1497 
L 313 2009 
z
" transform="scale(0.015625)"/>
        <path id="DejaVuSans-39" d="M 703 97 
L 703 672 
Q 941 559 1184 500 
Q 1428 441 1663 441 
Q 2288 441 2617 861 
Q 2947 1281 2994 2138 
Q 2813 1869 2534 1725 
Q 2256 1581 1919 1581 
Q 1219 1581 811 2004 
Q 403 2428 403 3163 
Q 403 3881 828 4315 
Q 1253 4750 1959 4750 
Q 2769 4750 3195 4129 
Q 3622 3509 3622 2328 
Q 3622 1225 3098 567 
Q 2575 -91 1691 -91 
Q 1453 -91 1209 -44 
Q 966 3 703 97 
z
M 1959 2075 
Q 2384 2075 2632 2365 
Q 2881 2656 2881 3163 
Q 2881 3666 2632 3958 
Q 2384 4250 1959 4250 
Q 1534 4250 1286 3958 
Q 1038 3666 1038 3163 
Q 1038 2656 1286 2365 
Q 1534 2075 1959 2075 
z
" transform="scale(0.015625)"/>
       </defs>
       <use xlink:href="#DejaVuSans-32"/>
       <use xlink:href="#DejaVuSans-30" x="63.623047"/>
       <use xlink:href="#DejaVuSans-32" x="127.246094"/>
       <use xlink:href="#DejaVuSans-31" x="190.869141"/>
       <use xlink:href="#DejaVuSans-2d" x="254.492188"/>
       <use xlink:href="#DejaVuSans-30" x="290.576172"/>
       <use xlink:href="#DejaVuSans-39" x="354.199219"/>
      </g>
     </g>
    </g>
    <g id="xtick_2">
     <g id="line2d_3">
      <path d="M 227.93873 320.4 
L 227.93873 43.2 
" clip-path="url(#p57d46d8e7f)" style="fill: none; stroke-dasharray: 5.12,1.28,0.8,1.28; stroke-dashoffset: 0; stroke: #b0b0b0; stroke-width: 0.8"/>
     </g>
     <g id="line2d_4">
      <g>
       <use xlink:href="#maa9d0584c1" x="227.93873" y="320.4" style="fill: #a9a9a9; stroke: #a9a9a9; stroke-width: 0.8"/>
      </g>
     </g>
     <g id="text_2">
      <!-- 2022-01 -->
      <g style="fill: #a9a9a9" transform="translate(207.047324 334.998438) scale(0.1 -0.1)">
       <use xlink:href="#DejaVuSans-32"/>
       <use xlink:href="#DejaVuSans-30" x="63.623047"/>
       <use xlink:href="#DejaVuSans-32" x="127.246094"/>
       <use xlink:href="#DejaVuSans-32" x="190.869141"/>
       <use xlink:href="#DejaVuSans-2d" x="254.492188"/>
       <use xlink:href="#DejaVuSans-30" x="290.576172"/>
       <use xlink:href="#DejaVuSans-31" x="354.199219"/>
      </g>
     </g>
    </g>
    <g id="xtick_3">
     <g id="line2d_5">
      <path d="M 294.648568 320.4 
L 294.648568 43.2 
" clip-path="url(#p57d46d8e7f)" style="fill: none; stroke-dasharray: 5.12,1.28,0.8,1.28; stroke-dashoffset: 0; stroke: #b0b0b0; stroke-width: 0.8"/>
     </g>
     <g id="line2d_6">
      <g>
       <use xlink:href="#maa9d0584c1" x="294.648568" y="320.4" style="fill: #a9a9a9; stroke: #a9a9a9; stroke-width: 0.8"/>
      </g>
     </g>
     <g id="text_3">
      <!-- 2022-05 -->
      <g style="fill: #a9a9a9" transform="translate(273.757162 334.998438) scale(0.1 -0.1)">
       <defs>
        <path id="DejaVuSans-35" d="M 691 4666 
L 3169 4666 
L 3169 4134 
L 1269 4134 
L 1269 2991 
Q 1406 3038 1543 3061 
Q 1681 3084 1819 3084 
Q 2600 3084 3056 2656 
Q 3513 2228 3513 1497 
Q 3513 744 3044 326 
Q 2575 -91 1722 -91 
Q 1428 -91 1123 -41 
Q 819 9 494 109 
L 494 744 
Q 775 591 1075 516 
Q 1375 441 1709 441 
Q 2250 441 2565 725 
Q 2881 1009 2881 1497 
Q 2881 1984 2565 2268 
Q 2250 2553 1709 2553 
Q 1456 2553 1204 2497 
Q 953 2441 691 2322 
L 691 4666 
z
" transform="scale(0.015625)"/>
       </defs>
       <use xlink:href="#DejaVuSans-32"/>
       <use xlink:href="#DejaVuSans-30" x="63.623047"/>
       <use xlink:href="#DejaVuSans-32" x="127.246094"/>
       <use xlink:href="#DejaVuSans-32" x="190.869141"/>
       <use xlink:href="#DejaVuSans-2d" x="254.492188"/>
       <use xlink:href="#DejaVuSans-30" x="290.576172"/>
       <use xlink:href="#DejaVuSans-35" x="354.199219"/>
      </g>
     </g>
    </g>
    <g id="xtick_4">
     <g id="line2d_7">
      <path d="M 363.026152 320.4 
L 363.026152 43.2 
" clip-path="url(#p57d46d8e7f)" style="fill: none; stroke-dasharray: 5.12,1.28,0.8,1.28; stroke-dashoffset: 0; stroke: #b0b0b0; stroke-width: 0.8"/>
     </g>
     <g id="line2d_8">
      <g>
       <use xlink:href="#maa9d0584c1" x="363.026152" y="320.4" style="fill: #a9a9a9; stroke: #a9a9a9; stroke-width: 0.8"/>
      </g>
     </g>
     <g id="text_4">
      <!-- 2022-09 -->
      <g style="fill: #a9a9a9" transform="translate(342.134746 334.998438) scale(0.1 -0.1)">
       <use xlink:href="#DejaVuSans-32"/>
       <use xlink:href="#DejaVuSans-30" x="63.623047"/>
       <use xlink:href="#DejaVuSans-32" x="127.246094"/>
       <use xlink:href="#DejaVuSans-32" x="190.869141"/>
       <use xlink:href="#DejaVuSans-2d" x="254.492188"/>
       <use xlink:href="#DejaVuSans-30" x="290.576172"/>
       <use xlink:href="#DejaVuSans-39" x="354.199219"/>
      </g>
     </g>
    </g>
    <g id="xtick_5">
     <g id="line2d_9">
      <path d="M 430.847821 320.4 
L 430.847821 43.2 
" clip-path="url(#p57d46d8e7f)" style="fill: none; stroke-dasharray: 5.12,1.28,0.8,1.28; stroke-dashoffset: 0; stroke: #b0b0b0; stroke-width: 0.8"/>
     </g>
     <g id="line2d_10">
      <g>
       <use xlink:href="#maa9d0584c1" x="430.847821" y="320.4" style="fill: #a9a9a9; stroke: #a9a9a9; stroke-width: 0.8"/>
      </g>
     </g>
     <g id="text_5">
      <!-- 2023-01 -->
      <g style="fill: #a9a9a9" transform="translate(409.956414 334.998438) scale(0.1 -0.1)">
       <defs>
        <path id="DejaVuSans-33" d="M 2597 2516 
Q 3050 2419 3304 2112 
Q 3559 1806 3559 1356 
Q 3559 666 3084 287 
Q 2609 -91 1734 -91 
Q 1441 -91 1130 -33 
Q 819 25 488 141 
L 488 750 
Q 750 597 1062 519 
Q 1375 441 1716 441 
Q 2309 441 2620 675 
Q 2931 909 2931 1356 
Q 2931 1769 2642 2001 
Q 2353 2234 1838 2234 
L 1294 2234 
L 1294 2753 
L 1863 2753 
Q 2328 2753 2575 2939 
Q 2822 3125 2822 3475 
Q 2822 3834 2567 4026 
Q 2313 4219 1838 4219 
Q 1578 4219 1281 4162 
Q 984 4106 628 3988 
L 628 4550 
Q 988 4650 1302 4700 
Q 1616 4750 1894 4750 
Q 2613 4750 3031 4423 
Q 3450 4097 3450 3541 
Q 3450 3153 3228 2886 
Q 3006 2619 2597 2516 
z
" transform="scale(0.015625)"/>
       </defs>
       <use xlink:href="#DejaVuSans-32"/>
       <use xlink:href="#DejaVuSans-30" x="63.623047"/>
       <use xlink:href="#DejaVuSans-32" x="127.246094"/>
       <use xlink:href="#DejaVuSans-33" x="190.869141"/>
       <use xlink:href="#DejaVuSans-2d" x="254.492188"/>
       <use xlink:href="#DejaVuSans-30" x="290.576172"/>
       <use xlink:href="#DejaVuSans-31" x="354.199219"/>
      </g>
     </g>
    </g>
    <g id="xtick_6">
     <g id="line2d_11">
      <path d="M 497.557659 320.4 
L 497.557659 43.2 
" clip-path="url(#p57d46d8e7f)" style="fill: none; stroke-dasharray: 5.12,1.28,0.8,1.28; stroke-dashoffset: 0; stroke: #b0b0b0; stroke-width: 0.8"/>
     </g>
     <g id="line2d_12">
      <g>
       <use xlink:href="#maa9d0584c1" x="497.557659" y="320.4" style="fill: #a9a9a9; stroke: #a9a9a9; stroke-width: 0.8"/>
      </g>
     </g>
     <g id="text_6">
      <!-- 2023-05 -->
      <g style="fill: #a9a9a9" transform="translate(476.666253 334.998438) scale(0.1 -0.1)">
       <use xlink:href="#DejaVuSans-32"/>
       <use xlink:href="#DejaVuSans-30" x="63.623047"/>
       <use xlink:href="#DejaVuSans-32" x="127.246094"/>
       <use xlink:href="#DejaVuSans-33" x="190.869141"/>
       <use xlink:href="#DejaVuSans-2d" x="254.492188"/>
       <use xlink:href="#DejaVuSans-30" x="290.576172"/>
       <use xlink:href="#DejaVuSans-35" x="354.199219"/>
      </g>
     </g>
    </g>
    <g id="xtick_7">
     <g id="line2d_13">
      <path d="M 565.935243 320.4 
L 565.935243 43.2 
" clip-path="url(#p57d46d8e7f)" style="fill: none; stroke-dasharray: 5.12,1.28,0.8,1.28; stroke-dashoffset: 0; stroke: #b0b0b0; stroke-width: 0.8"/>
     </g>
     <g id="line2d_14">
      <g>
       <use xlink:href="#maa9d0584c1" x="565.935243" y="320.4" style="fill: #a9a9a9; stroke: #a9a9a9; stroke-width: 0.8"/>
      </g>
     </g>
     <g id="text_7">
      <!-- 2023-09 -->
      <g style="fill: #a9a9a9" transform="translate(545.043837 334.998438) scale(0.1 -0.1)">
       <use xlink:href="#DejaVuSans-32"/>
       <use xlink:href="#DejaVuSans-30" x="63.623047"/>
       <use xlink:href="#DejaVuSans-32" x="127.246094"/>
       <use xlink:href="#DejaVuSans-33" x="190.869141"/>
       <use xlink:href="#DejaVuSans-2d" x="254.492188"/>
       <use xlink:href="#DejaVuSans-30" x="290.576172"/>
       <use xlink:href="#DejaVuSans-39" x="354.199219"/>
      </g>
     </g>
    </g>
    <g id="xtick_8">
     <g id="line2d_15">
      <path d="M 633.756912 320.4 
L 633.756912 43.2 
" clip-path="url(#p57d46d8e7f)" style="fill: none; stroke-dasharray: 5.12,1.28,0.8,1.28; stroke-dashoffset: 0; stroke: #b0b0b0; stroke-width: 0.8"/>
     </g>
     <g id="line2d_16">
      <g>
       <use xlink:href="#maa9d0584c1" x="633.756912" y="320.4" style="fill: #a9a9a9; stroke: #a9a9a9; stroke-width: 0.8"/>
      </g>
     </g>
     <g id="text_8">
      <!-- 2024-01 -->
      <g style="fill: #a9a9a9" transform="translate(612.865505 334.998438) scale(0.1 -0.1)">
       <defs>
        <path id="DejaVuSans-34" d="M 2419 4116 
L 825 1625 
L 2419 1625 
L 2419 4116 
z
M 2253 4666 
L 3047 4666 
L 3047 1625 
L 3713 1625 
L 3713 1100 
L 3047 1100 
L 3047 0 
L 2419 0 
L 2419 1100 
L 313 1100 
L 313 1709 
L 2253 4666 
z
" transform="scale(0.015625)"/>
       </defs>
       <use xlink:href="#DejaVuSans-32"/>
       <use xlink:href="#DejaVuSans-30" x="63.623047"/>
       <use xlink:href="#DejaVuSans-32" x="127.246094"/>
       <use xlink:href="#DejaVuSans-34" x="190.869141"/>
       <use xlink:href="#DejaVuSans-2d" x="254.492188"/>
       <use xlink:href="#DejaVuSans-30" x="290.576172"/>
       <use xlink:href="#DejaVuSans-31" x="354.199219"/>
      </g>
     </g>
    </g>
    <g id="xtick_9">
     <g id="line2d_17">
      <path d="M 701.022665 320.4 
L 701.022665 43.2 
" clip-path="url(#p57d46d8e7f)" style="fill: none; stroke-dasharray: 5.12,1.28,0.8,1.28; stroke-dashoffset: 0; stroke: #b0b0b0; stroke-width: 0.8"/>
     </g>
     <g id="line2d_18">
      <g>
       <use xlink:href="#maa9d0584c1" x="701.022665" y="320.4" style="fill: #a9a9a9; stroke: #a9a9a9; stroke-width: 0.8"/>
      </g>
     </g>
     <g id="text_9">
      <!-- 2024-05 -->
      <g style="fill: #a9a9a9" transform="translate(680.131259 334.998438) scale(0.1 -0.1)">
       <use xlink:href="#DejaVuSans-32"/>
       <use xlink:href="#DejaVuSans-30" x="63.623047"/>
       <use xlink:href="#DejaVuSans-32" x="127.246094"/>
       <use xlink:href="#DejaVuSans-34" x="190.869141"/>
       <use xlink:href="#DejaVuSans-2d" x="254.492188"/>
       <use xlink:href="#DejaVuSans-30" x="290.576172"/>
       <use xlink:href="#DejaVuSans-35" x="354.199219"/>
      </g>
     </g>
    </g>
    <g id="xtick_10">
     <g id="line2d_19">
      <path d="M 769.400249 320.4 
L 769.400249 43.2 
" clip-path="url(#p57d46d8e7f)" style="fill: none; stroke-dasharray: 5.12,1.28,0.8,1.28; stroke-dashoffset: 0; stroke: #b0b0b0; stroke-width: 0.8"/>
     </g>
     <g id="line2d_20">
      <g>
       <use xlink:href="#maa9d0584c1" x="769.400249" y="320.4" style="fill: #a9a9a9; stroke: #a9a9a9; stroke-width: 0.8"/>
      </g>
     </g>
     <g id="text_10">
      <!-- 2024-09 -->
      <g style="fill: #a9a9a9" transform="translate(748.508843 334.998438) scale(0.1 -0.1)">
       <use xlink:href="#DejaVuSans-32"/>
       <use xlink:href="#DejaVuSans-30" x="63.623047"/>
       <use xlink:href="#DejaVuSans-32" x="127.246094"/>
       <use xlink:href="#DejaVuSans-34" x="190.869141"/>
       <use xlink:href="#DejaVuSans-2d" x="254.492188"/>
       <use xlink:href="#DejaVuSans-30" x="290.576172"/>
       <use xlink:href="#DejaVuSans-39" x="354.199219"/>
      </g>
     </g>
    </g>
   </g>
   <g id="matplotlib.axis_2">
    <g id="ytick_1">
     <g id="line2d_21">
      <path d="M 108 307.839332 
L 777.6 307.839332 
" clip-path="url(#p57d46d8e7f)" style="fill: none; stroke-dasharray: 5.12,1.28,0.8,1.28; stroke-dashoffset: 0; stroke: #b0b0b0; stroke-width: 0.8"/>
     </g>
     <g id="line2d_22">
      <defs>
       <path id="m15ba3d2b7b" d="M 0 0 
L -3.5 0 
" style="stroke: #a9a9a9; stroke-width: 0.8"/>
      </defs>
      <g>
       <use xlink:href="#m15ba3d2b7b" x="108" y="307.839332" style="fill: #a9a9a9; stroke: #a9a9a9; stroke-width: 0.8"/>
      </g>
     </g>
     <g id="text_11">
      <!-- 0 -->
      <g style="fill: #a9a9a9" transform="translate(94.6375 311.638551) scale(0.1 -0.1)">
       <use xlink:href="#DejaVuSans-30"/>
      </g>
     </g>
    </g>
    <g id="ytick_2">
     <g id="line2d_23">
      <path d="M 108 276.373747 
L 777.6 276.373747 
" clip-path="url(#p57d46d8e7f)" style="fill: none; stroke-dasharray: 5.12,1.28,0.8,1.28; stroke-dashoffset: 0; stroke: #b0b0b0; stroke-width: 0.8"/>
     </g>
     <g id="line2d_24">
      <g>
       <use xlink:href="#m15ba3d2b7b" x="108" y="276.373747" style="fill: #a9a9a9; stroke: #a9a9a9; stroke-width: 0.8"/>
      </g>
     </g>
     <g id="text_12">
      <!-- 800 -->
      <g style="fill: #a9a9a9" transform="translate(81.9125 280.172966) scale(0.1 -0.1)">
       <defs>
        <path id="DejaVuSans-38" d="M 2034 2216 
Q 1584 2216 1326 1975 
Q 1069 1734 1069 1313 
Q 1069 891 1326 650 
Q 1584 409 2034 409 
Q 2484 409 2743 651 
Q 3003 894 3003 1313 
Q 3003 1734 2745 1975 
Q 2488 2216 2034 2216 
z
M 1403 2484 
Q 997 2584 770 2862 
Q 544 3141 544 3541 
Q 544 4100 942 4425 
Q 1341 4750 2034 4750 
Q 2731 4750 3128 4425 
Q 3525 4100 3525 3541 
Q 3525 3141 3298 2862 
Q 3072 2584 2669 2484 
Q 3125 2378 3379 2068 
Q 3634 1759 3634 1313 
Q 3634 634 3220 271 
Q 2806 -91 2034 -91 
Q 1263 -91 848 271 
Q 434 634 434 1313 
Q 434 1759 690 2068 
Q 947 2378 1403 2484 
z
M 1172 3481 
Q 1172 3119 1398 2916 
Q 1625 2713 2034 2713 
Q 2441 2713 2670 2916 
Q 2900 3119 2900 3481 
Q 2900 3844 2670 4047 
Q 2441 4250 2034 4250 
Q 1625 4250 1398 4047 
Q 1172 3844 1172 3481 
z
" transform="scale(0.015625)"/>
       </defs>
       <use xlink:href="#DejaVuSans-38"/>
       <use xlink:href="#DejaVuSans-30" x="63.623047"/>
       <use xlink:href="#DejaVuSans-30" x="127.246094"/>
      </g>
     </g>
    </g>
    <g id="ytick_3">
     <g id="line2d_25">
      <path d="M 108 244.908163 
L 777.6 244.908163 
" clip-path="url(#p57d46d8e7f)" style="fill: none; stroke-dasharray: 5.12,1.28,0.8,1.28; stroke-dashoffset: 0; stroke: #b0b0b0; stroke-width: 0.8"/>
     </g>
     <g id="line2d_26">
      <g>
       <use xlink:href="#m15ba3d2b7b" x="108" y="244.908163" style="fill: #a9a9a9; stroke: #a9a9a9; stroke-width: 0.8"/>
      </g>
     </g>
     <g id="text_13">
      <!-- 1600 -->
      <g style="fill: #a9a9a9" transform="translate(75.55 248.707382) scale(0.1 -0.1)">
       <defs>
        <path id="DejaVuSans-36" d="M 2113 2584 
Q 1688 2584 1439 2293 
Q 1191 2003 1191 1497 
Q 1191 994 1439 701 
Q 1688 409 2113 409 
Q 2538 409 2786 701 
Q 3034 994 3034 1497 
Q 3034 2003 2786 2293 
Q 2538 2584 2113 2584 
z
M 3366 4563 
L 3366 3988 
Q 3128 4100 2886 4159 
Q 2644 4219 2406 4219 
Q 1781 4219 1451 3797 
Q 1122 3375 1075 2522 
Q 1259 2794 1537 2939 
Q 1816 3084 2150 3084 
Q 2853 3084 3261 2657 
Q 3669 2231 3669 1497 
Q 3669 778 3244 343 
Q 2819 -91 2113 -91 
Q 1303 -91 875 529 
Q 447 1150 447 2328 
Q 447 3434 972 4092 
Q 1497 4750 2381 4750 
Q 2619 4750 2861 4703 
Q 3103 4656 3366 4563 
z
" transform="scale(0.015625)"/>
       </defs>
       <use xlink:href="#DejaVuSans-31"/>
       <use xlink:href="#DejaVuSans-36" x="63.623047"/>
       <use xlink:href="#DejaVuSans-30" x="127.246094"/>
       <use xlink:href="#DejaVuSans-30" x="190.869141"/>
      </g>
     </g>
    </g>
    <g id="ytick_4">
     <g id="line2d_27">
      <path d="M 108 213.442578 
L 777.6 213.442578 
" clip-path="url(#p57d46d8e7f)" style="fill: none; stroke-dasharray: 5.12,1.28,0.8,1.28; stroke-dashoffset: 0; stroke: #b0b0b0; stroke-width: 0.8"/>
     </g>
     <g id="line2d_28">
      <g>
       <use xlink:href="#m15ba3d2b7b" x="108" y="213.442578" style="fill: #a9a9a9; stroke: #a9a9a9; stroke-width: 0.8"/>
      </g>
     </g>
     <g id="text_14">
      <!-- 2400 -->
      <g style="fill: #a9a9a9" transform="translate(75.55 217.241797) scale(0.1 -0.1)">
       <use xlink:href="#DejaVuSans-32"/>
       <use xlink:href="#DejaVuSans-34" x="63.623047"/>
       <use xlink:href="#DejaVuSans-30" x="127.246094"/>
       <use xlink:href="#DejaVuSans-30" x="190.869141"/>
      </g>
     </g>
    </g>
    <g id="ytick_5">
     <g id="line2d_29">
      <path d="M 108 181.976994 
L 777.6 181.976994 
" clip-path="url(#p57d46d8e7f)" style="fill: none; stroke-dasharray: 5.12,1.28,0.8,1.28; stroke-dashoffset: 0; stroke: #b0b0b0; stroke-width: 0.8"/>
     </g>
     <g id="line2d_30">
      <g>
       <use xlink:href="#m15ba3d2b7b" x="108" y="181.976994" style="fill: #a9a9a9; stroke: #a9a9a9; stroke-width: 0.8"/>
      </g>
     </g>
     <g id="text_15">
      <!-- 3200 -->
      <g style="fill: #a9a9a9" transform="translate(75.55 185.776213) scale(0.1 -0.1)">
       <use xlink:href="#DejaVuSans-33"/>
       <use xlink:href="#DejaVuSans-32" x="63.623047"/>
       <use xlink:href="#DejaVuSans-30" x="127.246094"/>
       <use xlink:href="#DejaVuSans-30" x="190.869141"/>
      </g>
     </g>
    </g>
    <g id="ytick_6">
     <g id="line2d_31">
      <path d="M 108 150.511409 
L 777.6 150.511409 
" clip-path="url(#p57d46d8e7f)" style="fill: none; stroke-dasharray: 5.12,1.28,0.8,1.28; stroke-dashoffset: 0; stroke: #b0b0b0; stroke-width: 0.8"/>
     </g>
     <g id="line2d_32">
      <g>
       <use xlink:href="#m15ba3d2b7b" x="108" y="150.511409" style="fill: #a9a9a9; stroke: #a9a9a9; stroke-width: 0.8"/>
      </g>
     </g>
     <g id="text_16">
      <!-- 4000 -->
      <g style="fill: #a9a9a9" transform="translate(75.55 154.310628) scale(0.1 -0.1)">
       <use xlink:href="#DejaVuSans-34"/>
       <use xlink:href="#DejaVuSans-30" x="63.623047"/>
       <use xlink:href="#DejaVuSans-30" x="127.246094"/>
       <use xlink:href="#DejaVuSans-30" x="190.869141"/>
      </g>
     </g>
    </g>
    <g id="ytick_7">
     <g id="line2d_33">
      <path d="M 108 119.045825 
L 777.6 119.045825 
" clip-path="url(#p57d46d8e7f)" style="fill: none; stroke-dasharray: 5.12,1.28,0.8,1.28; stroke-dashoffset: 0; stroke: #b0b0b0; stroke-width: 0.8"/>
     </g>
     <g id="line2d_34">
      <g>
       <use xlink:href="#m15ba3d2b7b" x="108" y="119.045825" style="fill: #a9a9a9; stroke: #a9a9a9; stroke-width: 0.8"/>
      </g>
     </g>
     <g id="text_17">
      <!-- 4800 -->
      <g style="fill: #a9a9a9" transform="translate(75.55 122.845044) scale(0.1 -0.1)">
       <use xlink:href="#DejaVuSans-34"/>
       <use xlink:href="#DejaVuSans-38" x="63.623047"/>
       <use xlink:href="#DejaVuSans-30" x="127.246094"/>
       <use xlink:href="#DejaVuSans-30" x="190.869141"/>
      </g>
     </g>
    </g>
    <g id="ytick_8">
     <g id="line2d_35">
      <path d="M 108 87.58024 
L 777.6 87.58024 
" clip-path="url(#p57d46d8e7f)" style="fill: none; stroke-dasharray: 5.12,1.28,0.8,1.28; stroke-dashoffset: 0; stroke: #b0b0b0; stroke-width: 0.8"/>
     </g>
     <g id="line2d_36">
      <g>
       <use xlink:href="#m15ba3d2b7b" x="108" y="87.58024" style="fill: #a9a9a9; stroke: #a9a9a9; stroke-width: 0.8"/>
      </g>
     </g>
     <g id="text_18">
      <!-- 5600 -->
      <g style="fill: #a9a9a9" transform="translate(75.55 91.379459) scale(0.1 -0.1)">
       <use xlink:href="#DejaVuSans-35"/>
       <use xlink:href="#DejaVuSans-36" x="63.623047"/>
       <use xlink:href="#DejaVuSans-30" x="127.246094"/>
       <use xlink:href="#DejaVuSans-30" x="190.869141"/>
      </g>
     </g>
    </g>
    <g id="ytick_9">
     <g id="line2d_37">
      <path d="M 108 56.114656 
L 777.6 56.114656 
" clip-path="url(#p57d46d8e7f)" style="fill: none; stroke-dasharray: 5.12,1.28,0.8,1.28; stroke-dashoffset: 0; stroke: #b0b0b0; stroke-width: 0.8"/>
     </g>
     <g id="line2d_38">
      <g>
       <use xlink:href="#m15ba3d2b7b" x="108" y="56.114656" style="fill: #a9a9a9; stroke: #a9a9a9; stroke-width: 0.8"/>
      </g>
     </g>
     <g id="text_19">
      <!-- 6400 -->
      <g style="fill: #a9a9a9" transform="translate(75.55 59.913875) scale(0.1 -0.1)">
       <use xlink:href="#DejaVuSans-36"/>
       <use xlink:href="#DejaVuSans-34" x="63.623047"/>
       <use xlink:href="#DejaVuSans-30" x="127.246094"/>
       <use xlink:href="#DejaVuSans-30" x="190.869141"/>
      </g>
     </g>
    </g>
   </g>
   <g id="line2d_39">
    <path d="M 138.436364 307.721336 
L 141.771856 307.446012 
L 142.327771 307.21002 
L 143.995517 307.052692 
L 147.331009 306.384049 
L 150.666501 306.108725 
L 151.778331 305.676073 
L 152.334247 304.968097 
L 152.890162 304.574778 
L 153.446077 303.355486 
L 154.001993 303.276822 
L 154.557908 302.84417 
L 155.669738 302.293523 
L 157.8934 300.562916 
L 160.117061 299.500952 
L 161.784807 298.753644 
L 162.340722 297.888341 
L 163.452553 297.101701 
L 164.008468 296.865709 
L 169.567621 296.07907 
L 170.123537 295.803746 
L 174.014944 295.48909 
L 175.68269 295.056438 
L 180.685928 294.387795 
L 181.241843 294.073139 
L 181.797758 293.994475 
L 182.909589 293.640487 
L 186.800996 293.011175 
L 187.912827 292.696519 
L 189.580573 292.539192 
L 190.692403 292.421196 
L 191.248319 292.263868 
L 191.804234 292.224536 
L 193.47198 291.71322 
L 194.583811 291.634556 
L 195.695641 291.477228 
L 196.807472 291.241236 
L 197.363387 291.083908 
L 197.919303 290.336601 
L 199.587049 289.707289 
L 201.254795 289.274637 
L 201.81071 288.999313 
L 202.366625 288.959981 
L 205.146202 288.173342 
L 206.258032 288.094678 
L 206.813948 288.016014 
L 208.481694 287.504698 
L 210.705355 286.95405 
L 211.26127 286.718058 
L 211.817186 286.639394 
L 212.373101 286.364071 
L 217.932254 285.538099 
L 220.711831 284.751459 
L 221.267746 284.397472 
L 223.491407 283.807492 
L 225.715068 282.666864 
L 227.382814 282.273545 
L 227.93873 282.194881 
L 228.494645 281.919557 
L 229.606476 281.722897 
L 230.718306 281.211581 
L 233.497883 280.503605 
L 235.165629 280.070954 
L 236.833375 279.480974 
L 237.38929 279.40231 
L 238.501121 278.969658 
L 239.612951 278.890994 
L 240.724782 278.497674 
L 243.504359 278.065023 
L 244.060274 277.868363 
L 245.172105 277.829031 
L 247.395766 277.553707 
L 248.507597 277.003059 
L 255.17858 274.053161 
L 255.734496 273.463181 
L 256.846326 271.811238 
L 257.402242 271.65391 
L 257.958157 271.65391 
L 259.069988 270.827938 
L 259.625903 270.67061 
L 260.181818 270.395286 
L 260.737733 270.27729 
L 261.293649 269.765975 
L 261.849564 269.608647 
L 263.51731 268.822007 
L 264.629141 267.248728 
L 265.185056 266.89474 
L 265.740971 265.950773 
L 266.296887 265.360793 
L 269.632379 263.630186 
L 270.744209 262.764882 
L 271.300125 262.410894 
L 271.85604 261.584923 
L 272.411955 260.365631 
L 272.96787 259.53966 
L 273.523786 259.107008 
L 274.079701 258.871016 
L 276.303362 256.904417 
L 277.415193 255.999781 
L 277.971108 255.527798 
L 278.527024 254.78049 
L 279.638854 253.797191 
L 281.862516 252.341907 
L 282.418431 251.869924 
L 282.974346 251.751928 
L 284.086177 251.161948 
L 286.309838 250.02132 
L 287.421669 248.959357 
L 287.977584 248.290713 
L 289.089415 247.504074 
L 289.64533 247.346746 
L 290.201245 247.071422 
L 291.313076 246.324114 
L 291.868991 246.009458 
L 292.424907 245.930794 
L 296.316314 243.531544 
L 298.539975 242.351584 
L 299.09589 241.840268 
L 301.319552 241.132293 
L 301.875467 240.738973 
L 302.431382 240.620977 
L 304.655044 239.795005 
L 307.43462 238.89037 
L 307.990535 238.772374 
L 309.102366 237.789074 
L 310.770112 237.002435 
L 311.881943 236.333791 
L 312.993773 236.019135 
L 313.549689 235.665147 
L 314.105604 235.50782 
L 315.77335 234.445856 
L 318.552927 233.777212 
L 320.220672 232.793913 
L 320.776588 232.715249 
L 321.332503 232.518589 
L 322.444334 232.282597 
L 324.11208 231.023974 
L 325.779826 230.630654 
L 326.335741 230.433994 
L 326.891656 230.001342 
L 330.227148 228.900047 
L 330.783064 228.860715 
L 331.338979 228.703387 
L 332.450809 228.231403 
L 336.342217 226.854784 
L 337.454047 226.697456 
L 338.009963 226.540128 
L 338.565878 226.264804 
L 339.121793 226.146808 
L 341.90137 224.848853 
L 344.125031 223.668893 
L 348.572354 221.898954 
L 349.128269 221.82029 
L 350.2401 221.151647 
L 350.796015 221.072983 
L 353.019676 220.168347 
L 355.243337 219.814359 
L 356.355168 219.263712 
L 356.911083 218.791728 
L 357.466999 217.808428 
L 359.134745 217.493772 
L 361.358406 216.313813 
L 361.914321 216.195817 
L 366.361644 214.111222 
L 368.02939 213.757234 
L 369.14122 213.206587 
L 369.697136 212.970595 
L 370.253051 212.891931 
L 372.476712 211.908631 
L 374.144458 210.886 
L 374.700374 210.807336 
L 375.256289 210.610676 
L 375.812204 210.571344 
L 378.035866 209.942032 
L 378.591781 209.9027 
L 379.147696 209.470048 
L 380.259527 209.076729 
L 381.927273 208.526081 
L 382.483188 208.172093 
L 383.039103 208.014765 
L 383.595019 207.621445 
L 384.150934 207.424785 
L 385.262765 206.834806 
L 387.486426 206.166162 
L 388.042341 205.890838 
L 389.710087 204.592883 
L 390.266002 204.474887 
L 391.377833 203.609583 
L 391.933748 203.530919 
L 392.489664 202.665616 
L 393.045579 202.429624 
L 393.601494 201.996972 
L 394.15741 201.918308 
L 395.26924 201.249664 
L 395.825156 201.131668 
L 396.381071 200.895677 
L 396.936986 200.463025 
L 397.492902 200.266365 
L 399.160648 199.125737 
L 401.384309 197.98511 
L 401.940224 197.906446 
L 403.60797 197.080474 
L 404.163885 196.136507 
L 404.719801 195.664523 
L 405.275716 195.349867 
L 405.831631 195.231871 
L 406.943462 194.523896 
L 407.499377 194.4059 
L 408.611208 193.855252 
L 410.278954 193.147276 
L 411.390785 192.360637 
L 412.502615 191.180677 
L 413.614446 190.512034 
L 414.170361 190.158046 
L 414.726276 189.568066 
L 416.949938 188.034119 
L 417.505853 187.404807 
L 418.061768 186.972155 
L 419.173599 186.578836 
L 420.28543 185.831528 
L 421.953176 185.005556 
L 422.509091 184.926892 
L 424.176837 184.022257 
L 425.288667 183.353613 
L 430.847821 181.387014 
L 431.403736 180.954362 
L 433.627397 180.128391 
L 434.183313 179.971063 
L 434.739228 179.538411 
L 437.518804 178.043796 
L 438.630635 175.841205 
L 439.742466 174.582582 
L 440.854296 173.913938 
L 442.522042 173.245294 
L 443.077958 173.16663 
L 443.633873 172.851974 
L 446.41345 171.986671 
L 446.969365 171.750679 
L 448.081196 171.003371 
L 449.193026 170.610052 
L 452.528518 168.643452 
L 453.084433 168.053473 
L 454.196264 167.463493 
L 456.975841 166.00821 
L 460.311333 164.395599 
L 460.867248 164.277603 
L 462.534994 163.687623 
L 463.090909 163.530295 
L 465.31457 162.546995 
L 466.426401 162.114344 
L 466.982316 161.681692 
L 468.094147 161.327704 
L 471.429639 159.636429 
L 472.541469 158.771125 
L 473.6533 158.377806 
L 474.209215 157.905822 
L 474.765131 157.827158 
L 475.876961 157.001186 
L 476.988792 156.450538 
L 477.544707 156.214547 
L 478.100623 155.663899 
L 481.436115 154.444607 
L 483.103861 153.6973 
L 484.771606 153.185984 
L 485.883437 153.028656 
L 486.439352 152.792664 
L 486.995268 152.714 
L 488.107098 152.242017 
L 488.663014 152.202685 
L 490.886675 151.376713 
L 492.554421 150.236086 
L 495.333998 148.93813 
L 498.113574 147.443515 
L 498.669489 147.325519 
L 500.337235 146.381551 
L 502.004981 145.830904 
L 503.116812 145.476916 
L 505.340473 144.76894 
L 506.452304 144.414952 
L 508.12005 144.139629 
L 510.343711 143.431653 
L 510.899626 143.195661 
L 511.455542 143.116997 
L 512.011457 142.841673 
L 513.123288 142.605681 
L 514.791034 142.015702 
L 515.902864 141.897706 
L 517.014695 141.622382 
L 518.682441 141.347058 
L 519.238356 141.18973 
L 520.350187 141.071734 
L 523.129763 140.363758 
L 524.241594 140.088435 
L 524.797509 139.773779 
L 527.577086 139.065803 
L 528.133001 138.947807 
L 530.356663 138.121835 
L 533.136239 137.295864 
L 533.692154 137.295864 
L 534.803985 136.902544 
L 535.3599 136.351896 
L 536.471731 135.919245 
L 538.139477 135.250601 
L 539.251308 134.857281 
L 539.807223 134.739285 
L 540.363138 134.385297 
L 540.919054 134.267301 
L 541.474969 133.952646 
L 542.5868 133.755986 
L 543.69863 133.323334 
L 544.254545 133.205338 
L 544.810461 132.85135 
L 545.366376 132.733354 
L 545.922291 132.26137 
L 547.590037 131.946715 
L 548.701868 131.396067 
L 549.257783 130.766755 
L 550.369614 130.530763 
L 555.372852 129.4688 
L 555.928767 129.4688 
L 556.484682 129.232808 
L 558.708344 128.839488 
L 559.264259 128.603496 
L 560.932005 128.367504 
L 563.155666 127.659529 
L 564.823412 127.266209 
L 566.491158 126.833557 
L 568.158904 126.322241 
L 570.938481 125.49627 
L 571.494396 125.181614 
L 573.162142 124.630966 
L 573.718057 124.237646 
L 574.829888 123.92299 
L 575.941719 123.569003 
L 577.053549 123.097019 
L 578.721295 122.349711 
L 580.389041 122.231715 
L 582.612702 121.602404 
L 583.168618 121.248416 
L 584.280448 120.93376 
L 587.060025 119.675137 
L 587.61594 119.635805 
L 593.731009 117.55121 
L 595.95467 117.000562 
L 596.510585 116.843234 
L 597.622416 116.331918 
L 598.178331 116.253254 
L 599.290162 115.938598 
L 599.846077 115.505947 
L 600.401993 115.230623 
L 600.957908 114.561979 
L 601.513823 114.168659 
L 602.625654 113.854003 
L 603.181569 113.421352 
L 607.628892 111.612081 
L 608.184807 111.454753 
L 608.740722 111.100765 
L 610.964384 110.432121 
L 612.076214 109.881473 
L 613.188045 109.21283 
L 613.74396 109.094834 
L 614.855791 108.42619 
L 615.411706 108.190198 
L 616.523537 107.521555 
L 618.191283 106.734915 
L 618.747198 106.341595 
L 619.859029 105.987607 
L 620.970859 105.318964 
L 621.526775 105.122304 
L 622.08269 104.728984 
L 623.194521 104.335664 
L 623.750436 104.217668 
L 625.974097 103.234369 
L 628.753674 102.251069 
L 629.865504 102.093741 
L 630.42142 101.739753 
L 630.977335 101.661089 
L 631.53325 101.46443 
L 633.200996 101.149774 
L 637.092403 99.261839 
L 637.648319 99.183175 
L 639.316065 98.278539 
L 642.095641 97.216576 
L 645.987049 95.564632 
L 647.098879 95.407305 
L 647.654795 95.053317 
L 648.21071 95.013985 
L 649.32254 94.659997 
L 650.434371 94.109349 
L 650.990286 94.030685 
L 653.769863 92.92939 
L 654.325778 92.811394 
L 655.437609 92.457406 
L 655.993524 92.260746 
L 657.105355 92.064086 
L 658.773101 91.55277 
L 663.776339 89.15352 
L 664.332254 89.035524 
L 664.888169 88.720868 
L 665.444085 88.602872 
L 667.111831 87.737568 
L 667.667746 87.58024 
L 669.891407 86.557609 
L 671.559153 86.124957 
L 674.894645 84.827002 
L 676.562391 84.276354 
L 685.457036 80.61848 
L 687.680697 79.753176 
L 689.348443 78.848541 
L 689.904359 78.730545 
L 691.016189 78.297893 
L 691.572105 78.297893 
L 692.683935 77.825909 
L 693.239851 77.393257 
L 694.351681 76.331294 
L 696.019427 75.544654 
L 696.575342 75.426658 
L 697.131258 75.151334 
L 697.687173 75.072671 
L 698.243088 74.679351 
L 698.799004 74.561355 
L 699.910834 73.892711 
L 701.57858 73.06674 
L 702.134496 72.909412 
L 703.246326 72.358764 
L 704.914072 71.965444 
L 705.469988 71.768784 
L 706.025903 71.69012 
L 706.581818 71.414796 
L 707.137733 71.2968 
L 712.140971 69.251537 
L 712.696887 69.094209 
L 716.588294 67.284938 
L 717.144209 67.088278 
L 717.700125 67.009614 
L 719.923786 65.947651 
L 722.703362 64.649696 
L 723.815193 64.256376 
L 724.371108 63.784392 
L 724.927024 63.469736 
L 726.59477 62.95842 
L 727.7066 62.211113 
L 728.262516 62.171781 
L 729.374346 61.857125 
L 729.930262 61.739129 
L 732.153923 60.913157 
L 733.821669 60.401842 
L 734.377584 60.323178 
L 735.489415 59.733198 
L 736.04533 59.536538 
L 736.601245 59.103886 
L 738.268991 58.671235 
L 738.824907 58.317247 
L 739.936737 58.041923 
L 741.604483 57.137287 
L 742.160399 57.097955 
L 743.828144 56.547308 
L 744.939975 56.429312 
L 745.49589 56.114656 
L 746.607721 55.8 
L 747.163636 55.8 
L 747.163636 55.8 
" clip-path="url(#p57d46d8e7f)" style="fill: none; stroke: #1f77b4; stroke-width: 1.5; stroke-linecap: square"/>
   </g>
   <g id="line2d_40">
    <path d="M 138.992279 307.8 
L 140.660025 307.721336 
L 142.327771 307.682004 
L 145.663263 307.60334 
L 148.442839 307.485344 
L 150.666501 307.485344 
L 151.222416 307.328016 
L 153.446077 307.249352 
L 155.113823 307.052692 
L 156.781569 306.895364 
L 160.117061 306.738037 
L 160.672976 306.738037 
L 161.228892 306.620041 
L 163.452553 306.541377 
L 164.564384 306.462713 
L 169.011706 306.384049 
L 171.791283 306.266053 
L 178.462267 306.187389 
L 181.241843 306.069393 
L 184.577335 305.990729 
L 186.800996 305.912065 
L 191.804234 305.833401 
L 193.47198 305.794069 
L 195.139726 305.754737 
L 196.807472 305.558077 
L 200.142964 305.518745 
L 201.254795 305.440081 
L 205.146202 305.361417 
L 211.26127 305.007429 
L 215.152677 304.928765 
L 216.264508 304.850101 
L 217.932254 304.771437 
L 221.267746 304.61411 
L 223.491407 304.574778 
L 225.159153 304.41745 
L 232.386052 303.984798 
L 235.165629 303.906134 
L 240.168867 303.63081 
L 241.836613 303.552146 
L 247.395766 303.23749 
L 253.510834 303.158826 
L 255.734496 302.922834 
L 256.846326 302.84417 
L 264.073225 302.254191 
L 267.408717 301.821539 
L 269.632379 301.742875 
L 274.079701 301.152895 
L 277.415193 301.074231 
L 279.082939 300.916903 
L 280.19477 300.877571 
L 281.3066 300.759575 
L 282.974346 300.680912 
L 284.086177 300.523584 
L 286.865753 300.208928 
L 289.089415 300.130264 
L 290.201245 300.0516 
L 292.424907 299.972936 
L 293.536737 299.894272 
L 296.316314 299.618948 
L 296.872229 299.46162 
L 300.207721 299.304292 
L 302.987298 299.225628 
L 310.214197 298.792976 
L 311.881943 298.714312 
L 319.108842 298.281661 
L 323.000249 298.202997 
L 323.556164 298.085001 
L 328.003487 298.006337 
L 331.894894 297.809677 
L 338.009963 297.731013 
L 341.90137 297.534353 
L 346.348692 297.455689 
L 350.796015 297.219697 
L 354.687422 297.141033 
L 365.249813 296.47239 
L 370.808966 296.393726 
L 373.032628 296.157734 
L 374.700374 296.118402 
L 376.36812 296.07907 
L 378.591781 295.843078 
L 384.150934 295.528422 
L 387.486426 295.449758 
L 389.154172 295.410426 
L 390.821918 295.371094 
L 392.489664 295.213766 
L 396.936986 295.135102 
L 398.048817 294.977774 
L 399.160648 294.89911 
L 401.940224 294.781114 
L 403.052055 294.70245 
L 404.163885 294.623786 
L 409.167123 294.545123 
L 410.278954 294.427127 
L 412.502615 294.387795 
L 413.058531 294.269799 
L 414.170361 294.191135 
L 414.726276 294.073139 
L 416.394022 293.994475 
L 421.39726 293.719151 
L 422.509091 293.679819 
L 424.176837 293.522491 
L 425.844583 293.483159 
L 427.512329 293.404495 
L 430.291905 293.286499 
L 438.07472 293.207835 
L 441.966127 293.011175 
L 446.41345 292.932511 
L 448.637111 292.853847 
L 450.860772 292.814515 
L 451.972603 292.696519 
L 454.196264 292.617855 
L 459.755417 292.3032 
L 463.090909 292.263868 
L 464.758655 292.10654 
L 466.426401 292.067208 
L 470.317808 291.988544 
L 472.541469 291.90988 
L 479.212453 291.831216 
L 481.99203 291.71322 
L 485.327522 291.634556 
L 486.995268 291.437896 
L 490.33076 291.398564 
L 491.998506 291.241236 
L 494.222167 291.162572 
L 500.893151 291.083908 
L 503.672727 290.965912 
L 513.123288 290.92658 
L 514.235118 290.847916 
L 515.902864 290.808584 
L 523.129763 290.72992 
L 524.241594 290.651256 
L 530.356663 290.572592 
L 532.580324 290.493929 
L 539.251308 290.454597 
L 540.363138 290.375933 
L 548.701868 290.336601 
L 550.369614 290.179273 
L 564.267497 290.100609 
L 565.935243 290.061277 
L 580.944956 289.982613 
L 583.168618 289.903949 
L 592.619178 289.825285 
L 593.731009 289.746621 
L 596.510585 289.667957 
L 598.178331 289.510629 
L 600.957908 289.431965 
L 603.181569 289.353301 
L 606.517061 289.274637 
L 608.184807 289.235305 
L 610.408468 289.156641 
L 612.076214 289.117309 
L 614.855791 289.038645 
L 615.967621 288.959981 
L 619.303113 288.881317 
L 622.08269 288.763321 
L 623.194521 288.723989 
L 624.306351 288.645325 
L 625.974097 288.605993 
L 628.197758 288.527329 
L 630.42142 288.448666 
L 637.648319 288.370002 
L 639.87198 288.291338 
L 644.319303 288.212674 
L 648.21071 288.016014 
L 653.213948 287.93735 
L 654.325778 287.858686 
L 664.332254 287.780022 
L 666 287.74069 
L 668.779577 287.701358 
L 671.003238 287.465366 
L 672.670984 287.426034 
L 676.006476 287.34737 
L 681.565629 287.032714 
L 684.345205 286.95405 
L 686.568867 286.875386 
L 692.683935 286.796722 
L 695.463512 286.482066 
L 697.687173 286.403403 
L 701.57858 286.324739 
L 702.134496 286.206743 
L 707.137733 286.128079 
L 709.91731 286.010083 
L 717.144209 285.970751 
L 717.700125 285.852755 
L 722.147447 285.774091 
L 723.815193 285.734759 
L 726.59477 285.656095 
L 728.262516 285.616763 
L 737.713076 285.538099 
L 740.492653 285.420103 
L 747.163636 285.341439 
L 747.163636 285.341439 
" clip-path="url(#p57d46d8e7f)" style="fill: none; stroke: #ff7f0e; stroke-width: 1.5; stroke-linecap: square"/>
   </g>
   <g id="patch_3">
    <path d="M 108 320.4 
L 108 43.2 
" style="fill: none; stroke: #a9a9a9; stroke-width: 0.8; stroke-linejoin: miter; stroke-linecap: square"/>
   </g>
   <g id="patch_4">
    <path d="M 777.6 320.4 
L 777.6 43.2 
" style="fill: none"/>
   </g>
   <g id="patch_5">
    <path d="M 108 320.4 
L 777.6 320.4 
" style="fill: none; stroke: #a9a9a9; stroke-width: 0.8; stroke-linejoin: miter; stroke-linecap: square"/>
   </g>
   <g id="patch_6">
    <path d="M 108 43.2 
L 777.6 43.2 
" style="fill: none"/>
   </g>
   <g id="text_20">
    <!-- get_subscribe history -->
    <g style="fill: #a9a9a9" transform="translate(378.6075 37.2) scale(0.12 -0.12)">
     <defs>
      <path id="DejaVuSans-67" d="M 2906 1791 
Q 2906 2416 2648 2759 
Q 2391 3103 1925 3103 
Q 1463 3103 1205 2759 
Q 947 2416 947 1791 
Q 947 1169 1205 825 
Q 1463 481 1925 481 
Q 2391 481 2648 825 
Q 2906 1169 2906 1791 
z
M 3481 434 
Q 3481 -459 3084 -895 
Q 2688 -1331 1869 -1331 
Q 1566 -1331 1297 -1286 
Q 1028 -1241 775 -1147 
L 775 -588 
Q 1028 -725 1275 -790 
Q 1522 -856 1778 -856 
Q 2344 -856 2625 -561 
Q 2906 -266 2906 331 
L 2906 616 
Q 2728 306 2450 153 
Q 2172 0 1784 0 
Q 1141 0 747 490 
Q 353 981 353 1791 
Q 353 2603 747 3093 
Q 1141 3584 1784 3584 
Q 2172 3584 2450 3431 
Q 2728 3278 2906 2969 
L 2906 3500 
L 3481 3500 
L 3481 434 
z
" transform="scale(0.015625)"/>
      <path id="DejaVuSans-65" d="M 3597 1894 
L 3597 1613 
L 953 1613 
Q 991 1019 1311 708 
Q 1631 397 2203 397 
Q 2534 397 2845 478 
Q 3156 559 3463 722 
L 3463 178 
Q 3153 47 2828 -22 
Q 2503 -91 2169 -91 
Q 1331 -91 842 396 
Q 353 884 353 1716 
Q 353 2575 817 3079 
Q 1281 3584 2069 3584 
Q 2775 3584 3186 3129 
Q 3597 2675 3597 1894 
z
M 3022 2063 
Q 3016 2534 2758 2815 
Q 2500 3097 2075 3097 
Q 1594 3097 1305 2825 
Q 1016 2553 972 2059 
L 3022 2063 
z
" transform="scale(0.015625)"/>
      <path id="DejaVuSans-74" d="M 1172 4494 
L 1172 3500 
L 2356 3500 
L 2356 3053 
L 1172 3053 
L 1172 1153 
Q 1172 725 1289 603 
Q 1406 481 1766 481 
L 2356 481 
L 2356 0 
L 1766 0 
Q 1100 0 847 248 
Q 594 497 594 1153 
L 594 3053 
L 172 3053 
L 172 3500 
L 594 3500 
L 594 4494 
L 1172 4494 
z
" transform="scale(0.015625)"/>
      <path id="DejaVuSans-5f" d="M 3263 -1063 
L 3263 -1509 
L -63 -1509 
L -63 -1063 
L 3263 -1063 
z
" transform="scale(0.015625)"/>
      <path id="DejaVuSans-73" d="M 2834 3397 
L 2834 2853 
Q 2591 2978 2328 3040 
Q 2066 3103 1784 3103 
Q 1356 3103 1142 2972 
Q 928 2841 928 2578 
Q 928 2378 1081 2264 
Q 1234 2150 1697 2047 
L 1894 2003 
Q 2506 1872 2764 1633 
Q 3022 1394 3022 966 
Q 3022 478 2636 193 
Q 2250 -91 1575 -91 
Q 1294 -91 989 -36 
Q 684 19 347 128 
L 347 722 
Q 666 556 975 473 
Q 1284 391 1588 391 
Q 1994 391 2212 530 
Q 2431 669 2431 922 
Q 2431 1156 2273 1281 
Q 2116 1406 1581 1522 
L 1381 1569 
Q 847 1681 609 1914 
Q 372 2147 372 2553 
Q 372 3047 722 3315 
Q 1072 3584 1716 3584 
Q 2034 3584 2315 3537 
Q 2597 3491 2834 3397 
z
" transform="scale(0.015625)"/>
      <path id="DejaVuSans-75" d="M 544 1381 
L 544 3500 
L 1119 3500 
L 1119 1403 
Q 1119 906 1312 657 
Q 1506 409 1894 409 
Q 2359 409 2629 706 
Q 2900 1003 2900 1516 
L 2900 3500 
L 3475 3500 
L 3475 0 
L 2900 0 
L 2900 538 
Q 2691 219 2414 64 
Q 2138 -91 1772 -91 
Q 1169 -91 856 284 
Q 544 659 544 1381 
z
M 1991 3584 
L 1991 3584 
z
" transform="scale(0.015625)"/>
      <path id="DejaVuSans-62" d="M 3116 1747 
Q 3116 2381 2855 2742 
Q 2594 3103 2138 3103 
Q 1681 3103 1420 2742 
Q 1159 2381 1159 1747 
Q 1159 1113 1420 752 
Q 1681 391 2138 391 
Q 2594 391 2855 752 
Q 3116 1113 3116 1747 
z
M 1159 2969 
Q 1341 3281 1617 3432 
Q 1894 3584 2278 3584 
Q 2916 3584 3314 3078 
Q 3713 2572 3713 1747 
Q 3713 922 3314 415 
Q 2916 -91 2278 -91 
Q 1894 -91 1617 61 
Q 1341 213 1159 525 
L 1159 0 
L 581 0 
L 581 4863 
L 1159 4863 
L 1159 2969 
z
" transform="scale(0.015625)"/>
      <path id="DejaVuSans-63" d="M 3122 3366 
L 3122 2828 
Q 2878 2963 2633 3030 
Q 2388 3097 2138 3097 
Q 1578 3097 1268 2742 
Q 959 2388 959 1747 
Q 959 1106 1268 751 
Q 1578 397 2138 397 
Q 2388 397 2633 464 
Q 2878 531 3122 666 
L 3122 134 
Q 2881 22 2623 -34 
Q 2366 -91 2075 -91 
Q 1284 -91 818 406 
Q 353 903 353 1747 
Q 353 2603 823 3093 
Q 1294 3584 2113 3584 
Q 2378 3584 2631 3529 
Q 2884 3475 3122 3366 
z
" transform="scale(0.015625)"/>
      <path id="DejaVuSans-72" d="M 2631 2963 
Q 2534 3019 2420 3045 
Q 2306 3072 2169 3072 
Q 1681 3072 1420 2755 
Q 1159 2438 1159 1844 
L 1159 0 
L 581 0 
L 581 3500 
L 1159 3500 
L 1159 2956 
Q 1341 3275 1631 3429 
Q 1922 3584 2338 3584 
Q 2397 3584 2469 3576 
Q 2541 3569 2628 3553 
L 2631 2963 
z
" transform="scale(0.015625)"/>
      <path id="DejaVuSans-69" d="M 603 3500 
L 1178 3500 
L 1178 0 
L 603 0 
L 603 3500 
z
M 603 4863 
L 1178 4863 
L 1178 4134 
L 603 4134 
L 603 4863 
z
" transform="scale(0.015625)"/>
      <path id="DejaVuSans-20" transform="scale(0.015625)"/>
      <path id="DejaVuSans-68" d="M 3513 2113 
L 3513 0 
L 2938 0 
L 2938 2094 
Q 2938 2591 2744 2837 
Q 2550 3084 2163 3084 
Q 1697 3084 1428 2787 
Q 1159 2491 1159 1978 
L 1159 0 
L 581 0 
L 581 4863 
L 1159 4863 
L 1159 2956 
Q 1366 3272 1645 3428 
Q 1925 3584 2291 3584 
Q 2894 3584 3203 3211 
Q 3513 2838 3513 2113 
z
" transform="scale(0.015625)"/>
      <path id="DejaVuSans-6f" d="M 1959 3097 
Q 1497 3097 1228 2736 
Q 959 2375 959 1747 
Q 959 1119 1226 758 
Q 1494 397 1959 397 
Q 2419 397 2687 759 
Q 2956 1122 2956 1747 
Q 2956 2369 2687 2733 
Q 2419 3097 1959 3097 
z
M 1959 3584 
Q 2709 3584 3137 3096 
Q 3566 2609 3566 1747 
Q 3566 888 3137 398 
Q 2709 -91 1959 -91 
Q 1206 -91 779 398 
Q 353 888 353 1747 
Q 353 2609 779 3096 
Q 1206 3584 1959 3584 
z
" transform="scale(0.015625)"/>
      <path id="DejaVuSans-79" d="M 2059 -325 
Q 1816 -950 1584 -1140 
Q 1353 -1331 966 -1331 
L 506 -1331 
L 506 -850 
L 844 -850 
Q 1081 -850 1212 -737 
Q 1344 -625 1503 -206 
L 1606 56 
L 191 3500 
L 800 3500 
L 1894 763 
L 2988 3500 
L 3597 3500 
L 2059 -325 
z
" transform="scale(0.015625)"/>
     </defs>
     <use xlink:href="#DejaVuSans-67"/>
     <use xlink:href="#DejaVuSans-65" x="63.476562"/>
     <use xlink:href="#DejaVuSans-74" x="125"/>
     <use xlink:href="#DejaVuSans-5f" x="164.208984"/>
     <use xlink:href="#DejaVuSans-73" x="214.208984"/>
     <use xlink:href="#DejaVuSans-75" x="266.308594"/>
     <use xlink:href="#DejaVuSans-62" x="329.6875"/>
     <use xlink:href="#DejaVuSans-73" x="393.164062"/>
     <use xlink:href="#DejaVuSans-63" x="445.263672"/>
     <use xlink:href="#DejaVuSans-72" x="500.244141"/>
     <use xlink:href="#DejaVuSans-69" x="541.357422"/>
     <use xlink:href="#DejaVuSans-62" x="569.140625"/>
     <use xlink:href="#DejaVuSans-65" x="632.617188"/>
     <use xlink:href="#DejaVuSans-20" x="694.140625"/>
     <use xlink:href="#DejaVuSans-68" x="725.927734"/>
     <use xlink:href="#DejaVuSans-69" x="789.306641"/>
     <use xlink:href="#DejaVuSans-73" x="817.089844"/>
     <use xlink:href="#DejaVuSans-74" x="869.189453"/>
     <use xlink:href="#DejaVuSans-6f" x="908.398438"/>
     <use xlink:href="#DejaVuSans-72" x="969.580078"/>
     <use xlink:href="#DejaVuSans-79" x="1010.693359"/>
    </g>
   </g>
   <g id="legend_1">
    <g id="line2d_41">
     <path d="M 815.08 328.498438 
L 825.08 328.498438 
L 835.08 328.498438 
" style="fill: none; stroke: #1f77b4; stroke-width: 1.5; stroke-linecap: square"/>
    </g>
    <g id="text_21">
     <!-- star -->
     <g style="fill: #a9a9a9" transform="translate(843.08 331.998438) scale(0.1 -0.1)">
      <defs>
       <path id="DejaVuSans-61" d="M 2194 1759 
Q 1497 1759 1228 1600 
Q 959 1441 959 1056 
Q 959 750 1161 570 
Q 1363 391 1709 391 
Q 2188 391 2477 730 
Q 2766 1069 2766 1631 
L 2766 1759 
L 2194 1759 
z
M 3341 1997 
L 3341 0 
L 2766 0 
L 2766 531 
Q 2569 213 2275 61 
Q 1981 -91 1556 -91 
Q 1019 -91 701 211 
Q 384 513 384 1019 
Q 384 1609 779 1909 
Q 1175 2209 1959 2209 
L 2766 2209 
L 2766 2266 
Q 2766 2663 2505 2880 
Q 2244 3097 1772 3097 
Q 1472 3097 1187 3025 
Q 903 2953 641 2809 
L 641 3341 
Q 956 3463 1253 3523 
Q 1550 3584 1831 3584 
Q 2591 3584 2966 3190 
Q 3341 2797 3341 1997 
z
" transform="scale(0.015625)"/>
      </defs>
      <use xlink:href="#DejaVuSans-73"/>
      <use xlink:href="#DejaVuSans-74" x="52.099609"/>
      <use xlink:href="#DejaVuSans-61" x="91.308594"/>
      <use xlink:href="#DejaVuSans-72" x="152.587891"/>
     </g>
    </g>
    <g id="line2d_42">
     <path d="M 815.08 343.176562 
L 825.08 343.176562 
L 835.08 343.176562 
" style="fill: none; stroke: #ff7f0e; stroke-width: 1.5; stroke-linecap: square"/>
    </g>
    <g id="text_22">
     <!-- fork -->
     <g style="fill: #a9a9a9" transform="translate(843.08 346.676562) scale(0.1 -0.1)">
      <defs>
       <path id="DejaVuSans-66" d="M 2375 4863 
L 2375 4384 
L 1825 4384 
Q 1516 4384 1395 4259 
Q 1275 4134 1275 3809 
L 1275 3500 
L 2222 3500 
L 2222 3053 
L 1275 3053 
L 1275 0 
L 697 0 
L 697 3053 
L 147 3053 
L 147 3500 
L 697 3500 
L 697 3744 
Q 697 4328 969 4595 
Q 1241 4863 1831 4863 
L 2375 4863 
z
" transform="scale(0.015625)"/>
       <path id="DejaVuSans-6b" d="M 581 4863 
L 1159 4863 
L 1159 1991 
L 2875 3500 
L 3609 3500 
L 1753 1863 
L 3688 0 
L 2938 0 
L 1159 1709 
L 1159 0 
L 581 0 
L 581 4863 
z
" transform="scale(0.015625)"/>
      </defs>
      <use xlink:href="#DejaVuSans-66"/>
      <use xlink:href="#DejaVuSans-6f" x="35.205078"/>
      <use xlink:href="#DejaVuSans-72" x="96.386719"/>
      <use xlink:href="#DejaVuSans-6b" x="137.5"/>
     </g>
    </g>
   </g>
  </g>
 </g>
 <defs>
  <clipPath id="p57d46d8e7f">
   <rect x="108" y="43.2" width="669.6" height="277.2"/>
  </clipPath>
 </defs>
</svg>
